<?xml version="1.0" encoding="utf-8"?>
<svg version="1.1" xmlns:xlink="http://www.w3.org/1999/xlink" width="29px" height="33px" xmlns="http://www.w3.org/2000/svg">
  <defs>
    <pattern id="BGPattern" patternUnits="userSpaceOnUse" alignment="0 0" imageRepeat="None" />
    <mask fill="white" id="Clip315">
      <path d="M 2.628125 0  L 26.371875000000003 0  C 26.719270833333336 0  27.051562500000003 0.06543291473892987  27.36875 0.1962987442167896  C 27.8671875 0.38532716457369  28.263671875 0.6834104428288154  28.558203125 1.0905485789821547  C 28.852734374999997 1.4976867151354905  29 1.948446794448114  29 2.4428288169200254  L 29 30.557171183079976  C 29 31.051553205551887  28.852734374999997 31.502313284864506  28.558203125 31.909451421017845  C 28.263671875 32.316589557171184  27.8671875 32.614672835426305  27.36875 32.80370125578321  C 27.081770833333337 32.92002643754131  26.74947916666667 32.97818902842036  26.371875000000003 32.97818902842036  C 25.646875 32.97818902842036  25.020052083333336 32.74553866490416  24.491406249999997 32.28023793787178  L 14.5 23.032385988103105  L 4.508593749999999 32.28023793787178  C 3.96484375 32.76007931262393  3.3380208333333337 33  2.628125 33  C 2.2807291666666667 33  1.9484374999999998 32.93456708526107  1.63125 32.80370125578321  C 1.1328125 32.614672835426305  0.736328125 32.316589557171184  0.441796875 31.909451421017845  C 0.147265625 31.502313284864506  0 31.051553205551887  0 30.557171183079976  L 0 2.4428288169200254  C 0 1.948446794448114  0.147265625 1.4976867151354905  0.441796875 1.0905485789821547  C 0.736328125 0.6834104428288154  1.1328125 0.38532716457369  1.63125 0.1962987442167896  C 1.9484374999999998 0.06543291473892987  2.2807291666666667 0  2.628125 0  Z " fill-rule="evenodd" />
    </mask>
  </defs>
  <g transform="matrix(1 0 0 1 0 -6 )">
    <path d="M 2.628125 0  L 26.371875000000003 0  C 26.719270833333336 0  27.051562500000003 0.06543291473892987  27.36875 0.1962987442167896  C 27.8671875 0.38532716457369  28.263671875 0.6834104428288154  28.558203125 1.0905485789821547  C 28.852734374999997 1.4976867151354905  29 1.948446794448114  29 2.4428288169200254  L 29 30.557171183079976  C 29 31.051553205551887  28.852734374999997 31.502313284864506  28.558203125 31.909451421017845  C 28.263671875 32.316589557171184  27.8671875 32.614672835426305  27.36875 32.80370125578321  C 27.081770833333337 32.92002643754131  26.74947916666667 32.97818902842036  26.371875000000003 32.97818902842036  C 25.646875 32.97818902842036  25.020052083333336 32.74553866490416  24.491406249999997 32.28023793787178  L 14.5 23.032385988103105  L 4.508593749999999 32.28023793787178  C 3.96484375 32.76007931262393  3.3380208333333337 33  2.628125 33  C 2.2807291666666667 33  1.9484374999999998 32.93456708526107  1.63125 32.80370125578321  C 1.1328125 32.614672835426305  0.736328125 32.316589557171184  0.441796875 31.909451421017845  C 0.147265625 31.502313284864506  0 31.051553205551887  0 30.557171183079976  L 0 2.4428288169200254  C 0 1.948446794448114  0.147265625 1.4976867151354905  0.441796875 1.0905485789821547  C 0.736328125 0.6834104428288154  1.1328125 0.38532716457369  1.63125 0.1962987442167896  C 1.9484374999999998 0.06543291473892987  2.2807291666666667 0  2.628125 0  Z " fill-rule="nonzero" fill="rgba(255, 255, 255, 1)" stroke="none" transform="matrix(1 0 0 1 0 6 )" class="fill" />
    <path d="M 2.628125 0  L 26.371875000000003 0  C 26.719270833333336 0  27.051562500000003 0.06543291473892987  27.36875 0.1962987442167896  C 27.8671875 0.38532716457369  28.263671875 0.6834104428288154  28.558203125 1.0905485789821547  C 28.852734374999997 1.4976867151354905  29 1.948446794448114  29 2.4428288169200254  L 29 30.557171183079976  C 29 31.051553205551887  28.852734374999997 31.502313284864506  28.558203125 31.909451421017845  C 28.263671875 32.316589557171184  27.8671875 32.614672835426305  27.36875 32.80370125578321  C 27.081770833333337 32.92002643754131  26.74947916666667 32.97818902842036  26.371875000000003 32.97818902842036  C 25.646875 32.97818902842036  25.020052083333336 32.74553866490416  24.491406249999997 32.28023793787178  L 14.5 23.032385988103105  L 4.508593749999999 32.28023793787178  C 3.96484375 32.76007931262393  3.3380208333333337 33  2.628125 33  C 2.2807291666666667 33  1.9484374999999998 32.93456708526107  1.63125 32.80370125578321  C 1.1328125 32.614672835426305  0.736328125 32.316589557171184  0.441796875 31.909451421017845  C 0.147265625 31.502313284864506  0 31.051553205551887  0 30.557171183079976  L 0 2.4428288169200254  C 0 1.948446794448114  0.147265625 1.4976867151354905  0.441796875 1.0905485789821547  C 0.736328125 0.6834104428288154  1.1328125 0.38532716457369  1.63125 0.1962987442167896  C 1.9484374999999998 0.06543291473892987  2.2807291666666667 0  2.628125 0  Z " stroke-width="0" stroke-dasharray="0" stroke="rgba(255, 255, 255, 0)" fill="none" transform="matrix(1 0 0 1 0 6 )" class="stroke" mask="url(#Clip315)" />
  </g>
</svg>