<?xml version="1.0" encoding="utf-8"?>
<svg version="1.1" xmlns:xlink="http://www.w3.org/1999/xlink" width="28px" height="32px" xmlns="http://www.w3.org/2000/svg">
  <defs>
    <pattern id="BGPattern" patternUnits="userSpaceOnUse" alignment="0 0" imageRepeat="None" />
    <mask fill="white" id="Clip316">
      <path d="M 2.5375 0  L 25.462500000000002 0  C 25.79791666666667 0  26.118750000000002 0.06345009914078048  26.425 0.19035029742234144  C 26.90625 0.3736505838290327  27.2890625 0.6627010354703664  27.5734375 1.0575016523463319  C 27.857812499999998 1.4523022692222938  28 1.8894029521921105  28 2.368803701255782  L 28 29.631196298744218  C 28 30.11059704780789  27.857812499999998 30.547697730777703  27.5734375 30.942498347653668  C 27.2890625 31.337298964529634  26.90625 31.62634941617096  26.425 31.80964970257766  C 26.14791666666667 31.922449878827933  25.827083333333334 31.978849966953074  25.462500000000002 31.978849966953074  C 24.7625 31.978849966953074  24.15729166666667 31.75324961445252  23.646874999999998 31.302048909451422  L 14 22.334434897554527  L 4.3531249999999995 31.302048909451422  C 3.828125 31.767349636483807  3.222916666666667 32  2.5375 32  C 2.2020833333333334 32  1.8812499999999999 31.93654990085922  1.575 31.80964970257766  C 1.09375 31.62634941617096  0.7109375 31.337298964529634  0.4265625 30.942498347653668  C 0.1421875 30.547697730777703  0 30.11059704780789  0 29.631196298744218  L 0 2.368803701255782  C 0 1.8894029521921105  0.1421875 1.4523022692222938  0.4265625 1.0575016523463319  C 0.7109375 0.6627010354703664  1.09375 0.3736505838290327  1.575 0.19035029742234144  C 1.8812499999999999 0.06345009914078048  2.2020833333333334 0  2.5375 0  Z " fill-rule="evenodd" />
    </mask>
  </defs>
  <g transform="matrix(1 0 0 1 0 -7 )">
    <path d="M 2.5375 0  L 25.462500000000002 0  C 25.79791666666667 0  26.118750000000002 0.06345009914078048  26.425 0.19035029742234144  C 26.90625 0.3736505838290327  27.2890625 0.6627010354703664  27.5734375 1.0575016523463319  C 27.857812499999998 1.4523022692222938  28 1.8894029521921105  28 2.368803701255782  L 28 29.631196298744218  C 28 30.11059704780789  27.857812499999998 30.547697730777703  27.5734375 30.942498347653668  C 27.2890625 31.337298964529634  26.90625 31.62634941617096  26.425 31.80964970257766  C 26.14791666666667 31.922449878827933  25.827083333333334 31.978849966953074  25.462500000000002 31.978849966953074  C 24.7625 31.978849966953074  24.15729166666667 31.75324961445252  23.646874999999998 31.302048909451422  L 14 22.334434897554527  L 4.3531249999999995 31.302048909451422  C 3.828125 31.767349636483807  3.222916666666667 32  2.5375 32  C 2.2020833333333334 32  1.8812499999999999 31.93654990085922  1.575 31.80964970257766  C 1.09375 31.62634941617096  0.7109375 31.337298964529634  0.4265625 30.942498347653668  C 0.1421875 30.547697730777703  0 30.11059704780789  0 29.631196298744218  L 0 2.368803701255782  C 0 1.8894029521921105  0.1421875 1.4523022692222938  0.4265625 1.0575016523463319  C 0.7109375 0.6627010354703664  1.09375 0.3736505838290327  1.575 0.19035029742234144  C 1.8812499999999999 0.06345009914078048  2.2020833333333334 0  2.5375 0  Z " fill-rule="nonzero" fill="rgba(128, 255, 255, 1)" stroke="none" transform="matrix(1 0 0 1 0 7 )" class="fill" />
    <path d="M 2.5375 0  L 25.462500000000002 0  C 25.79791666666667 0  26.118750000000002 0.06345009914078048  26.425 0.19035029742234144  C 26.90625 0.3736505838290327  27.2890625 0.6627010354703664  27.5734375 1.0575016523463319  C 27.857812499999998 1.4523022692222938  28 1.8894029521921105  28 2.368803701255782  L 28 29.631196298744218  C 28 30.11059704780789  27.857812499999998 30.547697730777703  27.5734375 30.942498347653668  C 27.2890625 31.337298964529634  26.90625 31.62634941617096  26.425 31.80964970257766  C 26.14791666666667 31.922449878827933  25.827083333333334 31.978849966953074  25.462500000000002 31.978849966953074  C 24.7625 31.978849966953074  24.15729166666667 31.75324961445252  23.646874999999998 31.302048909451422  L 14 22.334434897554527  L 4.3531249999999995 31.302048909451422  C 3.828125 31.767349636483807  3.222916666666667 32  2.5375 32  C 2.2020833333333334 32  1.8812499999999999 31.93654990085922  1.575 31.80964970257766  C 1.09375 31.62634941617096  0.7109375 31.337298964529634  0.4265625 30.942498347653668  C 0.1421875 30.547697730777703  0 30.11059704780789  0 29.631196298744218  L 0 2.368803701255782  C 0 1.8894029521921105  0.1421875 1.4523022692222938  0.4265625 1.0575016523463319  C 0.7109375 0.6627010354703664  1.09375 0.3736505838290327  1.575 0.19035029742234144  C 1.8812499999999999 0.06345009914078048  2.2020833333333334 0  2.5375 0  Z " stroke-width="0" stroke-dasharray="0" stroke="rgba(255, 255, 255, 0)" fill="none" transform="matrix(1 0 0 1 0 7 )" class="stroke" mask="url(#Clip316)" />
  </g>
</svg>