<?xml version="1.0" encoding="utf-8"?>
<svg version="1.1" xmlns:xlink="http://www.w3.org/1999/xlink" width="115px" height="100px" xmlns="http://www.w3.org/2000/svg">
  <g transform="matrix(1 0 0 1 -3 -64 )">
    <path d="M 3 64  L 118 64  L 118 164  L 3 164  L 3 64  " fill-rule="nonzero" fill="rgba(204, 204, 204, 1)" stroke="none" class="fill" />
    <path d="M 10 71  L 111 71  L 111 157  L 10 157  L 10 71  " fill-rule="nonzero" fill="rgba(255, 255, 255, 1)" stroke="none" class="fill" />
    <path d="M 70.30000000000001 94  C 66.10000000000001 94  62.800000000000004 90.7  62.800000000000004 86.5  C 62.800000000000004 82.3  66.10000000000001 79  70.30000000000001 79  C 74.50000000000001 79  77.80000000000001 82.3  77.80000000000001 86.5  C 77.80000000000001 90.7  74.50000000000001 94  70.30000000000001 94  " fill-rule="nonzero" fill="rgba(204, 204, 204, 1)" stroke="none" class="fill" />
    <path d="M 13 155  L 13 110.44999999999999  L 37 90.2  L 70.6 112.73913043478261  L 89.80000000000001 102.35  L 109 112.73913043478261  L 109 155  L 13 155  " fill-rule="nonzero" fill="rgba(22, 155, 213, 1)" stroke="none" class="fill" />
  </g>
</svg>