<?xml version="1.0" encoding="utf-8"?>
<svg version="1.1" xmlns:xlink="http://www.w3.org/1999/xlink" width="37px" height="36px" xmlns="http://www.w3.org/2000/svg">
  <defs>
    <pattern id="BGPattern" patternUnits="userSpaceOnUse" alignment="0 0" imageRepeat="None" />
    <mask fill="white" id="Clip313">
      <path d="M 35.75480769230769 12.907372400756145  C 36.5849358974359 13.043478260869566  37 13.391304347826086  37 13.95085066162571  C 37 14.283553875236294  36.80729166666667 14.64650283553875  36.421875 15.03969754253308  L 28.350360576923077 23.069943289224952  L 30.262620192307693 34.412098298676746  C 30.277443910256412 34.5179584120983  30.28485576923077 34.66918714555765  30.28485576923077 34.86578449905482  C 30.28485576923077 35.183364839319474  30.20703125 35.45179584120983  30.051382211538463 35.67107750472589  C 29.895733173076923 35.890359168241964  29.669671474358978 36  29.373197115384613 36  C 29.091546474358978 36  28.795072115384613 35.90926275992439  28.483774038461537 35.72778827977316  L 18.5 30.37429111531191  L 8.516225961538462 35.72778827977316  C 8.190104166666668 35.90926275992439  7.8936298076923075 36  7.626802884615384 36  C 7.3155048076923075 36  7.08203125 35.890359168241964  6.926382211538461 35.67107750472589  C 6.770733173076923 35.45179584120983  6.692908653846153 35.183364839319474  6.692908653846153 34.86578449905482  C 6.692908653846153 34.77504725897921  6.707732371794872 34.623818525519845  6.7373798076923075 34.412098298676746  L 8.649639423076923 23.069943289224952  L 0.5558894230769231 15.03969754253308  C 0.18529647435897434 14.631379962192817  0 14.268431001890361  0 13.95085066162571  C 0 13.391304347826086  0.4150641025641025 13.043478260869566  1.2451923076923077 12.907372400756145  L 12.407451923076922 11.251417769376179  L 17.41045673076923 0.9300567107750455  C 17.692107371794872 0.3100189035916805  18.05528846153846 0  18.5 0  C 18.944711538461537 0  19.307892628205128 0.3100189035916805  19.58954326923077 0.9300567107750455  L 24.592548076923077 11.251417769376179  L 35.75480769230769 12.907372400756145  Z " fill-rule="evenodd" />
    </mask>
  </defs>
  <g transform="matrix(1 0 0 1 -144 -93 )">
    <path d="M 35.75480769230769 12.907372400756145  C 36.5849358974359 13.043478260869566  37 13.391304347826086  37 13.95085066162571  C 37 14.283553875236294  36.80729166666667 14.64650283553875  36.421875 15.03969754253308  L 28.350360576923077 23.069943289224952  L 30.262620192307693 34.412098298676746  C 30.277443910256412 34.5179584120983  30.28485576923077 34.66918714555765  30.28485576923077 34.86578449905482  C 30.28485576923077 35.183364839319474  30.20703125 35.45179584120983  30.051382211538463 35.67107750472589  C 29.895733173076923 35.890359168241964  29.669671474358978 36  29.373197115384613 36  C 29.091546474358978 36  28.795072115384613 35.90926275992439  28.483774038461537 35.72778827977316  L 18.5 30.37429111531191  L 8.516225961538462 35.72778827977316  C 8.190104166666668 35.90926275992439  7.8936298076923075 36  7.626802884615384 36  C 7.3155048076923075 36  7.08203125 35.890359168241964  6.926382211538461 35.67107750472589  C 6.770733173076923 35.45179584120983  6.692908653846153 35.183364839319474  6.692908653846153 34.86578449905482  C 6.692908653846153 34.77504725897921  6.707732371794872 34.623818525519845  6.7373798076923075 34.412098298676746  L 8.649639423076923 23.069943289224952  L 0.5558894230769231 15.03969754253308  C 0.18529647435897434 14.631379962192817  0 14.268431001890361  0 13.95085066162571  C 0 13.391304347826086  0.4150641025641025 13.043478260869566  1.2451923076923077 12.907372400756145  L 12.407451923076922 11.251417769376179  L 17.41045673076923 0.9300567107750455  C 17.692107371794872 0.3100189035916805  18.05528846153846 0  18.5 0  C 18.944711538461537 0  19.307892628205128 0.3100189035916805  19.58954326923077 0.9300567107750455  L 24.592548076923077 11.251417769376179  L 35.75480769230769 12.907372400756145  Z " fill-rule="nonzero" fill="rgba(128, 255, 255, 1)" stroke="none" transform="matrix(1 0 0 1 144 93 )" class="fill" />
    <path d="M 35.75480769230769 12.907372400756145  C 36.5849358974359 13.043478260869566  37 13.391304347826086  37 13.95085066162571  C 37 14.283553875236294  36.80729166666667 14.64650283553875  36.421875 15.03969754253308  L 28.350360576923077 23.069943289224952  L 30.262620192307693 34.412098298676746  C 30.277443910256412 34.5179584120983  30.28485576923077 34.66918714555765  30.28485576923077 34.86578449905482  C 30.28485576923077 35.183364839319474  30.20703125 35.45179584120983  30.051382211538463 35.67107750472589  C 29.895733173076923 35.890359168241964  29.669671474358978 36  29.373197115384613 36  C 29.091546474358978 36  28.795072115384613 35.90926275992439  28.483774038461537 35.72778827977316  L 18.5 30.37429111531191  L 8.516225961538462 35.72778827977316  C 8.190104166666668 35.90926275992439  7.8936298076923075 36  7.626802884615384 36  C 7.3155048076923075 36  7.08203125 35.890359168241964  6.926382211538461 35.67107750472589  C 6.770733173076923 35.45179584120983  6.692908653846153 35.183364839319474  6.692908653846153 34.86578449905482  C 6.692908653846153 34.77504725897921  6.707732371794872 34.623818525519845  6.7373798076923075 34.412098298676746  L 8.649639423076923 23.069943289224952  L 0.5558894230769231 15.03969754253308  C 0.18529647435897434 14.631379962192817  0 14.268431001890361  0 13.95085066162571  C 0 13.391304347826086  0.4150641025641025 13.043478260869566  1.2451923076923077 12.907372400756145  L 12.407451923076922 11.251417769376179  L 17.41045673076923 0.9300567107750455  C 17.692107371794872 0.3100189035916805  18.05528846153846 0  18.5 0  C 18.944711538461537 0  19.307892628205128 0.3100189035916805  19.58954326923077 0.9300567107750455  L 24.592548076923077 11.251417769376179  L 35.75480769230769 12.907372400756145  Z " stroke-width="0" stroke-dasharray="0" stroke="rgba(255, 255, 255, 0)" fill="none" transform="matrix(1 0 0 1 144 93 )" class="stroke" mask="url(#Clip313)" />
  </g>
</svg>