<?xml version="1.0" encoding="utf-8"?>
<svg version="1.1" xmlns:xlink="http://www.w3.org/1999/xlink" width="174px" height="160px" xmlns="http://www.w3.org/2000/svg">
  <g transform="matrix(1 0 0 1 -119 -113 )">
    <path d="M 119 113  L 293 113  L 293 273  L 119 273  L 119 113  " fill-rule="nonzero" fill="rgba(204, 204, 204, 1)" stroke="none" class="fill" />
    <path d="M 130 124  L 282 124  L 282 262  L 130 262  L 130 124  " fill-rule="nonzero" fill="rgba(255, 255, 255, 1)" stroke="none" class="fill" />
    <path d="M 221.48000000000002 161  C 214.76000000000002 161  209.48000000000002 155.72  209.48000000000002 149  C 209.48000000000002 142.28  214.76000000000002 137  221.48000000000002 137  C 228.20000000000002 137  233.48000000000002 142.28  233.48000000000002 149  C 233.48000000000002 155.72  228.20000000000002 161  221.48000000000002 161  " fill-rule="nonzero" fill="rgba(204, 204, 204, 1)" stroke="none" class="fill" />
    <path d="M 134 258  L 134 186.5  L 170 154  L 220.39999999999998 186.27586206896552  L 249.2 173.5  L 278 186.27586206896552  L 278 258  L 134 258  " fill-rule="nonzero" fill="rgba(22, 155, 213, 1)" stroke="none" class="fill" />
  </g>
</svg>