<?xml version="1.0" encoding="utf-8"?>
<svg version="1.1" xmlns:xlink="http://www.w3.org/1999/xlink" width="24px" height="24px" xmlns="http://www.w3.org/2000/svg">
  <defs>
    <pattern id="BGPattern" patternUnits="userSpaceOnUse" alignment="0 0" imageRepeat="None" />
    <mask fill="white" id="Clip327">
      <path d="M 15.703125 6.296874999999999  C 15.901041666666668 6.494791666666663  16 6.729166666666663  16 6.999999999999999  L 16 17  C 16 17.270833333333336  15.901041666666668 17.505208333333336  15.703125 17.703125  C 15.505208333333332 17.901041666666664  15.270833333333332 18  15 18  C 14.791666666666668 18  14.598958333333334 17.9375  14.421875 17.8125  L 7.421875 12.812500000000002  C 7.140625 12.614583333333332  7 12.343750000000002  7 12  C 7 11.65625  7.140625 11.385416666666664  7.421875 11.1875  L 14.421875 6.1875  C 14.598958333333334 6.062499999999999  14.791666666666668 6  15 6  C 15.270833333333332 6  15.505208333333332 6.098958333333332  15.703125 6.296874999999999  Z M 19.8515625 19.8515625  C 19.950520833333336 19.752604166666668  20 19.635416666666668  20 19.5  L 20 4.5  C 20 4.364583333333332  19.950520833333336 4.247395833333332  19.8515625 4.1484375  C 19.752604166666668 4.049479166666665  19.635416666666668 3.999999999999999  19.5 4  L 4.5 4  C 4.364583333333334 3.999999999999999  4.247395833333334 4.049479166666665  4.1484375 4.1484375  C 4.049479166666667 4.247395833333332  4 4.364583333333332  4 4.5  L 4 19.5  C 4 19.635416666666668  4.049479166666667 19.752604166666668  4.1484375 19.8515625  C 4.247395833333334 19.950520833333332  4.364583333333334 20  4.5 20  L 19.5 20  C 19.635416666666668 20  19.752604166666668 19.950520833333332  19.8515625 19.8515625  Z M 22.6796875 1.3203125000000009  C 23.559895833333332 2.2005208333333313  24 3.2604166666666634  24 4.5  L 24 19.5  C 24 20.739583333333332  23.559895833333332 21.799479166666668  22.6796875 22.6796875  C 21.799479166666668 23.559895833333332  20.739583333333336 24  19.5 24  L 4.5 24  C 3.260416666666667 24  2.2005208333333335 23.559895833333332  1.3203125 22.6796875  C 0.44010416666666663 21.799479166666668  0 20.739583333333332  0 19.5  L 0 4.5  C 0 3.2604166666666634  0.44010416666666663 2.2005208333333313  1.3203125 1.3203125000000009  C 2.2005208333333335 0.4401041666666652  3.260416666666667 0  4.5 0  L 19.5 0  C 20.739583333333336 0  21.799479166666668 0.4401041666666652  22.6796875 1.3203125000000009  Z " fill-rule="evenodd" />
    </mask>
  </defs>
  <g transform="matrix(1 0 0 1 -110 -601 )">
    <path d="M 15.703125 6.296874999999999  C 15.901041666666668 6.494791666666663  16 6.729166666666663  16 6.999999999999999  L 16 17  C 16 17.270833333333336  15.901041666666668 17.505208333333336  15.703125 17.703125  C 15.505208333333332 17.901041666666664  15.270833333333332 18  15 18  C 14.791666666666668 18  14.598958333333334 17.9375  14.421875 17.8125  L 7.421875 12.812500000000002  C 7.140625 12.614583333333332  7 12.343750000000002  7 12  C 7 11.65625  7.140625 11.385416666666664  7.421875 11.1875  L 14.421875 6.1875  C 14.598958333333334 6.062499999999999  14.791666666666668 6  15 6  C 15.270833333333332 6  15.505208333333332 6.098958333333332  15.703125 6.296874999999999  Z M 19.8515625 19.8515625  C 19.950520833333336 19.752604166666668  20 19.635416666666668  20 19.5  L 20 4.5  C 20 4.364583333333332  19.950520833333336 4.247395833333332  19.8515625 4.1484375  C 19.752604166666668 4.049479166666665  19.635416666666668 3.999999999999999  19.5 4  L 4.5 4  C 4.364583333333334 3.999999999999999  4.247395833333334 4.049479166666665  4.1484375 4.1484375  C 4.049479166666667 4.247395833333332  4 4.364583333333332  4 4.5  L 4 19.5  C 4 19.635416666666668  4.049479166666667 19.752604166666668  4.1484375 19.8515625  C 4.247395833333334 19.950520833333332  4.364583333333334 20  4.5 20  L 19.5 20  C 19.635416666666668 20  19.752604166666668 19.950520833333332  19.8515625 19.8515625  Z M 22.6796875 1.3203125000000009  C 23.559895833333332 2.2005208333333313  24 3.2604166666666634  24 4.5  L 24 19.5  C 24 20.739583333333332  23.559895833333332 21.799479166666668  22.6796875 22.6796875  C 21.799479166666668 23.559895833333332  20.739583333333336 24  19.5 24  L 4.5 24  C 3.260416666666667 24  2.2005208333333335 23.559895833333332  1.3203125 22.6796875  C 0.44010416666666663 21.799479166666668  0 20.739583333333332  0 19.5  L 0 4.5  C 0 3.2604166666666634  0.44010416666666663 2.2005208333333313  1.3203125 1.3203125000000009  C 2.2005208333333335 0.4401041666666652  3.260416666666667 0  4.5 0  L 19.5 0  C 20.739583333333336 0  21.799479166666668 0.4401041666666652  22.6796875 1.3203125000000009  Z " fill-rule="nonzero" fill="rgba(255, 255, 255, 1)" stroke="none" transform="matrix(1 0 0 1 110 601 )" class="fill" />
    <path d="M 15.703125 6.296874999999999  C 15.901041666666668 6.494791666666663  16 6.729166666666663  16 6.999999999999999  L 16 17  C 16 17.270833333333336  15.901041666666668 17.505208333333336  15.703125 17.703125  C 15.505208333333332 17.901041666666664  15.270833333333332 18  15 18  C 14.791666666666668 18  14.598958333333334 17.9375  14.421875 17.8125  L 7.421875 12.812500000000002  C 7.140625 12.614583333333332  7 12.343750000000002  7 12  C 7 11.65625  7.140625 11.385416666666664  7.421875 11.1875  L 14.421875 6.1875  C 14.598958333333334 6.062499999999999  14.791666666666668 6  15 6  C 15.270833333333332 6  15.505208333333332 6.098958333333332  15.703125 6.296874999999999  Z " stroke-width="0" stroke-dasharray="0" stroke="rgba(255, 255, 255, 0)" fill="none" transform="matrix(1 0 0 1 110 601 )" class="stroke" mask="url(#Clip327)" />
    <path d="M 19.8515625 19.8515625  C 19.950520833333336 19.752604166666668  20 19.635416666666668  20 19.5  L 20 4.5  C 20 4.364583333333332  19.950520833333336 4.247395833333332  19.8515625 4.1484375  C 19.752604166666668 4.049479166666665  19.635416666666668 3.999999999999999  19.5 4  L 4.5 4  C 4.364583333333334 3.999999999999999  4.247395833333334 4.049479166666665  4.1484375 4.1484375  C 4.049479166666667 4.247395833333332  4 4.364583333333332  4 4.5  L 4 19.5  C 4 19.635416666666668  4.049479166666667 19.752604166666668  4.1484375 19.8515625  C 4.247395833333334 19.950520833333332  4.364583333333334 20  4.5 20  L 19.5 20  C 19.635416666666668 20  19.752604166666668 19.950520833333332  19.8515625 19.8515625  Z " stroke-width="0" stroke-dasharray="0" stroke="rgba(255, 255, 255, 0)" fill="none" transform="matrix(1 0 0 1 110 601 )" class="stroke" mask="url(#Clip327)" />
    <path d="M 22.6796875 1.3203125000000009  C 23.559895833333332 2.2005208333333313  24 3.2604166666666634  24 4.5  L 24 19.5  C 24 20.739583333333332  23.559895833333332 21.799479166666668  22.6796875 22.6796875  C 21.799479166666668 23.559895833333332  20.739583333333336 24  19.5 24  L 4.5 24  C 3.260416666666667 24  2.2005208333333335 23.559895833333332  1.3203125 22.6796875  C 0.44010416666666663 21.799479166666668  0 20.739583333333332  0 19.5  L 0 4.5  C 0 3.2604166666666634  0.44010416666666663 2.2005208333333313  1.3203125 1.3203125000000009  C 2.2005208333333335 0.4401041666666652  3.260416666666667 0  4.5 0  L 19.5 0  C 20.739583333333336 0  21.799479166666668 0.4401041666666652  22.6796875 1.3203125000000009  Z " stroke-width="0" stroke-dasharray="0" stroke="rgba(255, 255, 255, 0)" fill="none" transform="matrix(1 0 0 1 110 601 )" class="stroke" mask="url(#Clip327)" />
  </g>
</svg>