<?xml version="1.0" encoding="utf-8"?>
<svg version="1.1" xmlns:xlink="http://www.w3.org/1999/xlink" width="29px" height="29px" xmlns="http://www.w3.org/2000/svg">
  <defs>
    <pattern id="BGPattern" patternUnits="userSpaceOnUse" alignment="0 0" imageRepeat="None" />
    <mask fill="white" id="Clip328">
      <path d="M 20.031901041666668 13.518229166666668  C 20.371744791666668 13.75737847222222  20.541666666666668 14.084635416666668  20.541666666666668 14.5  C 20.541666666666668 14.915364583333336  20.371744791666668 15.242621527777777  20.031901041666668 15.481770833333336  L 11.573567708333334 21.5234375  C 11.183376736111112 21.812934027777775  10.768012152777779 21.844401041666668  10.327473958333334 21.617838541666664  C 9.88693576388889 21.403862847222218  9.666666666666666 21.04513888888889  10 20.541666666666664  L 10 8.458333333333332  C 9.666666666666666 7.954861111111109  9.88693576388889 7.596137152777777  10.327473958333334 7.382161458333332  C 10.768012152777779 7.155598958333332  11.183376736111112 7.1870659722222205  11.573567708333334 7.4765625  L 20.031901041666668 13.518229166666668  Z M 23.996744791666668 23.996744791666668  C 24.110026041666668 23.883463541666668  24.166666666666668 23.738715277777775  24 23.5625  L 24 5.4375  C 24.166666666666668 5.2612847222222205  24.110026041666668 5.116536458333332  23.996744791666668 5.003255208333332  C 23.883463541666668 4.889973958333332  23.73871527777778 4.833333333333332  23.5625 5  L 5.4375 5  C 5.261284722222223 4.833333333333332  5.116536458333333 4.889973958333332  5.003255208333333 5.003255208333332  C 4.889973958333333 5.116536458333332  4.833333333333333 5.2612847222222205  5 5.4375  L 5 23.5625  C 4.833333333333333 23.738715277777775  4.889973958333333 23.883463541666668  5.003255208333333 23.996744791666668  C 5.116536458333333 24.110026041666668  5.261284722222223 24.166666666666668  5.4375 24  L 23.5625 24  C 23.73871527777778 24.166666666666668  23.883463541666668 24.110026041666668  23.996744791666668 23.996744791666668  Z M 27.404622395833332 1.5953776041666679  C 28.468207465277775 2.6589626736111085  29 3.939670138888885  29 5.4375  L 29 23.5625  C 29 25.060329861111107  28.468207465277775 26.341037326388893  27.404622395833332 27.404622395833332  C 26.341037326388893 28.468207465277775  25.060329861111114 29  23.5625 29  L 5.4375 29  C 3.939670138888889 29  2.6589626736111116 28.468207465277775  1.5953776041666667 27.404622395833332  C 0.5317925347222221 26.341037326388893  0 25.060329861111107  0 23.5625  L 0 5.4375  C 0 3.939670138888885  0.5317925347222221 2.6589626736111085  1.5953776041666667 1.5953776041666679  C 2.6589626736111116 0.5317925347222204  3.939670138888889 0  5.4375 0  L 23.5625 0  C 25.060329861111114 0  26.341037326388893 0.5317925347222204  27.404622395833332 1.5953776041666679  Z " fill-rule="evenodd" />
    </mask>
  </defs>
  <g transform="matrix(1 0 0 1 -257 -598 )">
    <path d="M 20.031901041666668 13.518229166666668  C 20.371744791666668 13.75737847222222  20.541666666666668 14.084635416666668  20.541666666666668 14.5  C 20.541666666666668 14.915364583333336  20.371744791666668 15.242621527777777  20.031901041666668 15.481770833333336  L 11.573567708333334 21.5234375  C 11.183376736111112 21.812934027777775  10.768012152777779 21.844401041666668  10.327473958333334 21.617838541666664  C 9.88693576388889 21.403862847222218  9.666666666666666 21.04513888888889  10 20.541666666666664  L 10 8.458333333333332  C 9.666666666666666 7.954861111111109  9.88693576388889 7.596137152777777  10.327473958333334 7.382161458333332  C 10.768012152777779 7.155598958333332  11.183376736111112 7.1870659722222205  11.573567708333334 7.4765625  L 20.031901041666668 13.518229166666668  Z M 23.996744791666668 23.996744791666668  C 24.110026041666668 23.883463541666668  24.166666666666668 23.738715277777775  24 23.5625  L 24 5.4375  C 24.166666666666668 5.2612847222222205  24.110026041666668 5.116536458333332  23.996744791666668 5.003255208333332  C 23.883463541666668 4.889973958333332  23.73871527777778 4.833333333333332  23.5625 5  L 5.4375 5  C 5.261284722222223 4.833333333333332  5.116536458333333 4.889973958333332  5.003255208333333 5.003255208333332  C 4.889973958333333 5.116536458333332  4.833333333333333 5.2612847222222205  5 5.4375  L 5 23.5625  C 4.833333333333333 23.738715277777775  4.889973958333333 23.883463541666668  5.003255208333333 23.996744791666668  C 5.116536458333333 24.110026041666668  5.261284722222223 24.166666666666668  5.4375 24  L 23.5625 24  C 23.73871527777778 24.166666666666668  23.883463541666668 24.110026041666668  23.996744791666668 23.996744791666668  Z M 27.404622395833332 1.5953776041666679  C 28.468207465277775 2.6589626736111085  29 3.939670138888885  29 5.4375  L 29 23.5625  C 29 25.060329861111107  28.468207465277775 26.341037326388893  27.404622395833332 27.404622395833332  C 26.341037326388893 28.468207465277775  25.060329861111114 29  23.5625 29  L 5.4375 29  C 3.939670138888889 29  2.6589626736111116 28.468207465277775  1.5953776041666667 27.404622395833332  C 0.5317925347222221 26.341037326388893  0 25.060329861111107  0 23.5625  L 0 5.4375  C 0 3.939670138888885  0.5317925347222221 2.6589626736111085  1.5953776041666667 1.5953776041666679  C 2.6589626736111116 0.5317925347222204  3.939670138888889 0  5.4375 0  L 23.5625 0  C 25.060329861111114 0  26.341037326388893 0.5317925347222204  27.404622395833332 1.5953776041666679  Z " fill-rule="nonzero" fill="rgba(255, 255, 255, 1)" stroke="none" transform="matrix(1 0 0 1 257 598 )" class="fill" />
    <path d="M 20.031901041666668 13.518229166666668  C 20.371744791666668 13.75737847222222  20.541666666666668 14.084635416666668  20.541666666666668 14.5  C 20.541666666666668 14.915364583333336  20.371744791666668 15.242621527777777  20.031901041666668 15.481770833333336  L 11.573567708333334 21.5234375  C 11.183376736111112 21.812934027777775  10.768012152777779 21.844401041666668  10.327473958333334 21.617838541666664  C 9.88693576388889 21.403862847222218  9.666666666666666 21.04513888888889  10 20.541666666666664  L 10 8.458333333333332  C 9.666666666666666 7.954861111111109  9.88693576388889 7.596137152777777  10.327473958333334 7.382161458333332  C 10.768012152777779 7.155598958333332  11.183376736111112 7.1870659722222205  11.573567708333334 7.4765625  L 20.031901041666668 13.518229166666668  Z " stroke-width="0" stroke-dasharray="0" stroke="rgba(255, 255, 255, 0)" fill="none" transform="matrix(1 0 0 1 257 598 )" class="stroke" mask="url(#Clip328)" />
    <path d="M 23.996744791666668 23.996744791666668  C 24.110026041666668 23.883463541666668  24.166666666666668 23.738715277777775  24 23.5625  L 24 5.4375  C 24.166666666666668 5.2612847222222205  24.110026041666668 5.116536458333332  23.996744791666668 5.003255208333332  C 23.883463541666668 4.889973958333332  23.73871527777778 4.833333333333332  23.5625 5  L 5.4375 5  C 5.261284722222223 4.833333333333332  5.116536458333333 4.889973958333332  5.003255208333333 5.003255208333332  C 4.889973958333333 5.116536458333332  4.833333333333333 5.2612847222222205  5 5.4375  L 5 23.5625  C 4.833333333333333 23.738715277777775  4.889973958333333 23.883463541666668  5.003255208333333 23.996744791666668  C 5.116536458333333 24.110026041666668  5.261284722222223 24.166666666666668  5.4375 24  L 23.5625 24  C 23.73871527777778 24.166666666666668  23.883463541666668 24.110026041666668  23.996744791666668 23.996744791666668  Z " stroke-width="0" stroke-dasharray="0" stroke="rgba(255, 255, 255, 0)" fill="none" transform="matrix(1 0 0 1 257 598 )" class="stroke" mask="url(#Clip328)" />
    <path d="M 27.404622395833332 1.5953776041666679  C 28.468207465277775 2.6589626736111085  29 3.939670138888885  29 5.4375  L 29 23.5625  C 29 25.060329861111107  28.468207465277775 26.341037326388893  27.404622395833332 27.404622395833332  C 26.341037326388893 28.468207465277775  25.060329861111114 29  23.5625 29  L 5.4375 29  C 3.939670138888889 29  2.6589626736111116 28.468207465277775  1.5953776041666667 27.404622395833332  C 0.5317925347222221 26.341037326388893  0 25.060329861111107  0 23.5625  L 0 5.4375  C 0 3.939670138888885  0.5317925347222221 2.6589626736111085  1.5953776041666667 1.5953776041666679  C 2.6589626736111116 0.5317925347222204  3.939670138888889 0  5.4375 0  L 23.5625 0  C 25.060329861111114 0  26.341037326388893 0.5317925347222204  27.404622395833332 1.5953776041666679  Z " stroke-width="0" stroke-dasharray="0" stroke="rgba(255, 255, 255, 0)" fill="none" transform="matrix(1 0 0 1 257 598 )" class="stroke" mask="url(#Clip328)" />
  </g>
</svg>