<?xml version="1.0" encoding="utf-8"?>
<svg version="1.1" xmlns:xlink="http://www.w3.org/1999/xlink" width="36px" height="36px" xmlns="http://www.w3.org/2000/svg">
  <defs>
    <pattern id="BGPattern" patternUnits="userSpaceOnUse" alignment="0 0" imageRepeat="None" />
    <mask fill="white" id="Clip334">
      <path d="M 29.5546875 20.554687500000004  C 29.851562500000004 20.2578125  30 19.90625  30 19.500000000000004  L 30 16.5  C 30 16.093749999999996  29.851562500000004 15.742187499999998  29.5546875 15.445312500000002  C 29.257812500000004 15.1484375  28.906250000000004 14.999999999999998  28.5 15  L 16.734375 15  L 21.1640625 10.570312499999998  C 21.4609375 10.273437499999998  21.609375 9.921874999999998  21.609375 9.515624999999998  C 21.609375 9.109374999999995  21.4609375 8.757812499999995  21.1640625 8.460937499999998  L 19.03125 6.328125  C 18.75 6.046875  18.3984375 5.90625  17.9765625 5.90625  C 17.5546875 5.90625  17.203125 6.046875  16.921875 6.328125  L 8.4375 14.812500000000002  L 6.3046875 16.9453125  C 6.0234375 17.2265625  5.8828125 17.578125  5.8828125 18  C 5.8828125 18.421875  6.0234375 18.7734375  6.3046875 19.0546875  L 8.4375 21.187500000000004  L 16.921875 29.671875  C 17.203125 29.953125  17.5546875 30.09375  17.9765625 30.09375  C 18.3984375 30.09375  18.75 29.953125  19.03125 29.671875  L 21.1640625 27.5390625  C 21.445312500000004 27.2578125  21.585937500000004 26.906249999999996  21.5859375 26.484374999999996  C 21.585937500000004 26.062499999999996  21.445312500000004 25.710937499999996  21.1640625 25.429687499999996  L 16.734375 21  L 28.5 21  C 28.906250000000004 20.999999999999996  29.257812500000004 20.8515625  29.5546875 20.554687500000004  Z M 33.5859375 8.96484375  C 35.19531249999999 11.722656249999996  36 14.734374999999995  36 18  C 36 21.265625  35.19531249999999 24.277343749999996  33.5859375 27.03515625  C 31.976562500000004 29.79296875  29.79296875 31.9765625  27.03515625 33.5859375  C 24.277343750000004 35.1953125  21.265625 36  18 36  C 14.734375000000002 36  11.72265625 35.1953125  8.96484375 33.5859375  C 6.207031250000001 31.9765625  4.0234375 29.79296875  2.4140625 27.03515625  C 0.8046874999999999 24.277343749999996  0 21.265625  0 18  C 0 14.734374999999995  0.8046874999999999 11.722656249999996  2.4140625 8.96484375  C 4.0234375 6.20703125  6.207031250000001 4.0234374999999964  8.96484375 2.4140624999999987  C 11.72265625 0.8046874999999969  14.734375000000002 0  18 0  C 21.265625 0  24.277343750000004 0.8046874999999969  27.03515625 2.4140624999999987  C 29.79296875 4.0234374999999964  31.976562500000004 6.20703125  33.5859375 8.96484375  Z " fill-rule="evenodd" />
    </mask>
  </defs>
  <g transform="matrix(1 0 0 1 -22 -123 )">
    <path d="M 29.5546875 20.554687500000004  C 29.851562500000004 20.2578125  30 19.90625  30 19.500000000000004  L 30 16.5  C 30 16.093749999999996  29.851562500000004 15.742187499999998  29.5546875 15.445312500000002  C 29.257812500000004 15.1484375  28.906250000000004 14.999999999999998  28.5 15  L 16.734375 15  L 21.1640625 10.570312499999998  C 21.4609375 10.273437499999998  21.609375 9.921874999999998  21.609375 9.515624999999998  C 21.609375 9.109374999999995  21.4609375 8.757812499999995  21.1640625 8.460937499999998  L 19.03125 6.328125  C 18.75 6.046875  18.3984375 5.90625  17.9765625 5.90625  C 17.5546875 5.90625  17.203125 6.046875  16.921875 6.328125  L 8.4375 14.812500000000002  L 6.3046875 16.9453125  C 6.0234375 17.2265625  5.8828125 17.578125  5.8828125 18  C 5.8828125 18.421875  6.0234375 18.7734375  6.3046875 19.0546875  L 8.4375 21.187500000000004  L 16.921875 29.671875  C 17.203125 29.953125  17.5546875 30.09375  17.9765625 30.09375  C 18.3984375 30.09375  18.75 29.953125  19.03125 29.671875  L 21.1640625 27.5390625  C 21.445312500000004 27.2578125  21.585937500000004 26.906249999999996  21.5859375 26.484374999999996  C 21.585937500000004 26.062499999999996  21.445312500000004 25.710937499999996  21.1640625 25.429687499999996  L 16.734375 21  L 28.5 21  C 28.906250000000004 20.999999999999996  29.257812500000004 20.8515625  29.5546875 20.554687500000004  Z M 33.5859375 8.96484375  C 35.19531249999999 11.722656249999996  36 14.734374999999995  36 18  C 36 21.265625  35.19531249999999 24.277343749999996  33.5859375 27.03515625  C 31.976562500000004 29.79296875  29.79296875 31.9765625  27.03515625 33.5859375  C 24.277343750000004 35.1953125  21.265625 36  18 36  C 14.734375000000002 36  11.72265625 35.1953125  8.96484375 33.5859375  C 6.207031250000001 31.9765625  4.0234375 29.79296875  2.4140625 27.03515625  C 0.8046874999999999 24.277343749999996  0 21.265625  0 18  C 0 14.734374999999995  0.8046874999999999 11.722656249999996  2.4140625 8.96484375  C 4.0234375 6.20703125  6.207031250000001 4.0234374999999964  8.96484375 2.4140624999999987  C 11.72265625 0.8046874999999969  14.734375000000002 0  18 0  C 21.265625 0  24.277343750000004 0.8046874999999969  27.03515625 2.4140624999999987  C 29.79296875 4.0234374999999964  31.976562500000004 6.20703125  33.5859375 8.96484375  Z " fill-rule="nonzero" fill="rgba(255, 255, 255, 1)" stroke="none" transform="matrix(1 0 0 1 22 123 )" class="fill" />
    <path d="M 29.5546875 20.554687500000004  C 29.851562500000004 20.2578125  30 19.90625  30 19.500000000000004  L 30 16.5  C 30 16.093749999999996  29.851562500000004 15.742187499999998  29.5546875 15.445312500000002  C 29.257812500000004 15.1484375  28.906250000000004 14.999999999999998  28.5 15  L 16.734375 15  L 21.1640625 10.570312499999998  C 21.4609375 10.273437499999998  21.609375 9.921874999999998  21.609375 9.515624999999998  C 21.609375 9.109374999999995  21.4609375 8.757812499999995  21.1640625 8.460937499999998  L 19.03125 6.328125  C 18.75 6.046875  18.3984375 5.90625  17.9765625 5.90625  C 17.5546875 5.90625  17.203125 6.046875  16.921875 6.328125  L 8.4375 14.812500000000002  L 6.3046875 16.9453125  C 6.0234375 17.2265625  5.8828125 17.578125  5.8828125 18  C 5.8828125 18.421875  6.0234375 18.7734375  6.3046875 19.0546875  L 8.4375 21.187500000000004  L 16.921875 29.671875  C 17.203125 29.953125  17.5546875 30.09375  17.9765625 30.09375  C 18.3984375 30.09375  18.75 29.953125  19.03125 29.671875  L 21.1640625 27.5390625  C 21.445312500000004 27.2578125  21.585937500000004 26.906249999999996  21.5859375 26.484374999999996  C 21.585937500000004 26.062499999999996  21.445312500000004 25.710937499999996  21.1640625 25.429687499999996  L 16.734375 21  L 28.5 21  C 28.906250000000004 20.999999999999996  29.257812500000004 20.8515625  29.5546875 20.554687500000004  Z " stroke-width="0" stroke-dasharray="0" stroke="rgba(255, 255, 255, 0)" fill="none" transform="matrix(1 0 0 1 22 123 )" class="stroke" mask="url(#Clip334)" />
    <path d="M 33.5859375 8.96484375  C 35.19531249999999 11.722656249999996  36 14.734374999999995  36 18  C 36 21.265625  35.19531249999999 24.277343749999996  33.5859375 27.03515625  C 31.976562500000004 29.79296875  29.79296875 31.9765625  27.03515625 33.5859375  C 24.277343750000004 35.1953125  21.265625 36  18 36  C 14.734375000000002 36  11.72265625 35.1953125  8.96484375 33.5859375  C 6.207031250000001 31.9765625  4.0234375 29.79296875  2.4140625 27.03515625  C 0.8046874999999999 24.277343749999996  0 21.265625  0 18  C 0 14.734374999999995  0.8046874999999999 11.722656249999996  2.4140625 8.96484375  C 4.0234375 6.20703125  6.207031250000001 4.0234374999999964  8.96484375 2.4140624999999987  C 11.72265625 0.8046874999999969  14.734375000000002 0  18 0  C 21.265625 0  24.277343750000004 0.8046874999999969  27.03515625 2.4140624999999987  C 29.79296875 4.0234374999999964  31.976562500000004 6.20703125  33.5859375 8.96484375  Z " stroke-width="0" stroke-dasharray="0" stroke="rgba(255, 255, 255, 0)" fill="none" transform="matrix(1 0 0 1 22 123 )" class="stroke" mask="url(#Clip334)" />
  </g>
</svg>