<?xml version="1.0" encoding="utf-8"?>
<svg version="1.1" xmlns:xlink="http://www.w3.org/1999/xlink" width="36px" height="30px" xmlns="http://www.w3.org/2000/svg">
  <defs>
    <pattern id="BGPattern" patternUnits="userSpaceOnUse" alignment="0 0" imageRepeat="None" />
    <mask fill="white" id="Clip308">
      <path d="M 13.024038461538462 25.355113636363637  C 13.572115384615387 25.89488636363636  13.846153846153847 26.534090909090907  13.846153846153847 27.272727272727273  C 13.846153846153847 28.01136363636364  13.572115384615387 28.650568181818183  13.024038461538462 29.19034090909091  C 12.47596153846154 29.730113636363637  11.826923076923078 30  11.076923076923077 30  C 10.326923076923078 30  9.677884615384617 29.730113636363637  9.129807692307692 29.19034090909091  C 8.581730769230768 28.650568181818183  8.307692307692308 28.01136363636364  8.307692307692308 27.272727272727273  C 8.307692307692308 26.534090909090907  8.581730769230768 25.89488636363636  9.129807692307692 25.355113636363637  C 9.677884615384617 24.81534090909091  10.326923076923078 24.545454545454543  11.076923076923077 24.545454545454543  C 11.826923076923078 24.545454545454543  12.47596153846154 24.81534090909091  13.024038461538462 25.355113636363637  Z M 32.40865384615385 25.355113636363637  C 32.95673076923077 25.89488636363636  33.23076923076923 26.534090909090907  33.23076923076923 27.272727272727273  C 33.23076923076923 28.01136363636364  32.95673076923077 28.650568181818183  32.40865384615385 29.19034090909091  C 31.860576923076923 29.730113636363637  31.211538461538463 30  30.46153846153846 30  C 29.711538461538463 30  29.062500000000004 29.730113636363637  28.514423076923077 29.19034090909091  C 27.966346153846157 28.650568181818183  27.692307692307693 28.01136363636364  27.692307692307693 27.272727272727273  C 27.692307692307693 26.534090909090907  27.966346153846157 25.89488636363636  28.514423076923077 25.355113636363637  C 29.062500000000004 24.81534090909091  29.711538461538463 24.545454545454543  30.46153846153846 24.545454545454543  C 31.211538461538463 24.545454545454543  31.860576923076923 24.81534090909091  32.40865384615385 25.355113636363637  Z M 35.58894230769231 3.1321022727272716  C 35.862980769230774 3.401988636363633  36 3.7215909090909047  36 4.090909090909091  L 36 15  C 36 15.34090909090909  35.88100961538461 15.642755681818183  35.64302884615385 15.905539772727275  C 35.40504807692308 16.16832386363636  35.11298076923077 16.321022727272727  34.76682692307692 16.363636363636363  L 12.180288461538462 18.96306818181818  C 12.367788461538463 19.81534090909091  12.461538461538462 20.312499999999996  12.461538461538462 20.454545454545457  C 12.461538461538462 20.681818181818176  12.288461538461538 21.136363636363637  11.942307692307692 21.81818181818182  L 31.846153846153847 21.81818181818182  C 32.22115384615385 21.81818181818182  32.54567307692308 21.953124999999996  32.81971153846154 22.223011363636363  C 33.09375 22.492897727272727  33.23076923076923 22.812500000000004  33.23076923076923 23.18181818181818  C 33.23076923076923 23.55113636363636  33.09375 23.870738636363637  32.81971153846154 24.140625  C 32.54567307692308 24.410511363636363  32.22115384615385 24.545454545454543  31.846153846153847 24  L 9.692307692307692 24  C 9.317307692307693 24.545454545454543  8.992788461538462 24.410511363636363  8.71875 24.140625  C 8.444711538461538 23.870738636363637  8.307692307692308 23.55113636363636  8.307692307692308 23.18181818181818  C 8.307692307692308 23.025568181818183  8.365384615384615 22.801846590909093  8.48076923076923 22.51065340909091  C 8.596153846153847 22.219460227272727  8.711538461538462 21.963778409090907  8.826923076923077 21.743607954545457  C 8.942307692307693 21.523437499999996  9.09735576923077 21.239346590909093  9.292067307692308 20.891335227272727  C 9.486778846153847 20.54332386363636  9.598557692307693 20.333806818181817  9.627403846153847 20.26278409090909  L 5.798076923076923 2.7272727272727284  L 1.3846153846153846 2.7272727272727284  C 1.0096153846153848 2.7272727272727284  0.685096153846154 2.5923295454545423  0.4110576923076923 2.322443181818181  C 0.13701923076923075 2.0525568181818166  0 1.7329545454545447  0 1.3636363636363624  C 0 0.9943181818181801  0.13701923076923075 0.674715909090905  0.4110576923076923 0.40482954545454697  C 0.685096153846154 0.134943181818179  1.0096153846153848 0  1.3846153846153846 0  L 6.923076923076923 0  C 7.153846153846154 0  7.359375 0.04616477272727071  7.539663461538462 0.1384943181818188  C 7.719951923076924 0.23082386363636354  7.860576923076924 0.3409090909090906  7.961538461538462 0.46875  C 8.0625 0.5965909090909094  8.15625 0.7705965909090862  8.242788461538462 0.990767045454547  C 8.329326923076925 1.2109374999999978  8.387019230769232 1.3955965909090906  8.415865384615385 1.5447443181818188  C 8.44471153846154 1.693892045454547  8.484375 1.9034090909090884  8.53485576923077 2.1732954545454533  C 8.58533653846154 2.4431818181818143  8.617788461538462 2.6278409090909074  8.632211538461538 3  L 34.61538461538461 3  C 34.99038461538462 2.7272727272727284  35.31490384615385 2.8622159090909074  35.58894230769231 3.1321022727272716  Z " fill-rule="evenodd" />
    </mask>
  </defs>
  <g transform="matrix(1 0 0 1 -158 -26 )">
    <path d="M 13.024038461538462 25.355113636363637  C 13.572115384615387 25.89488636363636  13.846153846153847 26.534090909090907  13.846153846153847 27.272727272727273  C 13.846153846153847 28.01136363636364  13.572115384615387 28.650568181818183  13.024038461538462 29.19034090909091  C 12.47596153846154 29.730113636363637  11.826923076923078 30  11.076923076923077 30  C 10.326923076923078 30  9.677884615384617 29.730113636363637  9.129807692307692 29.19034090909091  C 8.581730769230768 28.650568181818183  8.307692307692308 28.01136363636364  8.307692307692308 27.272727272727273  C 8.307692307692308 26.534090909090907  8.581730769230768 25.89488636363636  9.129807692307692 25.355113636363637  C 9.677884615384617 24.81534090909091  10.326923076923078 24.545454545454543  11.076923076923077 24.545454545454543  C 11.826923076923078 24.545454545454543  12.47596153846154 24.81534090909091  13.024038461538462 25.355113636363637  Z M 32.40865384615385 25.355113636363637  C 32.95673076923077 25.89488636363636  33.23076923076923 26.534090909090907  33.23076923076923 27.272727272727273  C 33.23076923076923 28.01136363636364  32.95673076923077 28.650568181818183  32.40865384615385 29.19034090909091  C 31.860576923076923 29.730113636363637  31.211538461538463 30  30.46153846153846 30  C 29.711538461538463 30  29.062500000000004 29.730113636363637  28.514423076923077 29.19034090909091  C 27.966346153846157 28.650568181818183  27.692307692307693 28.01136363636364  27.692307692307693 27.272727272727273  C 27.692307692307693 26.534090909090907  27.966346153846157 25.89488636363636  28.514423076923077 25.355113636363637  C 29.062500000000004 24.81534090909091  29.711538461538463 24.545454545454543  30.46153846153846 24.545454545454543  C 31.211538461538463 24.545454545454543  31.860576923076923 24.81534090909091  32.40865384615385 25.355113636363637  Z M 35.58894230769231 3.1321022727272716  C 35.862980769230774 3.401988636363633  36 3.7215909090909047  36 4.090909090909091  L 36 15  C 36 15.34090909090909  35.88100961538461 15.642755681818183  35.64302884615385 15.905539772727275  C 35.40504807692308 16.16832386363636  35.11298076923077 16.321022727272727  34.76682692307692 16.363636363636363  L 12.180288461538462 18.96306818181818  C 12.367788461538463 19.81534090909091  12.461538461538462 20.312499999999996  12.461538461538462 20.454545454545457  C 12.461538461538462 20.681818181818176  12.288461538461538 21.136363636363637  11.942307692307692 21.81818181818182  L 31.846153846153847 21.81818181818182  C 32.22115384615385 21.81818181818182  32.54567307692308 21.953124999999996  32.81971153846154 22.223011363636363  C 33.09375 22.492897727272727  33.23076923076923 22.812500000000004  33.23076923076923 23.18181818181818  C 33.23076923076923 23.55113636363636  33.09375 23.870738636363637  32.81971153846154 24.140625  C 32.54567307692308 24.410511363636363  32.22115384615385 24.545454545454543  31.846153846153847 24  L 9.692307692307692 24  C 9.317307692307693 24.545454545454543  8.992788461538462 24.410511363636363  8.71875 24.140625  C 8.444711538461538 23.870738636363637  8.307692307692308 23.55113636363636  8.307692307692308 23.18181818181818  C 8.307692307692308 23.025568181818183  8.365384615384615 22.801846590909093  8.48076923076923 22.51065340909091  C 8.596153846153847 22.219460227272727  8.711538461538462 21.963778409090907  8.826923076923077 21.743607954545457  C 8.942307692307693 21.523437499999996  9.09735576923077 21.239346590909093  9.292067307692308 20.891335227272727  C 9.486778846153847 20.54332386363636  9.598557692307693 20.333806818181817  9.627403846153847 20.26278409090909  L 5.798076923076923 2.7272727272727284  L 1.3846153846153846 2.7272727272727284  C 1.0096153846153848 2.7272727272727284  0.685096153846154 2.5923295454545423  0.4110576923076923 2.322443181818181  C 0.13701923076923075 2.0525568181818166  0 1.7329545454545447  0 1.3636363636363624  C 0 0.9943181818181801  0.13701923076923075 0.674715909090905  0.4110576923076923 0.40482954545454697  C 0.685096153846154 0.134943181818179  1.0096153846153848 0  1.3846153846153846 0  L 6.923076923076923 0  C 7.153846153846154 0  7.359375 0.04616477272727071  7.539663461538462 0.1384943181818188  C 7.719951923076924 0.23082386363636354  7.860576923076924 0.3409090909090906  7.961538461538462 0.46875  C 8.0625 0.5965909090909094  8.15625 0.7705965909090862  8.242788461538462 0.990767045454547  C 8.329326923076925 1.2109374999999978  8.387019230769232 1.3955965909090906  8.415865384615385 1.5447443181818188  C 8.44471153846154 1.693892045454547  8.484375 1.9034090909090884  8.53485576923077 2.1732954545454533  C 8.58533653846154 2.4431818181818143  8.617788461538462 2.6278409090909074  8.632211538461538 3  L 34.61538461538461 3  C 34.99038461538462 2.7272727272727284  35.31490384615385 2.8622159090909074  35.58894230769231 3.1321022727272716  Z " fill-rule="nonzero" fill="rgba(255, 255, 255, 1)" stroke="none" transform="matrix(1 0 0 1 158 26 )" class="fill" />
    <path d="M 13.024038461538462 25.355113636363637  C 13.572115384615387 25.89488636363636  13.846153846153847 26.534090909090907  13.846153846153847 27.272727272727273  C 13.846153846153847 28.01136363636364  13.572115384615387 28.650568181818183  13.024038461538462 29.19034090909091  C 12.47596153846154 29.730113636363637  11.826923076923078 30  11.076923076923077 30  C 10.326923076923078 30  9.677884615384617 29.730113636363637  9.129807692307692 29.19034090909091  C 8.581730769230768 28.650568181818183  8.307692307692308 28.01136363636364  8.307692307692308 27.272727272727273  C 8.307692307692308 26.534090909090907  8.581730769230768 25.89488636363636  9.129807692307692 25.355113636363637  C 9.677884615384617 24.81534090909091  10.326923076923078 24.545454545454543  11.076923076923077 24.545454545454543  C 11.826923076923078 24.545454545454543  12.47596153846154 24.81534090909091  13.024038461538462 25.355113636363637  Z " stroke-width="0" stroke-dasharray="0" stroke="rgba(255, 255, 255, 0)" fill="none" transform="matrix(1 0 0 1 158 26 )" class="stroke" mask="url(#Clip308)" />
    <path d="M 32.40865384615385 25.355113636363637  C 32.95673076923077 25.89488636363636  33.23076923076923 26.534090909090907  33.23076923076923 27.272727272727273  C 33.23076923076923 28.01136363636364  32.95673076923077 28.650568181818183  32.40865384615385 29.19034090909091  C 31.860576923076923 29.730113636363637  31.211538461538463 30  30.46153846153846 30  C 29.711538461538463 30  29.062500000000004 29.730113636363637  28.514423076923077 29.19034090909091  C 27.966346153846157 28.650568181818183  27.692307692307693 28.01136363636364  27.692307692307693 27.272727272727273  C 27.692307692307693 26.534090909090907  27.966346153846157 25.89488636363636  28.514423076923077 25.355113636363637  C 29.062500000000004 24.81534090909091  29.711538461538463 24.545454545454543  30.46153846153846 24.545454545454543  C 31.211538461538463 24.545454545454543  31.860576923076923 24.81534090909091  32.40865384615385 25.355113636363637  Z " stroke-width="0" stroke-dasharray="0" stroke="rgba(255, 255, 255, 0)" fill="none" transform="matrix(1 0 0 1 158 26 )" class="stroke" mask="url(#Clip308)" />
    <path d="M 35.58894230769231 3.1321022727272716  C 35.862980769230774 3.401988636363633  36 3.7215909090909047  36 4.090909090909091  L 36 15  C 36 15.34090909090909  35.88100961538461 15.642755681818183  35.64302884615385 15.905539772727275  C 35.40504807692308 16.16832386363636  35.11298076923077 16.321022727272727  34.76682692307692 16.363636363636363  L 12.180288461538462 18.96306818181818  C 12.367788461538463 19.81534090909091  12.461538461538462 20.312499999999996  12.461538461538462 20.454545454545457  C 12.461538461538462 20.681818181818176  12.288461538461538 21.136363636363637  11.942307692307692 21.81818181818182  L 31.846153846153847 21.81818181818182  C 32.22115384615385 21.81818181818182  32.54567307692308 21.953124999999996  32.81971153846154 22.223011363636363  C 33.09375 22.492897727272727  33.23076923076923 22.812500000000004  33.23076923076923 23.18181818181818  C 33.23076923076923 23.55113636363636  33.09375 23.870738636363637  32.81971153846154 24.140625  C 32.54567307692308 24.410511363636363  32.22115384615385 24.545454545454543  31.846153846153847 24  L 9.692307692307692 24  C 9.317307692307693 24.545454545454543  8.992788461538462 24.410511363636363  8.71875 24.140625  C 8.444711538461538 23.870738636363637  8.307692307692308 23.55113636363636  8.307692307692308 23.18181818181818  C 8.307692307692308 23.025568181818183  8.365384615384615 22.801846590909093  8.48076923076923 22.51065340909091  C 8.596153846153847 22.219460227272727  8.711538461538462 21.963778409090907  8.826923076923077 21.743607954545457  C 8.942307692307693 21.523437499999996  9.09735576923077 21.239346590909093  9.292067307692308 20.891335227272727  C 9.486778846153847 20.54332386363636  9.598557692307693 20.333806818181817  9.627403846153847 20.26278409090909  L 5.798076923076923 2.7272727272727284  L 1.3846153846153846 2.7272727272727284  C 1.0096153846153848 2.7272727272727284  0.685096153846154 2.5923295454545423  0.4110576923076923 2.322443181818181  C 0.13701923076923075 2.0525568181818166  0 1.7329545454545447  0 1.3636363636363624  C 0 0.9943181818181801  0.13701923076923075 0.674715909090905  0.4110576923076923 0.40482954545454697  C 0.685096153846154 0.134943181818179  1.0096153846153848 0  1.3846153846153846 0  L 6.923076923076923 0  C 7.153846153846154 0  7.359375 0.04616477272727071  7.539663461538462 0.1384943181818188  C 7.719951923076924 0.23082386363636354  7.860576923076924 0.3409090909090906  7.961538461538462 0.46875  C 8.0625 0.5965909090909094  8.15625 0.7705965909090862  8.242788461538462 0.990767045454547  C 8.329326923076925 1.2109374999999978  8.387019230769232 1.3955965909090906  8.415865384615385 1.5447443181818188  C 8.44471153846154 1.693892045454547  8.484375 1.9034090909090884  8.53485576923077 2.1732954545454533  C 8.58533653846154 2.4431818181818143  8.617788461538462 2.6278409090909074  8.632211538461538 3  L 34.61538461538461 3  C 34.99038461538462 2.7272727272727284  35.31490384615385 2.8622159090909074  35.58894230769231 3.1321022727272716  Z " stroke-width="0" stroke-dasharray="0" stroke="rgba(255, 255, 255, 0)" fill="none" transform="matrix(1 0 0 1 158 26 )" class="stroke" mask="url(#Clip308)" />
  </g>
</svg>