<?xml version="1.0" encoding="utf-8"?>
<svg version="1.1" xmlns:xlink="http://www.w3.org/1999/xlink" width="29px" height="36px" xmlns="http://www.w3.org/2000/svg">
  <defs>
    <pattern id="BGPattern" patternUnits="userSpaceOnUse" alignment="0 0" imageRepeat="None" />
    <mask fill="white" id="Clip310">
      <path d="M 28.641276041666668 29.334374999999998  C 28.88042534722222 29.690625000000004  29 30.112500000000004  29 30.599999999999998  L 29 34.199999999999996  C 29 34.6875  28.88042534722222 35.109375  28.641276041666668 35.465624999999996  C 28.402126736111114 35.821875000000006  28.118923611111114 36  27.791666666666668 36  L 1.2083333333333333 36  C 0.881076388888889 36  0.5978732638888888 35.821875000000006  0.3587239583333333 35.465624999999996  C 0.11957465277777778 35.109375  0 34.6875  0 34.199999999999996  L 0 30.599999999999998  C 0 30.112500000000004  0.11957465277777778 29.690625000000004  0.3587239583333333 29.334374999999998  C 0.5978732638888888 28.978125  0.881076388888889 28.8  1.2083333333333333 28.8  L 27.791666666666668 28.8  C 28.118923611111114 28.8  28.402126736111114 28.978125  28.641276041666668 29.334374999999998  Z M 28.641276041666668 14.934375  C 28.88042534722222 15.290624999999999  29 15.712499999999999  29 16.2  L 29 19.8  C 29 20.287499999999998  28.88042534722222 20.709374999999998  28.641276041666668 21.065625  C 28.402126736111114 21.421874999999996  28.118923611111114 21.599999999999998  27.791666666666668 21  L 1.2083333333333333 21  C 0.881076388888889 21.599999999999998  0.5978732638888888 21.421874999999996  0.3587239583333333 21.065625  C 0.11957465277777778 20.709374999999998  0 20.287499999999998  0 19.8  L 0 16.2  C 0 15.712499999999999  0.11957465277777778 15.290624999999999  0.3587239583333333 14.934375  C 0.5978732638888888 14.578125000000004  0.881076388888889 14.4  1.2083333333333333 15  L 27.791666666666668 15  C 28.118923611111114 14.4  28.402126736111114 14.578125000000004  28.641276041666668 14.934375  Z M 28.641276041666668 0.5343750000000016  C 28.88042534722222 0.8906249999999973  29 1.3124999999999973  29 1.8000000000000016  L 29 5.4  C 29 5.8874999999999975  28.88042534722222 6.3093749999999975  28.641276041666668 6.665625  C 28.402126736111114 7.021874999999996  28.118923611111114 7.199999999999998  27.791666666666668 7.199999999999998  L 1.2083333333333333 7.199999999999998  C 0.881076388888889 7.199999999999998  0.5978732638888888 7.021874999999996  0.3587239583333333 6.665625  C 0.11957465277777778 6.3093749999999975  0 5.8874999999999975  0 5.4  L 0 1.8000000000000016  C 0 1.3124999999999973  0.11957465277777778 0.8906249999999973  0.3587239583333333 0.5343750000000016  C 0.5978732638888888 0.17812499999999787  0.881076388888889 0  1.2083333333333333 0  L 27.791666666666668 0  C 28.118923611111114 0  28.402126736111114 0.17812499999999787  28.641276041666668 0.5343750000000016  Z " fill-rule="evenodd" />
    </mask>
  </defs>
  <g transform="matrix(1 0 0 1 -281 -26 )">
    <path d="M 28.641276041666668 29.334374999999998  C 28.88042534722222 29.690625000000004  29 30.112500000000004  29 30.599999999999998  L 29 34.199999999999996  C 29 34.6875  28.88042534722222 35.109375  28.641276041666668 35.465624999999996  C 28.402126736111114 35.821875000000006  28.118923611111114 36  27.791666666666668 36  L 1.2083333333333333 36  C 0.881076388888889 36  0.5978732638888888 35.821875000000006  0.3587239583333333 35.465624999999996  C 0.11957465277777778 35.109375  0 34.6875  0 34.199999999999996  L 0 30.599999999999998  C 0 30.112500000000004  0.11957465277777778 29.690625000000004  0.3587239583333333 29.334374999999998  C 0.5978732638888888 28.978125  0.881076388888889 28.8  1.2083333333333333 28.8  L 27.791666666666668 28.8  C 28.118923611111114 28.8  28.402126736111114 28.978125  28.641276041666668 29.334374999999998  Z M 28.641276041666668 14.934375  C 28.88042534722222 15.290624999999999  29 15.712499999999999  29 16.2  L 29 19.8  C 29 20.287499999999998  28.88042534722222 20.709374999999998  28.641276041666668 21.065625  C 28.402126736111114 21.421874999999996  28.118923611111114 21.599999999999998  27.791666666666668 21  L 1.2083333333333333 21  C 0.881076388888889 21.599999999999998  0.5978732638888888 21.421874999999996  0.3587239583333333 21.065625  C 0.11957465277777778 20.709374999999998  0 20.287499999999998  0 19.8  L 0 16.2  C 0 15.712499999999999  0.11957465277777778 15.290624999999999  0.3587239583333333 14.934375  C 0.5978732638888888 14.578125000000004  0.881076388888889 14.4  1.2083333333333333 15  L 27.791666666666668 15  C 28.118923611111114 14.4  28.402126736111114 14.578125000000004  28.641276041666668 14.934375  Z M 28.641276041666668 0.5343750000000016  C 28.88042534722222 0.8906249999999973  29 1.3124999999999973  29 1.8000000000000016  L 29 5.4  C 29 5.8874999999999975  28.88042534722222 6.3093749999999975  28.641276041666668 6.665625  C 28.402126736111114 7.021874999999996  28.118923611111114 7.199999999999998  27.791666666666668 7.199999999999998  L 1.2083333333333333 7.199999999999998  C 0.881076388888889 7.199999999999998  0.5978732638888888 7.021874999999996  0.3587239583333333 6.665625  C 0.11957465277777778 6.3093749999999975  0 5.8874999999999975  0 5.4  L 0 1.8000000000000016  C 0 1.3124999999999973  0.11957465277777778 0.8906249999999973  0.3587239583333333 0.5343750000000016  C 0.5978732638888888 0.17812499999999787  0.881076388888889 0  1.2083333333333333 0  L 27.791666666666668 0  C 28.118923611111114 0  28.402126736111114 0.17812499999999787  28.641276041666668 0.5343750000000016  Z " fill-rule="nonzero" fill="rgba(255, 255, 255, 1)" stroke="none" transform="matrix(1 0 0 1 281 26 )" class="fill" />
    <path d="M 28.641276041666668 29.334374999999998  C 28.88042534722222 29.690625000000004  29 30.112500000000004  29 30.599999999999998  L 29 34.199999999999996  C 29 34.6875  28.88042534722222 35.109375  28.641276041666668 35.465624999999996  C 28.402126736111114 35.821875000000006  28.118923611111114 36  27.791666666666668 36  L 1.2083333333333333 36  C 0.881076388888889 36  0.5978732638888888 35.821875000000006  0.3587239583333333 35.465624999999996  C 0.11957465277777778 35.109375  0 34.6875  0 34.199999999999996  L 0 30.599999999999998  C 0 30.112500000000004  0.11957465277777778 29.690625000000004  0.3587239583333333 29.334374999999998  C 0.5978732638888888 28.978125  0.881076388888889 28.8  1.2083333333333333 28.8  L 27.791666666666668 28.8  C 28.118923611111114 28.8  28.402126736111114 28.978125  28.641276041666668 29.334374999999998  Z " stroke-width="0" stroke-dasharray="0" stroke="rgba(255, 255, 255, 0)" fill="none" transform="matrix(1 0 0 1 281 26 )" class="stroke" mask="url(#Clip310)" />
    <path d="M 28.641276041666668 14.934375  C 28.88042534722222 15.290624999999999  29 15.712499999999999  29 16.2  L 29 19.8  C 29 20.287499999999998  28.88042534722222 20.709374999999998  28.641276041666668 21.065625  C 28.402126736111114 21.421874999999996  28.118923611111114 21.599999999999998  27.791666666666668 21  L 1.2083333333333333 21  C 0.881076388888889 21.599999999999998  0.5978732638888888 21.421874999999996  0.3587239583333333 21.065625  C 0.11957465277777778 20.709374999999998  0 20.287499999999998  0 19.8  L 0 16.2  C 0 15.712499999999999  0.11957465277777778 15.290624999999999  0.3587239583333333 14.934375  C 0.5978732638888888 14.578125000000004  0.881076388888889 14.4  1.2083333333333333 15  L 27.791666666666668 15  C 28.118923611111114 14.4  28.402126736111114 14.578125000000004  28.641276041666668 14.934375  Z " stroke-width="0" stroke-dasharray="0" stroke="rgba(255, 255, 255, 0)" fill="none" transform="matrix(1 0 0 1 281 26 )" class="stroke" mask="url(#Clip310)" />
    <path d="M 28.641276041666668 0.5343750000000016  C 28.88042534722222 0.8906249999999973  29 1.3124999999999973  29 1.8000000000000016  L 29 5.4  C 29 5.8874999999999975  28.88042534722222 6.3093749999999975  28.641276041666668 6.665625  C 28.402126736111114 7.021874999999996  28.118923611111114 7.199999999999998  27.791666666666668 7.199999999999998  L 1.2083333333333333 7.199999999999998  C 0.881076388888889 7.199999999999998  0.5978732638888888 7.021874999999996  0.3587239583333333 6.665625  C 0.11957465277777778 6.3093749999999975  0 5.8874999999999975  0 5.4  L 0 1.8000000000000016  C 0 1.3124999999999973  0.11957465277777778 0.8906249999999973  0.3587239583333333 0.5343750000000016  C 0.5978732638888888 0.17812499999999787  0.881076388888889 0  1.2083333333333333 0  L 27.791666666666668 0  C 28.118923611111114 0  28.402126736111114 0.17812499999999787  28.641276041666668 0.5343750000000016  Z " stroke-width="0" stroke-dasharray="0" stroke="rgba(255, 255, 255, 0)" fill="none" transform="matrix(1 0 0 1 281 26 )" class="stroke" mask="url(#Clip310)" />
  </g>
</svg>