<?xml version="1.0" encoding="utf-8"?>
<svg version="1.1" xmlns:xlink="http://www.w3.org/1999/xlink" width="34px" height="40px" xmlns="http://www.w3.org/2000/svg">
  <defs>
    <pattern id="BGPattern" patternUnits="userSpaceOnUse" alignment="0 0" imageRepeat="None" />
    <mask fill="white" id="Clip309">
      <path d="M 33.77421875 28.91927083333333  C 33.924739583333334 30.230034722222218  34 31.62326388888889  34 33.098958333333336  C 34 34.99131944444444  33.446614583333336 36.614583333333336  32.33984375 37.96875  C 31.233072916666668 39.322916666666664  29.900520833333335 40  28.3421875 40  L 5.6578125 40  C 4.099479166666667 40  2.7669270833333335 39.322916666666664  1.6601562500000002 37.96875  C 0.5533854166666669 36.614583333333336  0 34.99131944444444  0 33.098958333333336  C 0 31.62326388888889  0.07526041666666684 30.230034722222218  0.2257812500000002 28.91927083333333  C 0.37630208333333354 27.608506944444436  0.6552083333333335 26.2890625  1.0625000000000002 24.9609375  C 1.469791666666667 23.6328125  1.987760416666667 22.49565972222222  2.61640625 21.54947916666667  C 3.245052083333334 20.603298611111107  4.07734375 19.830729166666664  5.11328125 19.231770833333336  C 6.149218749999999 18.6328125  7.340104166666667 18.333333333333336  8.685937500000001 18.333333333333336  C 11.005729166666669 20.555555555555554  13.777083333333335 21.66666666666667  17 21.66666666666667  C 20.222916666666674 21.66666666666667  22.994270833333335 20.555555555555554  25.3140625 18.333333333333336  C 26.659895833333337 18.333333333333336  27.850781249999997 18.6328125  28.88671875 19.231770833333336  C 29.922656250000003 19.830729166666664  30.75494791666667 20.603298611111107  31.383593750000003 21.54947916666667  C 32.01223958333334 22.49565972222222  32.530208333333334 23.6328125  32.9375 24.9609375  C 33.34479166666667 26.2890625  33.62369791666667 27.608506944444436  33.77421875 28.91927083333333  Z M 24.211718750000003 2.9296875  C 26.203906250000003 4.8828125  27.200000000000003 7.239583333333335  27.200000000000003 10  C 27.200000000000003 12.760416666666664  26.203906250000003 15.1171875  24.211718750000003 17.0703125  C 22.219531250000003 19.0234375  19.815624999999997 20  17 20  C 14.184375 20  11.78046875 19.0234375  9.78828125 17.0703125  C 7.796093750000001 15.1171875  6.800000000000001 12.760416666666664  6.800000000000001 10  C 6.800000000000001 7.239583333333335  7.796093750000001 4.8828125  9.78828125 2.9296875  C 11.78046875 0.9765625  14.184375 0  17 0  C 19.815624999999997 0  22.219531250000003 0.9765625  24.211718750000003 2.9296875  Z " fill-rule="evenodd" />
    </mask>
  </defs>
  <g transform="matrix(1 0 0 1 -223 -19 )">
    <path d="M 33.77421875 28.91927083333333  C 33.924739583333334 30.230034722222218  34 31.62326388888889  34 33.098958333333336  C 34 34.99131944444444  33.446614583333336 36.614583333333336  32.33984375 37.96875  C 31.233072916666668 39.322916666666664  29.900520833333335 40  28.3421875 40  L 5.6578125 40  C 4.099479166666667 40  2.7669270833333335 39.322916666666664  1.6601562500000002 37.96875  C 0.5533854166666669 36.614583333333336  0 34.99131944444444  0 33.098958333333336  C 0 31.62326388888889  0.07526041666666684 30.230034722222218  0.2257812500000002 28.91927083333333  C 0.37630208333333354 27.608506944444436  0.6552083333333335 26.2890625  1.0625000000000002 24.9609375  C 1.469791666666667 23.6328125  1.987760416666667 22.49565972222222  2.61640625 21.54947916666667  C 3.245052083333334 20.603298611111107  4.07734375 19.830729166666664  5.11328125 19.231770833333336  C 6.149218749999999 18.6328125  7.340104166666667 18.333333333333336  8.685937500000001 18.333333333333336  C 11.005729166666669 20.555555555555554  13.777083333333335 21.66666666666667  17 21.66666666666667  C 20.222916666666674 21.66666666666667  22.994270833333335 20.555555555555554  25.3140625 18.333333333333336  C 26.659895833333337 18.333333333333336  27.850781249999997 18.6328125  28.88671875 19.231770833333336  C 29.922656250000003 19.830729166666664  30.75494791666667 20.603298611111107  31.383593750000003 21.54947916666667  C 32.01223958333334 22.49565972222222  32.530208333333334 23.6328125  32.9375 24.9609375  C 33.34479166666667 26.2890625  33.62369791666667 27.608506944444436  33.77421875 28.91927083333333  Z M 24.211718750000003 2.9296875  C 26.203906250000003 4.8828125  27.200000000000003 7.239583333333335  27.200000000000003 10  C 27.200000000000003 12.760416666666664  26.203906250000003 15.1171875  24.211718750000003 17.0703125  C 22.219531250000003 19.0234375  19.815624999999997 20  17 20  C 14.184375 20  11.78046875 19.0234375  9.78828125 17.0703125  C 7.796093750000001 15.1171875  6.800000000000001 12.760416666666664  6.800000000000001 10  C 6.800000000000001 7.239583333333335  7.796093750000001 4.8828125  9.78828125 2.9296875  C 11.78046875 0.9765625  14.184375 0  17 0  C 19.815624999999997 0  22.219531250000003 0.9765625  24.211718750000003 2.9296875  Z " fill-rule="nonzero" fill="rgba(255, 255, 255, 1)" stroke="none" transform="matrix(1 0 0 1 223 19 )" class="fill" />
    <path d="M 33.77421875 28.91927083333333  C 33.924739583333334 30.230034722222218  34 31.62326388888889  34 33.098958333333336  C 34 34.99131944444444  33.446614583333336 36.614583333333336  32.33984375 37.96875  C 31.233072916666668 39.322916666666664  29.900520833333335 40  28.3421875 40  L 5.6578125 40  C 4.099479166666667 40  2.7669270833333335 39.322916666666664  1.6601562500000002 37.96875  C 0.5533854166666669 36.614583333333336  0 34.99131944444444  0 33.098958333333336  C 0 31.62326388888889  0.07526041666666684 30.230034722222218  0.2257812500000002 28.91927083333333  C 0.37630208333333354 27.608506944444436  0.6552083333333335 26.2890625  1.0625000000000002 24.9609375  C 1.469791666666667 23.6328125  1.987760416666667 22.49565972222222  2.61640625 21.54947916666667  C 3.245052083333334 20.603298611111107  4.07734375 19.830729166666664  5.11328125 19.231770833333336  C 6.149218749999999 18.6328125  7.340104166666667 18.333333333333336  8.685937500000001 18.333333333333336  C 11.005729166666669 20.555555555555554  13.777083333333335 21.66666666666667  17 21.66666666666667  C 20.222916666666674 21.66666666666667  22.994270833333335 20.555555555555554  25.3140625 18.333333333333336  C 26.659895833333337 18.333333333333336  27.850781249999997 18.6328125  28.88671875 19.231770833333336  C 29.922656250000003 19.830729166666664  30.75494791666667 20.603298611111107  31.383593750000003 21.54947916666667  C 32.01223958333334 22.49565972222222  32.530208333333334 23.6328125  32.9375 24.9609375  C 33.34479166666667 26.2890625  33.62369791666667 27.608506944444436  33.77421875 28.91927083333333  Z " stroke-width="0" stroke-dasharray="0" stroke="rgba(255, 255, 255, 0)" fill="none" transform="matrix(1 0 0 1 223 19 )" class="stroke" mask="url(#Clip309)" />
    <path d="M 24.211718750000003 2.9296875  C 26.203906250000003 4.8828125  27.200000000000003 7.239583333333335  27.200000000000003 10  C 27.200000000000003 12.760416666666664  26.203906250000003 15.1171875  24.211718750000003 17.0703125  C 22.219531250000003 19.0234375  19.815624999999997 20  17 20  C 14.184375 20  11.78046875 19.0234375  9.78828125 17.0703125  C 7.796093750000001 15.1171875  6.800000000000001 12.760416666666664  6.800000000000001 10  C 6.800000000000001 7.239583333333335  7.796093750000001 4.8828125  9.78828125 2.9296875  C 11.78046875 0.9765625  14.184375 0  17 0  C 19.815624999999997 0  22.219531250000003 0.9765625  24.211718750000003 2.9296875  Z " stroke-width="0" stroke-dasharray="0" stroke="rgba(255, 255, 255, 0)" fill="none" transform="matrix(1 0 0 1 223 19 )" class="stroke" mask="url(#Clip309)" />
  </g>
</svg>