<?xml version="1.0" encoding="utf-8"?>
<svg version="1.1" xmlns:xlink="http://www.w3.org/1999/xlink" width="22px" height="24px" xmlns="http://www.w3.org/2000/svg">
  <defs>
    <pattern id="BGPattern" patternUnits="userSpaceOnUse" alignment="0 0" imageRepeat="None" />
    <mask fill="white" id="Clip332">
      <path d="M 14.39453125 6.296874999999999  C 14.57595486111111 6.494791666666663  14.666666666666666 6.729166666666663  14.666666666666666 6.999999999999999  L 14.666666666666666 17  C 14.666666666666666 17.270833333333336  14.57595486111111 17.505208333333336  14.39453125 17.703125  C 14.21310763888889 17.901041666666664  13.99826388888889 18  13.75 18  C 13.55902777777778 18  13.382378472222223 17.9375  13.220052083333334 17.8125  L 6.803385416666667 12.812500000000002  C 6.545572916666667 12.614583333333332  6.416666666666667 12.343750000000002  6.416666666666667 12  C 6.416666666666667 11.65625  6.545572916666667 11.385416666666664  6.803385416666667 11.1875  L 13.220052083333334 6.1875  C 13.382378472222223 6.062499999999999  13.55902777777778 6  13.75 6  C 13.99826388888889 6  14.21310763888889 6.098958333333332  14.39453125 6.296874999999999  Z M 18.197265625 19.8515625  C 18.287977430555557 19.752604166666668  18.333333333333336 19.635416666666668  18 19.5  L 18 4.5  C 18.333333333333336 4.364583333333332  18.287977430555557 4.247395833333332  18.197265625 4.1484375  C 18.106553819444446 4.049479166666665  17.999131944444446 3.999999999999999  17.875 4  L 4.125 4  C 4.000868055555556 3.999999999999999  3.8934461805555562 4.049479166666665  3.802734375 4.1484375  C 3.712022569444445 4.247395833333332  3.6666666666666665 4.364583333333332  4 4.5  L 4 19.5  C 3.6666666666666665 19.635416666666668  3.712022569444445 19.752604166666668  3.802734375 19.8515625  C 3.8934461805555562 19.950520833333332  4.000868055555556 20  4.125 20  L 17.875 20  C 17.999131944444446 20  18.106553819444446 19.950520833333332  18.197265625 19.8515625  Z M 20.789713541666664 1.3203125000000009  C 21.596571180555554 2.2005208333333313  22 3.2604166666666634  22 4.5  L 22 19.5  C 22 20.739583333333332  21.596571180555554 21.799479166666668  20.789713541666664 22.6796875  C 19.98285590277778 23.559895833333332  19.011284722222225 24  17.875 24  L 4.125 24  C 2.9887152777777777 24  2.0171440972222223 23.559895833333332  1.2102864583333335 22.6796875  C 0.40342881944444436 21.799479166666668  0 20.739583333333332  0 19.5  L 0 4.5  C 0 3.2604166666666634  0.40342881944444436 2.2005208333333313  1.2102864583333335 1.3203125000000009  C 2.0171440972222223 0.4401041666666652  2.9887152777777777 0  4.125 0  L 17.875 0  C 19.011284722222225 0  19.98285590277778 0.4401041666666652  20.789713541666664 1.3203125000000009  Z " fill-rule="evenodd" />
    </mask>
  </defs>
  <g transform="matrix(1 0 0 1 -225 -305 )">
    <path d="M 14.39453125 6.296874999999999  C 14.57595486111111 6.494791666666663  14.666666666666666 6.729166666666663  14.666666666666666 6.999999999999999  L 14.666666666666666 17  C 14.666666666666666 17.270833333333336  14.57595486111111 17.505208333333336  14.39453125 17.703125  C 14.21310763888889 17.901041666666664  13.99826388888889 18  13.75 18  C 13.55902777777778 18  13.382378472222223 17.9375  13.220052083333334 17.8125  L 6.803385416666667 12.812500000000002  C 6.545572916666667 12.614583333333332  6.416666666666667 12.343750000000002  6.416666666666667 12  C 6.416666666666667 11.65625  6.545572916666667 11.385416666666664  6.803385416666667 11.1875  L 13.220052083333334 6.1875  C 13.382378472222223 6.062499999999999  13.55902777777778 6  13.75 6  C 13.99826388888889 6  14.21310763888889 6.098958333333332  14.39453125 6.296874999999999  Z M 18.197265625 19.8515625  C 18.287977430555557 19.752604166666668  18.333333333333336 19.635416666666668  18 19.5  L 18 4.5  C 18.333333333333336 4.364583333333332  18.287977430555557 4.247395833333332  18.197265625 4.1484375  C 18.106553819444446 4.049479166666665  17.999131944444446 3.999999999999999  17.875 4  L 4.125 4  C 4.000868055555556 3.999999999999999  3.8934461805555562 4.049479166666665  3.802734375 4.1484375  C 3.712022569444445 4.247395833333332  3.6666666666666665 4.364583333333332  4 4.5  L 4 19.5  C 3.6666666666666665 19.635416666666668  3.712022569444445 19.752604166666668  3.802734375 19.8515625  C 3.8934461805555562 19.950520833333332  4.000868055555556 20  4.125 20  L 17.875 20  C 17.999131944444446 20  18.106553819444446 19.950520833333332  18.197265625 19.8515625  Z M 20.789713541666664 1.3203125000000009  C 21.596571180555554 2.2005208333333313  22 3.2604166666666634  22 4.5  L 22 19.5  C 22 20.739583333333332  21.596571180555554 21.799479166666668  20.789713541666664 22.6796875  C 19.98285590277778 23.559895833333332  19.011284722222225 24  17.875 24  L 4.125 24  C 2.9887152777777777 24  2.0171440972222223 23.559895833333332  1.2102864583333335 22.6796875  C 0.40342881944444436 21.799479166666668  0 20.739583333333332  0 19.5  L 0 4.5  C 0 3.2604166666666634  0.40342881944444436 2.2005208333333313  1.2102864583333335 1.3203125000000009  C 2.0171440972222223 0.4401041666666652  2.9887152777777777 0  4.125 0  L 17.875 0  C 19.011284722222225 0  19.98285590277778 0.4401041666666652  20.789713541666664 1.3203125000000009  Z " fill-rule="nonzero" fill="rgba(255, 255, 255, 1)" stroke="none" transform="matrix(1 0 0 1 225 305 )" class="fill" />
    <path d="M 14.39453125 6.296874999999999  C 14.57595486111111 6.494791666666663  14.666666666666666 6.729166666666663  14.666666666666666 6.999999999999999  L 14.666666666666666 17  C 14.666666666666666 17.270833333333336  14.57595486111111 17.505208333333336  14.39453125 17.703125  C 14.21310763888889 17.901041666666664  13.99826388888889 18  13.75 18  C 13.55902777777778 18  13.382378472222223 17.9375  13.220052083333334 17.8125  L 6.803385416666667 12.812500000000002  C 6.545572916666667 12.614583333333332  6.416666666666667 12.343750000000002  6.416666666666667 12  C 6.416666666666667 11.65625  6.545572916666667 11.385416666666664  6.803385416666667 11.1875  L 13.220052083333334 6.1875  C 13.382378472222223 6.062499999999999  13.55902777777778 6  13.75 6  C 13.99826388888889 6  14.21310763888889 6.098958333333332  14.39453125 6.296874999999999  Z " stroke-width="0" stroke-dasharray="0" stroke="rgba(255, 255, 255, 0)" fill="none" transform="matrix(1 0 0 1 225 305 )" class="stroke" mask="url(#Clip332)" />
    <path d="M 18.197265625 19.8515625  C 18.287977430555557 19.752604166666668  18.333333333333336 19.635416666666668  18 19.5  L 18 4.5  C 18.333333333333336 4.364583333333332  18.287977430555557 4.247395833333332  18.197265625 4.1484375  C 18.106553819444446 4.049479166666665  17.999131944444446 3.999999999999999  17.875 4  L 4.125 4  C 4.000868055555556 3.999999999999999  3.8934461805555562 4.049479166666665  3.802734375 4.1484375  C 3.712022569444445 4.247395833333332  3.6666666666666665 4.364583333333332  4 4.5  L 4 19.5  C 3.6666666666666665 19.635416666666668  3.712022569444445 19.752604166666668  3.802734375 19.8515625  C 3.8934461805555562 19.950520833333332  4.000868055555556 20  4.125 20  L 17.875 20  C 17.999131944444446 20  18.106553819444446 19.950520833333332  18.197265625 19.8515625  Z " stroke-width="0" stroke-dasharray="0" stroke="rgba(255, 255, 255, 0)" fill="none" transform="matrix(1 0 0 1 225 305 )" class="stroke" mask="url(#Clip332)" />
    <path d="M 20.789713541666664 1.3203125000000009  C 21.596571180555554 2.2005208333333313  22 3.2604166666666634  22 4.5  L 22 19.5  C 22 20.739583333333332  21.596571180555554 21.799479166666668  20.789713541666664 22.6796875  C 19.98285590277778 23.559895833333332  19.011284722222225 24  17.875 24  L 4.125 24  C 2.9887152777777777 24  2.0171440972222223 23.559895833333332  1.2102864583333335 22.6796875  C 0.40342881944444436 21.799479166666668  0 20.739583333333332  0 19.5  L 0 4.5  C 0 3.2604166666666634  0.40342881944444436 2.2005208333333313  1.2102864583333335 1.3203125000000009  C 2.0171440972222223 0.4401041666666652  2.9887152777777777 0  4.125 0  L 17.875 0  C 19.011284722222225 0  19.98285590277778 0.4401041666666652  20.789713541666664 1.3203125000000009  Z " stroke-width="0" stroke-dasharray="0" stroke="rgba(255, 255, 255, 0)" fill="none" transform="matrix(1 0 0 1 225 305 )" class="stroke" mask="url(#Clip332)" />
  </g>
</svg>