<?xml version="1.0" encoding="utf-8"?>
<svg version="1.1" xmlns:xlink="http://www.w3.org/1999/xlink" width="27px" height="29px" xmlns="http://www.w3.org/2000/svg">
  <defs>
    <pattern id="BGPattern" patternUnits="userSpaceOnUse" alignment="0 0" imageRepeat="None" />
    <mask fill="white" id="Clip333">
      <path d="M 18.650390625 13.518229166666668  C 18.966796875 13.75737847222222  19.125 14.084635416666668  19.125 14.5  C 19.125 14.915364583333336  18.966796875 15.242621527777777  18.650390625 15.481770833333336  L 10.775390625 21.5234375  C 10.412109375 21.812934027777775  10.025390625 21.844401041666668  9.615234375 21.617838541666664  C 9.205078125 21.403862847222218  9 21.04513888888889  9 20.541666666666664  L 9 8.458333333333332  C 9 7.954861111111109  9.205078125 7.596137152777777  9.615234375 7.382161458333332  C 10.025390625 7.155598958333332  10.412109375 7.1870659722222205  10.775390625 7.4765625  L 18.650390625 13.518229166666668  Z M 22.341796875 23.996744791666668  C 22.447265625 23.883463541666668  22.5 23.738715277777775  22 23.5625  L 22 5.4375  C 22.5 5.2612847222222205  22.447265625 5.116536458333332  22.341796875 5.003255208333332  C 22.236328125 4.889973958333332  22.1015625 4.833333333333332  21.9375 5  L 5.0625 5  C 4.898437500000001 4.833333333333332  4.763671875 4.889973958333332  4.658203125 5.003255208333332  C 4.552734375 5.116536458333332  4.5 5.2612847222222205  5 5.4375  L 5 23.5625  C 4.5 23.738715277777775  4.552734375 23.883463541666668  4.658203125 23.996744791666668  C 4.763671875 24.110026041666668  4.898437500000001 24.166666666666668  5.0625 24  L 21.9375 24  C 22.1015625 24.166666666666668  22.236328125 24.110026041666668  22.341796875 23.996744791666668  Z M 25.5146484375 1.5953776041666679  C 26.5048828125 2.6589626736111085  27 3.939670138888885  27 5.4375  L 27 23.5625  C 27 25.060329861111107  26.5048828125 26.341037326388893  25.5146484375 27.404622395833332  C 24.524414062500004 28.468207465277775  23.332031250000004 29  21.9375 29  L 5.0625 29  C 3.66796875 29  2.4755859375000004 28.468207465277775  1.4853515625 27.404622395833332  C 0.49511718749999994 26.341037326388893  0 25.060329861111107  0 23.5625  L 0 5.4375  C 0 3.939670138888885  0.49511718749999994 2.6589626736111085  1.4853515625 1.5953776041666679  C 2.4755859375000004 0.5317925347222204  3.66796875 0  5.0625 0  L 21.9375 0  C 23.332031250000004 0  24.524414062500004 0.5317925347222204  25.5146484375 1.5953776041666679  Z " fill-rule="evenodd" />
    </mask>
  </defs>
  <g transform="matrix(1 0 0 1 -362 -302 )">
    <path d="M 18.650390625 13.518229166666668  C 18.966796875 13.75737847222222  19.125 14.084635416666668  19.125 14.5  C 19.125 14.915364583333336  18.966796875 15.242621527777777  18.650390625 15.481770833333336  L 10.775390625 21.5234375  C 10.412109375 21.812934027777775  10.025390625 21.844401041666668  9.615234375 21.617838541666664  C 9.205078125 21.403862847222218  9 21.04513888888889  9 20.541666666666664  L 9 8.458333333333332  C 9 7.954861111111109  9.205078125 7.596137152777777  9.615234375 7.382161458333332  C 10.025390625 7.155598958333332  10.412109375 7.1870659722222205  10.775390625 7.4765625  L 18.650390625 13.518229166666668  Z M 22.341796875 23.996744791666668  C 22.447265625 23.883463541666668  22.5 23.738715277777775  22 23.5625  L 22 5.4375  C 22.5 5.2612847222222205  22.447265625 5.116536458333332  22.341796875 5.003255208333332  C 22.236328125 4.889973958333332  22.1015625 4.833333333333332  21.9375 5  L 5.0625 5  C 4.898437500000001 4.833333333333332  4.763671875 4.889973958333332  4.658203125 5.003255208333332  C 4.552734375 5.116536458333332  4.5 5.2612847222222205  5 5.4375  L 5 23.5625  C 4.5 23.738715277777775  4.552734375 23.883463541666668  4.658203125 23.996744791666668  C 4.763671875 24.110026041666668  4.898437500000001 24.166666666666668  5.0625 24  L 21.9375 24  C 22.1015625 24.166666666666668  22.236328125 24.110026041666668  22.341796875 23.996744791666668  Z M 25.5146484375 1.5953776041666679  C 26.5048828125 2.6589626736111085  27 3.939670138888885  27 5.4375  L 27 23.5625  C 27 25.060329861111107  26.5048828125 26.341037326388893  25.5146484375 27.404622395833332  C 24.524414062500004 28.468207465277775  23.332031250000004 29  21.9375 29  L 5.0625 29  C 3.66796875 29  2.4755859375000004 28.468207465277775  1.4853515625 27.404622395833332  C 0.49511718749999994 26.341037326388893  0 25.060329861111107  0 23.5625  L 0 5.4375  C 0 3.939670138888885  0.49511718749999994 2.6589626736111085  1.4853515625 1.5953776041666679  C 2.4755859375000004 0.5317925347222204  3.66796875 0  5.0625 0  L 21.9375 0  C 23.332031250000004 0  24.524414062500004 0.5317925347222204  25.5146484375 1.5953776041666679  Z " fill-rule="nonzero" fill="rgba(255, 255, 255, 1)" stroke="none" transform="matrix(1 0 0 1 362 302 )" class="fill" />
    <path d="M 18.650390625 13.518229166666668  C 18.966796875 13.75737847222222  19.125 14.084635416666668  19.125 14.5  C 19.125 14.915364583333336  18.966796875 15.242621527777777  18.650390625 15.481770833333336  L 10.775390625 21.5234375  C 10.412109375 21.812934027777775  10.025390625 21.844401041666668  9.615234375 21.617838541666664  C 9.205078125 21.403862847222218  9 21.04513888888889  9 20.541666666666664  L 9 8.458333333333332  C 9 7.954861111111109  9.205078125 7.596137152777777  9.615234375 7.382161458333332  C 10.025390625 7.155598958333332  10.412109375 7.1870659722222205  10.775390625 7.4765625  L 18.650390625 13.518229166666668  Z " stroke-width="0" stroke-dasharray="0" stroke="rgba(255, 255, 255, 0)" fill="none" transform="matrix(1 0 0 1 362 302 )" class="stroke" mask="url(#Clip333)" />
    <path d="M 22.341796875 23.996744791666668  C 22.447265625 23.883463541666668  22.5 23.738715277777775  22 23.5625  L 22 5.4375  C 22.5 5.2612847222222205  22.447265625 5.116536458333332  22.341796875 5.003255208333332  C 22.236328125 4.889973958333332  22.1015625 4.833333333333332  21.9375 5  L 5.0625 5  C 4.898437500000001 4.833333333333332  4.763671875 4.889973958333332  4.658203125 5.003255208333332  C 4.552734375 5.116536458333332  4.5 5.2612847222222205  5 5.4375  L 5 23.5625  C 4.5 23.738715277777775  4.552734375 23.883463541666668  4.658203125 23.996744791666668  C 4.763671875 24.110026041666668  4.898437500000001 24.166666666666668  5.0625 24  L 21.9375 24  C 22.1015625 24.166666666666668  22.236328125 24.110026041666668  22.341796875 23.996744791666668  Z " stroke-width="0" stroke-dasharray="0" stroke="rgba(255, 255, 255, 0)" fill="none" transform="matrix(1 0 0 1 362 302 )" class="stroke" mask="url(#Clip333)" />
    <path d="M 25.5146484375 1.5953776041666679  C 26.5048828125 2.6589626736111085  27 3.939670138888885  27 5.4375  L 27 23.5625  C 27 25.060329861111107  26.5048828125 26.341037326388893  25.5146484375 27.404622395833332  C 24.524414062500004 28.468207465277775  23.332031250000004 29  21.9375 29  L 5.0625 29  C 3.66796875 29  2.4755859375000004 28.468207465277775  1.4853515625 27.404622395833332  C 0.49511718749999994 26.341037326388893  0 25.060329861111107  0 23.5625  L 0 5.4375  C 0 3.939670138888885  0.49511718749999994 2.6589626736111085  1.4853515625 1.5953776041666679  C 2.4755859375000004 0.5317925347222204  3.66796875 0  5.0625 0  L 21.9375 0  C 23.332031250000004 0  24.524414062500004 0.5317925347222204  25.5146484375 1.5953776041666679  Z " stroke-width="0" stroke-dasharray="0" stroke="rgba(255, 255, 255, 0)" fill="none" transform="matrix(1 0 0 1 362 302 )" class="stroke" mask="url(#Clip333)" />
  </g>
</svg>