<?xml version="1.0" encoding="utf-8"?>
<svg version="1.1" xmlns:xlink="http://www.w3.org/1999/xlink" width="175px" height="99px" xmlns="http://www.w3.org/2000/svg">
  <g transform="matrix(1 0 0 1 -31 -49 )">
    <path d="M 31 49  L 206 49  L 206 148  L 31 148  L 31 49  " fill-rule="nonzero" fill="rgba(204, 204, 204, 1)" stroke="none" class="fill" />
    <path d="M 38 56  L 199 56  L 199 141  L 38 141  L 38 56  " fill-rule="nonzero" fill="rgba(255, 255, 255, 1)" stroke="none" class="fill" />
    <path d="M 129.425 78.7  C 125.26700000000001 78.7  122 75.433  122 71.275  C 122 67.117  125.26700000000001 63.85  129.425 63.85  C 133.583 63.85  136.85 67.117  136.85 71.275  C 136.85 75.433  133.583 78.7  129.425 78.7  " fill-rule="nonzero" fill="rgba(204, 204, 204, 1)" stroke="none" class="fill" />
    <path d="M 41 139  L 41 95  L 80 75  L 134.6 111.84571428571428  L 165.8 87  L 197 111.84571428571428  L 197 139  L 41 139  " fill-rule="nonzero" fill="rgba(22, 155, 213, 1)" stroke="none" class="fill" />
  </g>
</svg>