<?xml version="1.0" encoding="utf-8"?>
<svg version="1.1" xmlns:xlink="http://www.w3.org/1999/xlink" width="171px" height="106px" xmlns="http://www.w3.org/2000/svg">
  <g transform="matrix(1 0 0 1 -55 -459 )">
    <path d="M 55 459  L 226 459  L 226 565  L 55 565  L 55 459  " fill-rule="nonzero" fill="rgba(204, 204, 204, 1)" stroke="none" class="fill" />
    <path d="M 62 466  L 219 466  L 219 558  L 62 558  L 62 466  " fill-rule="nonzero" fill="rgba(255, 255, 255, 1)" stroke="none" class="fill" />
    <path d="M 151.87 490.79999999999995  C 147.418 490.79999999999995  143.92000000000002 487.30199999999996  143.92000000000002 482.84999999999997  C 143.92000000000002 478.39799999999997  147.418 474.9  151.87 474.9  C 156.322 474.9  159.82000000000002 478.39799999999997  159.82000000000002 482.84999999999997  C 159.82000000000002 487.30199999999996  156.322 490.79999999999995  151.87 490.79999999999995  " fill-rule="nonzero" fill="rgba(204, 204, 204, 1)" stroke="none" class="fill" />
    <path d="M 65 556  L 65 508.15  L 103 486.4  L 156.2 523.6421052631579  L 186.60000000000002 499.45  L 217 523.6421052631579  L 217 556  L 65 556  " fill-rule="nonzero" fill="rgba(22, 155, 213, 1)" stroke="none" class="fill" />
  </g>
</svg>