<?xml version="1.0" encoding="utf-8"?>
<svg version="1.1" xmlns:xlink="http://www.w3.org/1999/xlink" width="89px" height="55px" xmlns="http://www.w3.org/2000/svg">
  <g transform="matrix(1 0 0 1 0 -43 )">
    <path d="M 0 43  L 89 43  L 89 98  L 0 98  L 0 43  " fill-rule="nonzero" fill="rgba(204, 204, 204, 1)" stroke="none" class="fill" />
    <path d="M 4 47  L 85 47  L 85 94  L 4 94  L 4 47  " fill-rule="nonzero" fill="rgba(255, 255, 255, 1)" stroke="none" class="fill" />
    <path d="M 50.405 59.5  C 48.095 59.5  46.28 57.685  46.28 55.375  C 46.28 53.065  48.095 51.25  50.405 51.25  C 52.715 51.25  54.53 53.065  54.53 55.375  C 54.53 57.685  52.715 59.5  50.405 59.5  " fill-rule="nonzero" fill="rgba(204, 204, 204, 1)" stroke="none" class="fill" />
    <path d="M 6 93  L 6 68.8  L 25.5 57.8  L 52.8 76.68539325842697  L 68.4 64.4  L 84 76.68539325842697  L 84 93  L 6 93  " fill-rule="nonzero" fill="rgba(22, 155, 213, 1)" stroke="none" class="fill" />
  </g>
</svg>