<?xml version="1.0" encoding="utf-8"?>
<svg version="1.1" xmlns:xlink="http://www.w3.org/1999/xlink" width="89px" height="55px" xmlns="http://www.w3.org/2000/svg">
  <g transform="matrix(1 0 0 1 -275 -43 )">
    <path d="M 275 43  L 364 43  L 364 98  L 275 98  L 275 43  " fill-rule="nonzero" fill="rgba(204, 204, 204, 1)" stroke="none" class="fill" />
    <path d="M 279 47  L 360 47  L 360 94  L 279 94  L 279 47  " fill-rule="nonzero" fill="rgba(255, 255, 255, 1)" stroke="none" class="fill" />
    <path d="M 325.405 59.5  C 323.09499999999997 59.5  321.28 57.685  321.28 55.375  C 321.28 53.065  323.09499999999997 51.25  325.405 51.25  C 327.715 51.25  329.53 53.065  329.53 55.375  C 329.53 57.685  327.715 59.5  325.405 59.5  " fill-rule="nonzero" fill="rgba(204, 204, 204, 1)" stroke="none" class="fill" />
    <path d="M 281 93  L 281 68.8  L 300.5 57.8  L 327.8 76.68539325842697  L 343.4 64.4  L 359 76.68539325842697  L 359 93  L 281 93  " fill-rule="nonzero" fill="rgba(22, 155, 213, 1)" stroke="none" class="fill" />
  </g>
</svg>