<?xml version="1.0" encoding="utf-8"?>
<svg version="1.1" xmlns:xlink="http://www.w3.org/1999/xlink" width="59px" height="50px" xmlns="http://www.w3.org/2000/svg">
  <defs>
    <pattern id="BGPattern" patternUnits="userSpaceOnUse" alignment="0 0" imageRepeat="None" />
    <mask fill="white" id="Clip324">
      <path d="M 42.44170673076923 17.50710227272727  C 42.890825320512825 17.057291666666664  43.11538461538461 16.52462121212121  43.11538461538461 15.909090909090912  C 43.11538461538461 15.293560606060602  42.890825320512825 14.760890151515143  42.44170673076923 14.311079545454547  C 41.99258814102565 13.86126893939394  41.46073717948718 13.636363636363635  40.84615384615385 13.636363636363635  L 36.30769230769231 13.636363636363635  L 36.30769230769231 9.090909090909088  C 36.30769230769231 8.475378787878785  36.08313301282051 7.942708333333326  35.63401442307692 7.492897727272729  C 35.184895833333336 7.043087121212116  34.653044871794876 6.8181818181818175  34.03846153846153 6.8181818181818175  C 33.42387820512821 6.8181818181818175  32.892027243589745 7.043087121212116  32.44290865384615 7.492897727272729  C 31.993790064102562 7.942708333333326  31.769230769230766 8.475378787878785  31.769230769230766 9.090909090909088  L 31.769230769230766 13.636363636363635  L 27.230769230769234 13.636363636363635  C 26.6161858974359 13.636363636363635  26.08433493589744 13.86126893939394  25.635216346153847 14.311079545454547  C 25.186097756410255 14.760890151515143  24.96153846153846 15.293560606060602  24.96153846153846 15.909090909090912  C 24.96153846153846 16.52462121212121  25.186097756410255 17.057291666666664  25.635216346153847 17.50710227272727  C 26.08433493589744 17.956912878787882  26.6161858974359 18.181818181818183  27.230769230769234 18.181818181818183  L 31.769230769230766 18.181818181818183  L 31.769230769230766 22.72727272727273  C 31.769230769230766 23.342803030303028  31.993790064102562 23.87547348484848  32.44290865384615 24.32528409090909  C 32.892027243589745 24.775094696969695  33.42387820512821 25  34.03846153846153 25  C 34.653044871794876 25  35.184895833333336 24.775094696969695  35.63401442307692 24.32528409090909  C 36.08313301282051 23.87547348484848  36.30769230769231 23.342803030303028  36.30769230769231 22.72727272727273  L 36.30769230769231 18.181818181818183  L 40.84615384615385 18.181818181818183  C 41.46073717948718 18.181818181818183  41.99258814102565 17.956912878787882  42.44170673076923 17.50710227272727  Z M 21.36268028846154 42.24076704545455  C 22.249098557692307 43.12855113636363  22.692307692307693 44.19981060606061  22.692307692307693 45.45454545454545  C 22.692307692307693 46.7092803030303  22.249098557692307 47.78053977272727  21.36268028846154 48.66832386363637  C 20.476262019230766 49.55610795454545  19.406650641025642 50  18.153846153846153 50  C 16.901041666666668 50  15.831430288461542 49.55610795454545  14.945012019230768 48.66832386363637  C 14.05859375 47.78053977272727  13.615384615384617 46.7092803030303  13.615384615384617 45.45454545454545  C 13.615384615384617 44.19981060606061  14.05859375 43.12855113636363  14.945012019230768 42.24076704545455  C 15.831430288461542 41.35298295454545  16.901041666666668 40.90909090909091  18.153846153846153 40.90909090909091  C 19.406650641025642 40.90909090909091  20.476262019230766 41.35298295454545  21.36268028846154 42.24076704545455  Z M 53.13191105769231 42.24076704545455  C 54.01832932692308 43.12855113636363  54.46153846153847 44.19981060606061  54.46153846153847 45.45454545454545  C 54.46153846153847 46.7092803030303  54.01832932692308 47.78053977272727  53.13191105769231 48.66832386363637  C 52.24549278846153 49.55610795454545  51.175881410256416 50  49.92307692307692 50  C 48.67027243589744 50  47.60066105769231 49.55610795454545  46.71424278846153 48.66832386363637  C 45.82782451923077 47.78053977272727  45.38461538461539 46.7092803030303  45.38461538461539 45.45454545454545  C 45.38461538461539 44.19981060606061  45.82782451923077 43.12855113636363  46.71424278846153 42.24076704545455  C 47.60066105769231 41.35298295454545  48.67027243589744 40.90909090909091  49.92307692307692 40.90909090909091  C 51.175881410256416 40.90909090909091  52.24549278846153 41.35298295454545  53.13191105769231 42.24076704545455  Z M 58.32632211538461 5.220170454545453  C 58.77544070512821 5.669981060606055  59 6.2026515151515085  59 6.8181818181818175  L 59 25  C 59 25.568181818181817  58.81089743589744 26.071259469696972  58.43269230769231 26.50923295454546  C 58.05448717948718 26.947206439393934  57.56991185897437 27.20170454545454  56.97896634615385 27.27272727272727  L 19.962139423076923 31.605113636363637  C 19.985777243589745 31.770833333333325  20.03896233974359 32.02533143939393  20.12169471153846 32.36860795454546  C 20.204427083333336 32.71188446969696  20.275340544871796 33.02556818181818  20.334435096153847 33.30965909090909  C 20.3935296474359 33.59375  20.423076923076923 33.854166666666664  20.423076923076923 34.09090909090909  C 20.423076923076923 34.46969696969696  20.139423076923077 35.22727272727273  19.572115384615383 36  L 52.19230769230769 36  C 52.80689102564103 36.36363636363637  53.33874198717949 36.588541666666664  53.78786057692308 37.03835227272727  C 54.236979166666664 37.488162878787875  54.46153846153847 38.020833333333336  54.46153846153847 38.63636363636363  C 54.46153846153847 39.25189393939393  54.236979166666664 39.78456439393939  53.78786057692308 40.234375  C 53.33874198717949 40.68418560606061  52.80689102564103 40.90909090909091  52.19230769230769 41  L 15.884615384615383 41  C 15.270032051282053 40.90909090909091  14.73818108974359 40.68418560606061  14.2890625 40.234375  C 13.83994391025641 39.78456439393939  13.615384615384617 39.25189393939393  13.615384615384617 38.63636363636363  C 13.615384615384617 38.30492424242424  13.745392628205128 37.83735795454545  14.005408653846153 37.23366477272727  C 14.26542467948718 36.62997159090909  14.614082532051283 35.925662878787875  15.051382211538462 35.12073863636363  C 15.48868189102564 34.31581439393939  15.730969551282053 33.86600378787878  15.778245192307693 33.77130681818182  L 9.502403846153847 4.545454545454547  L 2.269230769230769 4.545454545454547  C 1.6546474358974361 4.545454545454547  1.1227964743589745 4.320549242424238  0.6736778846153846 3.8707386363636354  C 0.22455929487179488 3.4209280303030276  0 2.8882575757575744  0 2.2727272727272707  C 0 1.6571969696969668  0.22455929487179488 1.1245265151515083  0.6736778846153846 0.6747159090909116  C 1.1227964743589745 0.22490530303029832  1.6546474358974361 0  2.269230769230769 0  L 11.346153846153847 0  C 11.724358974358974 0  12.061197916666668 0.07694128787878451  12.356670673076923 0.23082386363636465  C 12.65214342948718 0.3847064393939392  12.888521634615383 0.5681818181818177  13.065805288461538 0.78125  C 13.243088942307692 0.9943181818181823  13.396734775641026 1.2843276515151436  13.526742788461538 1.6512784090909116  C 13.656750801282055 2.018229166666663  13.74539262820513 2.3319128787878727  13.79266826923077 2.5923295454545467  C 13.839943910256412 2.85274621212121  13.904947916666668 3.2019412878787845  13.987680288461538 3.6399147727272707  C 14.070412660256412 4.077888257575757  14.123597756410257 4.379734848484845  14.147235576923077 5  L 56.73076923076923 5  C 57.34535256410257 4.545454545454547  57.87720352564103 4.770359848484845  58.32632211538461 5.220170454545453  Z " fill-rule="evenodd" />
    </mask>
  </defs>
  <g transform="matrix(1 0 0 1 -158 -603 )">
    <path d="M 42.44170673076923 17.50710227272727  C 42.890825320512825 17.057291666666664  43.11538461538461 16.52462121212121  43.11538461538461 15.909090909090912  C 43.11538461538461 15.293560606060602  42.890825320512825 14.760890151515143  42.44170673076923 14.311079545454547  C 41.99258814102565 13.86126893939394  41.46073717948718 13.636363636363635  40.84615384615385 13.636363636363635  L 36.30769230769231 13.636363636363635  L 36.30769230769231 9.090909090909088  C 36.30769230769231 8.475378787878785  36.08313301282051 7.942708333333326  35.63401442307692 7.492897727272729  C 35.184895833333336 7.043087121212116  34.653044871794876 6.8181818181818175  34.03846153846153 6.8181818181818175  C 33.42387820512821 6.8181818181818175  32.892027243589745 7.043087121212116  32.44290865384615 7.492897727272729  C 31.993790064102562 7.942708333333326  31.769230769230766 8.475378787878785  31.769230769230766 9.090909090909088  L 31.769230769230766 13.636363636363635  L 27.230769230769234 13.636363636363635  C 26.6161858974359 13.636363636363635  26.08433493589744 13.86126893939394  25.635216346153847 14.311079545454547  C 25.186097756410255 14.760890151515143  24.96153846153846 15.293560606060602  24.96153846153846 15.909090909090912  C 24.96153846153846 16.52462121212121  25.186097756410255 17.057291666666664  25.635216346153847 17.50710227272727  C 26.08433493589744 17.956912878787882  26.6161858974359 18.181818181818183  27.230769230769234 18.181818181818183  L 31.769230769230766 18.181818181818183  L 31.769230769230766 22.72727272727273  C 31.769230769230766 23.342803030303028  31.993790064102562 23.87547348484848  32.44290865384615 24.32528409090909  C 32.892027243589745 24.775094696969695  33.42387820512821 25  34.03846153846153 25  C 34.653044871794876 25  35.184895833333336 24.775094696969695  35.63401442307692 24.32528409090909  C 36.08313301282051 23.87547348484848  36.30769230769231 23.342803030303028  36.30769230769231 22.72727272727273  L 36.30769230769231 18.181818181818183  L 40.84615384615385 18.181818181818183  C 41.46073717948718 18.181818181818183  41.99258814102565 17.956912878787882  42.44170673076923 17.50710227272727  Z M 21.36268028846154 42.24076704545455  C 22.249098557692307 43.12855113636363  22.692307692307693 44.19981060606061  22.692307692307693 45.45454545454545  C 22.692307692307693 46.7092803030303  22.249098557692307 47.78053977272727  21.36268028846154 48.66832386363637  C 20.476262019230766 49.55610795454545  19.406650641025642 50  18.153846153846153 50  C 16.901041666666668 50  15.831430288461542 49.55610795454545  14.945012019230768 48.66832386363637  C 14.05859375 47.78053977272727  13.615384615384617 46.7092803030303  13.615384615384617 45.45454545454545  C 13.615384615384617 44.19981060606061  14.05859375 43.12855113636363  14.945012019230768 42.24076704545455  C 15.831430288461542 41.35298295454545  16.901041666666668 40.90909090909091  18.153846153846153 40.90909090909091  C 19.406650641025642 40.90909090909091  20.476262019230766 41.35298295454545  21.36268028846154 42.24076704545455  Z M 53.13191105769231 42.24076704545455  C 54.01832932692308 43.12855113636363  54.46153846153847 44.19981060606061  54.46153846153847 45.45454545454545  C 54.46153846153847 46.7092803030303  54.01832932692308 47.78053977272727  53.13191105769231 48.66832386363637  C 52.24549278846153 49.55610795454545  51.175881410256416 50  49.92307692307692 50  C 48.67027243589744 50  47.60066105769231 49.55610795454545  46.71424278846153 48.66832386363637  C 45.82782451923077 47.78053977272727  45.38461538461539 46.7092803030303  45.38461538461539 45.45454545454545  C 45.38461538461539 44.19981060606061  45.82782451923077 43.12855113636363  46.71424278846153 42.24076704545455  C 47.60066105769231 41.35298295454545  48.67027243589744 40.90909090909091  49.92307692307692 40.90909090909091  C 51.175881410256416 40.90909090909091  52.24549278846153 41.35298295454545  53.13191105769231 42.24076704545455  Z M 58.32632211538461 5.220170454545453  C 58.77544070512821 5.669981060606055  59 6.2026515151515085  59 6.8181818181818175  L 59 25  C 59 25.568181818181817  58.81089743589744 26.071259469696972  58.43269230769231 26.50923295454546  C 58.05448717948718 26.947206439393934  57.56991185897437 27.20170454545454  56.97896634615385 27.27272727272727  L 19.962139423076923 31.605113636363637  C 19.985777243589745 31.770833333333325  20.03896233974359 32.02533143939393  20.12169471153846 32.36860795454546  C 20.204427083333336 32.71188446969696  20.275340544871796 33.02556818181818  20.334435096153847 33.30965909090909  C 20.3935296474359 33.59375  20.423076923076923 33.854166666666664  20.423076923076923 34.09090909090909  C 20.423076923076923 34.46969696969696  20.139423076923077 35.22727272727273  19.572115384615383 36  L 52.19230769230769 36  C 52.80689102564103 36.36363636363637  53.33874198717949 36.588541666666664  53.78786057692308 37.03835227272727  C 54.236979166666664 37.488162878787875  54.46153846153847 38.020833333333336  54.46153846153847 38.63636363636363  C 54.46153846153847 39.25189393939393  54.236979166666664 39.78456439393939  53.78786057692308 40.234375  C 53.33874198717949 40.68418560606061  52.80689102564103 40.90909090909091  52.19230769230769 41  L 15.884615384615383 41  C 15.270032051282053 40.90909090909091  14.73818108974359 40.68418560606061  14.2890625 40.234375  C 13.83994391025641 39.78456439393939  13.615384615384617 39.25189393939393  13.615384615384617 38.63636363636363  C 13.615384615384617 38.30492424242424  13.745392628205128 37.83735795454545  14.005408653846153 37.23366477272727  C 14.26542467948718 36.62997159090909  14.614082532051283 35.925662878787875  15.051382211538462 35.12073863636363  C 15.48868189102564 34.31581439393939  15.730969551282053 33.86600378787878  15.778245192307693 33.77130681818182  L 9.502403846153847 4.545454545454547  L 2.269230769230769 4.545454545454547  C 1.6546474358974361 4.545454545454547  1.1227964743589745 4.320549242424238  0.6736778846153846 3.8707386363636354  C 0.22455929487179488 3.4209280303030276  0 2.8882575757575744  0 2.2727272727272707  C 0 1.6571969696969668  0.22455929487179488 1.1245265151515083  0.6736778846153846 0.6747159090909116  C 1.1227964743589745 0.22490530303029832  1.6546474358974361 0  2.269230769230769 0  L 11.346153846153847 0  C 11.724358974358974 0  12.061197916666668 0.07694128787878451  12.356670673076923 0.23082386363636465  C 12.65214342948718 0.3847064393939392  12.888521634615383 0.5681818181818177  13.065805288461538 0.78125  C 13.243088942307692 0.9943181818181823  13.396734775641026 1.2843276515151436  13.526742788461538 1.6512784090909116  C 13.656750801282055 2.018229166666663  13.74539262820513 2.3319128787878727  13.79266826923077 2.5923295454545467  C 13.839943910256412 2.85274621212121  13.904947916666668 3.2019412878787845  13.987680288461538 3.6399147727272707  C 14.070412660256412 4.077888257575757  14.123597756410257 4.379734848484845  14.147235576923077 5  L 56.73076923076923 5  C 57.34535256410257 4.545454545454547  57.87720352564103 4.770359848484845  58.32632211538461 5.220170454545453  Z " fill-rule="nonzero" fill="rgba(255, 255, 255, 1)" stroke="none" transform="matrix(1 0 0 1 158 603 )" class="fill" />
    <path d="M 42.44170673076923 17.50710227272727  C 42.890825320512825 17.057291666666664  43.11538461538461 16.52462121212121  43.11538461538461 15.909090909090912  C 43.11538461538461 15.293560606060602  42.890825320512825 14.760890151515143  42.44170673076923 14.311079545454547  C 41.99258814102565 13.86126893939394  41.46073717948718 13.636363636363635  40.84615384615385 13.636363636363635  L 36.30769230769231 13.636363636363635  L 36.30769230769231 9.090909090909088  C 36.30769230769231 8.475378787878785  36.08313301282051 7.942708333333326  35.63401442307692 7.492897727272729  C 35.184895833333336 7.043087121212116  34.653044871794876 6.8181818181818175  34.03846153846153 6.8181818181818175  C 33.42387820512821 6.8181818181818175  32.892027243589745 7.043087121212116  32.44290865384615 7.492897727272729  C 31.993790064102562 7.942708333333326  31.769230769230766 8.475378787878785  31.769230769230766 9.090909090909088  L 31.769230769230766 13.636363636363635  L 27.230769230769234 13.636363636363635  C 26.6161858974359 13.636363636363635  26.08433493589744 13.86126893939394  25.635216346153847 14.311079545454547  C 25.186097756410255 14.760890151515143  24.96153846153846 15.293560606060602  24.96153846153846 15.909090909090912  C 24.96153846153846 16.52462121212121  25.186097756410255 17.057291666666664  25.635216346153847 17.50710227272727  C 26.08433493589744 17.956912878787882  26.6161858974359 18.181818181818183  27.230769230769234 18.181818181818183  L 31.769230769230766 18.181818181818183  L 31.769230769230766 22.72727272727273  C 31.769230769230766 23.342803030303028  31.993790064102562 23.87547348484848  32.44290865384615 24.32528409090909  C 32.892027243589745 24.775094696969695  33.42387820512821 25  34.03846153846153 25  C 34.653044871794876 25  35.184895833333336 24.775094696969695  35.63401442307692 24.32528409090909  C 36.08313301282051 23.87547348484848  36.30769230769231 23.342803030303028  36.30769230769231 22.72727272727273  L 36.30769230769231 18.181818181818183  L 40.84615384615385 18.181818181818183  C 41.46073717948718 18.181818181818183  41.99258814102565 17.956912878787882  42.44170673076923 17.50710227272727  Z " stroke-width="0" stroke-dasharray="0" stroke="rgba(255, 255, 255, 0)" fill="none" transform="matrix(1 0 0 1 158 603 )" class="stroke" mask="url(#Clip324)" />
    <path d="M 21.36268028846154 42.24076704545455  C 22.249098557692307 43.12855113636363  22.692307692307693 44.19981060606061  22.692307692307693 45.45454545454545  C 22.692307692307693 46.7092803030303  22.249098557692307 47.78053977272727  21.36268028846154 48.66832386363637  C 20.476262019230766 49.55610795454545  19.406650641025642 50  18.153846153846153 50  C 16.901041666666668 50  15.831430288461542 49.55610795454545  14.945012019230768 48.66832386363637  C 14.05859375 47.78053977272727  13.615384615384617 46.7092803030303  13.615384615384617 45.45454545454545  C 13.615384615384617 44.19981060606061  14.05859375 43.12855113636363  14.945012019230768 42.24076704545455  C 15.831430288461542 41.35298295454545  16.901041666666668 40.90909090909091  18.153846153846153 40.90909090909091  C 19.406650641025642 40.90909090909091  20.476262019230766 41.35298295454545  21.36268028846154 42.24076704545455  Z " stroke-width="0" stroke-dasharray="0" stroke="rgba(255, 255, 255, 0)" fill="none" transform="matrix(1 0 0 1 158 603 )" class="stroke" mask="url(#Clip324)" />
    <path d="M 53.13191105769231 42.24076704545455  C 54.01832932692308 43.12855113636363  54.46153846153847 44.19981060606061  54.46153846153847 45.45454545454545  C 54.46153846153847 46.7092803030303  54.01832932692308 47.78053977272727  53.13191105769231 48.66832386363637  C 52.24549278846153 49.55610795454545  51.175881410256416 50  49.92307692307692 50  C 48.67027243589744 50  47.60066105769231 49.55610795454545  46.71424278846153 48.66832386363637  C 45.82782451923077 47.78053977272727  45.38461538461539 46.7092803030303  45.38461538461539 45.45454545454545  C 45.38461538461539 44.19981060606061  45.82782451923077 43.12855113636363  46.71424278846153 42.24076704545455  C 47.60066105769231 41.35298295454545  48.67027243589744 40.90909090909091  49.92307692307692 40.90909090909091  C 51.175881410256416 40.90909090909091  52.24549278846153 41.35298295454545  53.13191105769231 42.24076704545455  Z " stroke-width="0" stroke-dasharray="0" stroke="rgba(255, 255, 255, 0)" fill="none" transform="matrix(1 0 0 1 158 603 )" class="stroke" mask="url(#Clip324)" />
    <path d="M 58.32632211538461 5.220170454545453  C 58.77544070512821 5.669981060606055  59 6.2026515151515085  59 6.8181818181818175  L 59 25  C 59 25.568181818181817  58.81089743589744 26.071259469696972  58.43269230769231 26.50923295454546  C 58.05448717948718 26.947206439393934  57.56991185897437 27.20170454545454  56.97896634615385 27.27272727272727  L 19.962139423076923 31.605113636363637  C 19.985777243589745 31.770833333333325  20.03896233974359 32.02533143939393  20.12169471153846 32.36860795454546  C 20.204427083333336 32.71188446969696  20.275340544871796 33.02556818181818  20.334435096153847 33.30965909090909  C 20.3935296474359 33.59375  20.423076923076923 33.854166666666664  20.423076923076923 34.09090909090909  C 20.423076923076923 34.46969696969696  20.139423076923077 35.22727272727273  19.572115384615383 36  L 52.19230769230769 36  C 52.80689102564103 36.36363636363637  53.33874198717949 36.588541666666664  53.78786057692308 37.03835227272727  C 54.236979166666664 37.488162878787875  54.46153846153847 38.020833333333336  54.46153846153847 38.63636363636363  C 54.46153846153847 39.25189393939393  54.236979166666664 39.78456439393939  53.78786057692308 40.234375  C 53.33874198717949 40.68418560606061  52.80689102564103 40.90909090909091  52.19230769230769 41  L 15.884615384615383 41  C 15.270032051282053 40.90909090909091  14.73818108974359 40.68418560606061  14.2890625 40.234375  C 13.83994391025641 39.78456439393939  13.615384615384617 39.25189393939393  13.615384615384617 38.63636363636363  C 13.615384615384617 38.30492424242424  13.745392628205128 37.83735795454545  14.005408653846153 37.23366477272727  C 14.26542467948718 36.62997159090909  14.614082532051283 35.925662878787875  15.051382211538462 35.12073863636363  C 15.48868189102564 34.31581439393939  15.730969551282053 33.86600378787878  15.778245192307693 33.77130681818182  L 9.502403846153847 4.545454545454547  L 2.269230769230769 4.545454545454547  C 1.6546474358974361 4.545454545454547  1.1227964743589745 4.320549242424238  0.6736778846153846 3.8707386363636354  C 0.22455929487179488 3.4209280303030276  0 2.8882575757575744  0 2.2727272727272707  C 0 1.6571969696969668  0.22455929487179488 1.1245265151515083  0.6736778846153846 0.6747159090909116  C 1.1227964743589745 0.22490530303029832  1.6546474358974361 0  2.269230769230769 0  L 11.346153846153847 0  C 11.724358974358974 0  12.061197916666668 0.07694128787878451  12.356670673076923 0.23082386363636465  C 12.65214342948718 0.3847064393939392  12.888521634615383 0.5681818181818177  13.065805288461538 0.78125  C 13.243088942307692 0.9943181818181823  13.396734775641026 1.2843276515151436  13.526742788461538 1.6512784090909116  C 13.656750801282055 2.018229166666663  13.74539262820513 2.3319128787878727  13.79266826923077 2.5923295454545467  C 13.839943910256412 2.85274621212121  13.904947916666668 3.2019412878787845  13.987680288461538 3.6399147727272707  C 14.070412660256412 4.077888257575757  14.123597756410257 4.379734848484845  14.147235576923077 5  L 56.73076923076923 5  C 57.34535256410257 4.545454545454547  57.87720352564103 4.770359848484845  58.32632211538461 5.220170454545453  Z " stroke-width="0" stroke-dasharray="0" stroke="rgba(255, 255, 255, 0)" fill="none" transform="matrix(1 0 0 1 158 603 )" class="stroke" mask="url(#Clip324)" />
  </g>
</svg>