<?xml version="1.0" encoding="utf-8"?>
<svg version="1.1" xmlns:xlink="http://www.w3.org/1999/xlink" width="41px" height="39px" xmlns="http://www.w3.org/2000/svg">
  <defs>
    <pattern id="BGPattern" patternUnits="userSpaceOnUse" alignment="0 0" imageRepeat="None" />
    <mask fill="white" id="Clip325">
      <path d="M 28.01502403846154 23.886578449905485  L 29.222355769230766 22.73156899810964  L 35.5546875 16.58790170132325  L 26.783052884615383 15.310018903591683  L 25.15685096153846 15.064272211720226  L 24.417668269230766 13.589792060491492  L 20 5.676748582230622  L 20 29.342155009451794  L 21.95372596153846 30.10396975425331  L 29.7890625 34.232514177693766  L 28.310697115384617 25.50850661625709  L 28.01502403846154 23.886578449905485  Z M 40.95072115384615 14.830812854442344  C 41.09855769230769 15.281348456206677  40.901442307692314 15.76874606175173  40.359375 16.293005671077506  L 31.415264423076923 24.99243856332703  L 33.53425480769231 37.27977315689981  C 33.61638621794872 37.82041587901701  33.567107371794876 38.242281033396345  33.38641826923077 38.545368620037806  C 33.20572916666667 38.848456206679266  32.926482371794876 39  32.54867788461539 39  C 32.26943108974359 39  31.940905448717952 38.901701323251416  31.56310096153846 38.705103969754255  L 20.5 32.9054820415879  L 9.436899038461538 38.705103969754255  C 9.059094551282053 38.901701323251416  8.73056891025641 39  8.451322115384615 39  C 8.07351762820513 39  7.794270833333334 38.848456206679266  7.613581730769231 38.545368620037806  C 7.4328926282051295 38.242281033396345  7.383613782051282 37.82041587901701  7.465745192307692 37.27977315689981  L 9.584735576923077 24.99243856332703  L 0.615985576923077 16.293005671077506  C 0.09034455128205124 15.76874606175173  -0.09855769230769232 15.281348456206677  0.04927884615384616 14.830812854442344  C 0.19711538461538464 14.380277252678006  0.640625 14.097668557025836  1.3798076923076923 13.982986767485823  L 13.748798076923077 12.189035916824194  L 19.29266826923077 1.007561436672966  C 19.621193910256412 0.33585381222432054  20.02363782051282 0  20.5 0  C 20.9599358974359 0  21.362379807692307 0.33585381222432054  21.707331730769234 1.007561436672966  L 27.251201923076923 12.189035916824194  L 39.62019230769231 13.982986767485823  C 40.35937500000001 14.097668557025836  40.80288461538462 14.380277252678006  40.95072115384615 14.830812854442344  Z " fill-rule="evenodd" />
    </mask>
  </defs>
  <g transform="matrix(1 0 0 1 -187 -345 )">
    <path d="M 28.01502403846154 23.886578449905485  L 29.222355769230766 22.73156899810964  L 35.5546875 16.58790170132325  L 26.783052884615383 15.310018903591683  L 25.15685096153846 15.064272211720226  L 24.417668269230766 13.589792060491492  L 20 5.676748582230622  L 20 29.342155009451794  L 21.95372596153846 30.10396975425331  L 29.7890625 34.232514177693766  L 28.310697115384617 25.50850661625709  L 28.01502403846154 23.886578449905485  Z M 40.95072115384615 14.830812854442344  C 41.09855769230769 15.281348456206677  40.901442307692314 15.76874606175173  40.359375 16.293005671077506  L 31.415264423076923 24.99243856332703  L 33.53425480769231 37.27977315689981  C 33.61638621794872 37.82041587901701  33.567107371794876 38.242281033396345  33.38641826923077 38.545368620037806  C 33.20572916666667 38.848456206679266  32.926482371794876 39  32.54867788461539 39  C 32.26943108974359 39  31.940905448717952 38.901701323251416  31.56310096153846 38.705103969754255  L 20.5 32.9054820415879  L 9.436899038461538 38.705103969754255  C 9.059094551282053 38.901701323251416  8.73056891025641 39  8.451322115384615 39  C 8.07351762820513 39  7.794270833333334 38.848456206679266  7.613581730769231 38.545368620037806  C 7.4328926282051295 38.242281033396345  7.383613782051282 37.82041587901701  7.465745192307692 37.27977315689981  L 9.584735576923077 24.99243856332703  L 0.615985576923077 16.293005671077506  C 0.09034455128205124 15.76874606175173  -0.09855769230769232 15.281348456206677  0.04927884615384616 14.830812854442344  C 0.19711538461538464 14.380277252678006  0.640625 14.097668557025836  1.3798076923076923 13.982986767485823  L 13.748798076923077 12.189035916824194  L 19.29266826923077 1.007561436672966  C 19.621193910256412 0.33585381222432054  20.02363782051282 0  20.5 0  C 20.9599358974359 0  21.362379807692307 0.33585381222432054  21.707331730769234 1.007561436672966  L 27.251201923076923 12.189035916824194  L 39.62019230769231 13.982986767485823  C 40.35937500000001 14.097668557025836  40.80288461538462 14.380277252678006  40.95072115384615 14.830812854442344  Z " fill-rule="nonzero" fill="rgba(128, 255, 255, 1)" stroke="none" transform="matrix(1 0 0 1 187 345 )" class="fill" />
    <path d="M 28.01502403846154 23.886578449905485  L 29.222355769230766 22.73156899810964  L 35.5546875 16.58790170132325  L 26.783052884615383 15.310018903591683  L 25.15685096153846 15.064272211720226  L 24.417668269230766 13.589792060491492  L 20 5.676748582230622  L 20 29.342155009451794  L 21.95372596153846 30.10396975425331  L 29.7890625 34.232514177693766  L 28.310697115384617 25.50850661625709  L 28.01502403846154 23.886578449905485  Z " stroke-width="0" stroke-dasharray="0" stroke="rgba(255, 255, 255, 0)" fill="none" transform="matrix(1 0 0 1 187 345 )" class="stroke" mask="url(#Clip325)" />
    <path d="M 40.95072115384615 14.830812854442344  C 41.09855769230769 15.281348456206677  40.901442307692314 15.76874606175173  40.359375 16.293005671077506  L 31.415264423076923 24.99243856332703  L 33.53425480769231 37.27977315689981  C 33.61638621794872 37.82041587901701  33.567107371794876 38.242281033396345  33.38641826923077 38.545368620037806  C 33.20572916666667 38.848456206679266  32.926482371794876 39  32.54867788461539 39  C 32.26943108974359 39  31.940905448717952 38.901701323251416  31.56310096153846 38.705103969754255  L 20.5 32.9054820415879  L 9.436899038461538 38.705103969754255  C 9.059094551282053 38.901701323251416  8.73056891025641 39  8.451322115384615 39  C 8.07351762820513 39  7.794270833333334 38.848456206679266  7.613581730769231 38.545368620037806  C 7.4328926282051295 38.242281033396345  7.383613782051282 37.82041587901701  7.465745192307692 37.27977315689981  L 9.584735576923077 24.99243856332703  L 0.615985576923077 16.293005671077506  C 0.09034455128205124 15.76874606175173  -0.09855769230769232 15.281348456206677  0.04927884615384616 14.830812854442344  C 0.19711538461538464 14.380277252678006  0.640625 14.097668557025836  1.3798076923076923 13.982986767485823  L 13.748798076923077 12.189035916824194  L 19.29266826923077 1.007561436672966  C 19.621193910256412 0.33585381222432054  20.02363782051282 0  20.5 0  C 20.9599358974359 0  21.362379807692307 0.33585381222432054  21.707331730769234 1.007561436672966  L 27.251201923076923 12.189035916824194  L 39.62019230769231 13.982986767485823  C 40.35937500000001 14.097668557025836  40.80288461538462 14.380277252678006  40.95072115384615 14.830812854442344  Z " stroke-width="0" stroke-dasharray="0" stroke="rgba(255, 255, 255, 0)" fill="none" transform="matrix(1 0 0 1 187 345 )" class="stroke" mask="url(#Clip325)" />
  </g>
</svg>