<?xml version="1.0" encoding="utf-8"?>
<svg version="1.1" xmlns:xlink="http://www.w3.org/1999/xlink" width="69px" height="70px" xmlns="http://www.w3.org/2000/svg">
  <defs>
    <pattern id="BGPattern" patternUnits="userSpaceOnUse" alignment="0 0" imageRepeat="None" />
    <mask fill="white" id="Clip326">
      <path d="M 16.474609375 24.26910299003322  C 17.158203125 23.438538205980063  17.5 22.43632336655592  17.5 21.262458471760798  C 17.5 20.088593576965668  17.158203125 19.086378737541526  16.474609375 18.25581395348837  C 15.791015625 17.425249169435215  14.966145833333334 17.009966777408636  14 17.009966777408636  C 13.033854166666668 17.009966777408636  12.208984375000002 17.425249169435215  11.525390625 18.25581395348837  C 10.841796875 19.086378737541526  10.5 20.088593576965668  10.5 21.262458471760798  C 10.5 22.43632336655592  10.841796875 23.438538205980063  11.525390625 24.26910299003322  C 12.208984375000002 25.099667774086377  13.033854166666668 25.51495016611296  14 25.51495016611296  C 14.966145833333334 25.51495016611296  15.791015625 25.099667774086377  16.474609375 24.26910299003322  Z M 26.974609374999996 24.26910299003322  C 27.658203125 23.438538205980063  28 22.43632336655592  28 21.262458471760798  C 28 20.088593576965668  27.658203125 19.086378737541526  26.974609374999996 18.25581395348837  C 26.291015625 17.425249169435215  25.466145833333336 17.009966777408636  24.5 17.009966777408636  C 23.533854166666668 17.009966777408636  22.708984375000004 17.425249169435215  22.025390625 18.25581395348837  C 21.341796875 19.086378737541526  21 20.088593576965668  21 21.262458471760798  C 21 22.43632336655592  21.341796875 23.438538205980063  22.025390625 24.26910299003322  C 22.708984375000004 25.099667774086377  23.533854166666668 25.51495016611296  24.5 25.51495016611296  C 25.466145833333336 25.51495016611296  26.291015625 25.099667774086377  26.974609374999996 24.26910299003322  Z M 37.474609375 24.26910299003322  C 38.158203125 23.438538205980063  38.5 22.43632336655592  38.5 21.262458471760798  C 38.5 20.088593576965668  38.158203125 19.086378737541526  37.474609375 18.25581395348837  C 36.791015625 17.425249169435215  35.966145833333336 17.009966777408636  35 17.009966777408636  C 34.03385416666667 17.009966777408636  33.208984375 17.425249169435215  32.525390625 18.25581395348837  C 31.841796875 19.086378737541526  31.500000000000004 20.088593576965668  31.500000000000004 21.262458471760798  C 31.500000000000004 22.43632336655592  31.841796875 23.438538205980063  32.525390625 24.26910299003322  C 33.208984375 25.099667774086377  34.03385416666667 25.51495016611296  35 25.51495016611296  C 35.966145833333336 25.51495016611296  36.791015625 25.099667774086377  37.474609375 24.26910299003322  Z M 45.71875 10.581395348837209  C 47.90625 13.84828349944629  49 17.408637873754152  49 21.262458471760798  C 49 25.116279069767444  47.90625 28.6766334440753  45.71875 31.943521594684388  C 43.53125 35.21040974529346  40.559895833333336 37.7906976744186  36.8046875 39.6843853820598  C 33.04947916666667 41.57807308970099  28.947916666666668 42.524916943521596  24.5 42.524916943521596  C 22.494791666666668 42.524916943521596  20.571614583333336 42.32558139534884  18.73046875 41.926910299003325  C 15.57682291666667 45.75858250276855  11.611979166666668 48.29457364341086  6.8359375 49.53488372093023  C 5.888020833333334 49.756367663344406  5.104166666666667 49.90033222591362  4.484375 49.966777408637874  C 4.265625 49.988925802879294  4.065104166666667 49.92248062015504  3.8828125 49.76744186046512  C 3.700520833333334 49.6124031007752  3.58203125 49.413067552602435  3.5273437499999996 49.16943521594684  C 3.4544270833333335 48.837209302325576  3.63671875 48.42746400885936  4.07421875 47.94019933554817  C 4.165364583333334 47.82945736434109  4.379557291666667 47.59136212624585  4.716796875 47.225913621262464  C 5.054036458333333 46.86046511627907  5.286458333333334 46.60022148394242  5.4140625 46.44518272425249  C 5.541666666666667 46.29014396456257  5.755859375 46.007751937984494  6.056640625 45.59800664451827  C 6.357421875 45.18826135105205  6.576171874999999 44.83942414174973  6.712890625 44.5514950166113  C 6.849609375 44.263565891472865  7.036458333333334 43.85382059800664  7.2734375 43.32225913621263  C 7.510416666666667 42.7906976744186  7.692708333333335 42.25913621262458  7.820312499999999 41.72757475083056  C 7.947916666666667 41.19601328903655  8.080078125 40.55924695459579  8.216796875 39.817275747508305  C 8.353515625 39.07530454042082  8.467447916666668 38.27242524916944  8.55859375 37.40863787375415  C 5.897135416666668 35.41528239202658  3.805338541666667 33.01771871539313  2.283203125 30.215946843853818  C 0.7610677083333333 27.414174972314502  0 24.429678848283498  0 21.262458471760798  C 0 17.408637873754152  1.09375 13.84828349944629  3.28125 10.581395348837209  C 5.468750000000001 7.314507198228121  8.440104166666666 4.73421926910299  12.1953125 2.8405315614617956  C 15.950520833333336 0.9468438538206003  20.052083333333336 0  24.5 0  C 28.947916666666668 0  33.04947916666667 0.9468438538206003  36.8046875 2.8405315614617956  C 40.559895833333336 4.73421926910299  43.53125 7.314507198228121  45.71875 10.581395348837209  Z " fill-rule="evenodd" />
    </mask>
  </defs>
  <g transform="matrix(1 0 0 1 -283 -593 )">
    <path d="M 16.474609375 24.26910299003322  C 17.158203125 23.438538205980063  17.5 22.43632336655592  17.5 21.262458471760798  C 17.5 20.088593576965668  17.158203125 19.086378737541526  16.474609375 18.25581395348837  C 15.791015625 17.425249169435215  14.966145833333334 17.009966777408636  14 17.009966777408636  C 13.033854166666668 17.009966777408636  12.208984375000002 17.425249169435215  11.525390625 18.25581395348837  C 10.841796875 19.086378737541526  10.5 20.088593576965668  10.5 21.262458471760798  C 10.5 22.43632336655592  10.841796875 23.438538205980063  11.525390625 24.26910299003322  C 12.208984375000002 25.099667774086377  13.033854166666668 25.51495016611296  14 25.51495016611296  C 14.966145833333334 25.51495016611296  15.791015625 25.099667774086377  16.474609375 24.26910299003322  Z M 26.974609374999996 24.26910299003322  C 27.658203125 23.438538205980063  28 22.43632336655592  28 21.262458471760798  C 28 20.088593576965668  27.658203125 19.086378737541526  26.974609374999996 18.25581395348837  C 26.291015625 17.425249169435215  25.466145833333336 17.009966777408636  24.5 17.009966777408636  C 23.533854166666668 17.009966777408636  22.708984375000004 17.425249169435215  22.025390625 18.25581395348837  C 21.341796875 19.086378737541526  21 20.088593576965668  21 21.262458471760798  C 21 22.43632336655592  21.341796875 23.438538205980063  22.025390625 24.26910299003322  C 22.708984375000004 25.099667774086377  23.533854166666668 25.51495016611296  24.5 25.51495016611296  C 25.466145833333336 25.51495016611296  26.291015625 25.099667774086377  26.974609374999996 24.26910299003322  Z M 37.474609375 24.26910299003322  C 38.158203125 23.438538205980063  38.5 22.43632336655592  38.5 21.262458471760798  C 38.5 20.088593576965668  38.158203125 19.086378737541526  37.474609375 18.25581395348837  C 36.791015625 17.425249169435215  35.966145833333336 17.009966777408636  35 17.009966777408636  C 34.03385416666667 17.009966777408636  33.208984375 17.425249169435215  32.525390625 18.25581395348837  C 31.841796875 19.086378737541526  31.500000000000004 20.088593576965668  31.500000000000004 21.262458471760798  C 31.500000000000004 22.43632336655592  31.841796875 23.438538205980063  32.525390625 24.26910299003322  C 33.208984375 25.099667774086377  34.03385416666667 25.51495016611296  35 25.51495016611296  C 35.966145833333336 25.51495016611296  36.791015625 25.099667774086377  37.474609375 24.26910299003322  Z M 45.71875 10.581395348837209  C 47.90625 13.84828349944629  49 17.408637873754152  49 21.262458471760798  C 49 25.116279069767444  47.90625 28.6766334440753  45.71875 31.943521594684388  C 43.53125 35.21040974529346  40.559895833333336 37.7906976744186  36.8046875 39.6843853820598  C 33.04947916666667 41.57807308970099  28.947916666666668 42.524916943521596  24.5 42.524916943521596  C 22.494791666666668 42.524916943521596  20.571614583333336 42.32558139534884  18.73046875 41.926910299003325  C 15.57682291666667 45.75858250276855  11.611979166666668 48.29457364341086  6.8359375 49.53488372093023  C 5.888020833333334 49.756367663344406  5.104166666666667 49.90033222591362  4.484375 49.966777408637874  C 4.265625 49.988925802879294  4.065104166666667 49.92248062015504  3.8828125 49.76744186046512  C 3.700520833333334 49.6124031007752  3.58203125 49.413067552602435  3.5273437499999996 49.16943521594684  C 3.4544270833333335 48.837209302325576  3.63671875 48.42746400885936  4.07421875 47.94019933554817  C 4.165364583333334 47.82945736434109  4.379557291666667 47.59136212624585  4.716796875 47.225913621262464  C 5.054036458333333 46.86046511627907  5.286458333333334 46.60022148394242  5.4140625 46.44518272425249  C 5.541666666666667 46.29014396456257  5.755859375 46.007751937984494  6.056640625 45.59800664451827  C 6.357421875 45.18826135105205  6.576171874999999 44.83942414174973  6.712890625 44.5514950166113  C 6.849609375 44.263565891472865  7.036458333333334 43.85382059800664  7.2734375 43.32225913621263  C 7.510416666666667 42.7906976744186  7.692708333333335 42.25913621262458  7.820312499999999 41.72757475083056  C 7.947916666666667 41.19601328903655  8.080078125 40.55924695459579  8.216796875 39.817275747508305  C 8.353515625 39.07530454042082  8.467447916666668 38.27242524916944  8.55859375 37.40863787375415  C 5.897135416666668 35.41528239202658  3.805338541666667 33.01771871539313  2.283203125 30.215946843853818  C 0.7610677083333333 27.414174972314502  0 24.429678848283498  0 21.262458471760798  C 0 17.408637873754152  1.09375 13.84828349944629  3.28125 10.581395348837209  C 5.468750000000001 7.314507198228121  8.440104166666666 4.73421926910299  12.1953125 2.8405315614617956  C 15.950520833333336 0.9468438538206003  20.052083333333336 0  24.5 0  C 28.947916666666668 0  33.04947916666667 0.9468438538206003  36.8046875 2.8405315614617956  C 40.559895833333336 4.73421926910299  43.53125 7.314507198228121  45.71875 10.581395348837209  Z " fill-rule="nonzero" fill="rgba(128, 255, 255, 0.996078431372549)" stroke="none" transform="matrix(1 0 0 1 293 603 )" class="fill" />
    <path d="M 16.474609375 24.26910299003322  C 17.158203125 23.438538205980063  17.5 22.43632336655592  17.5 21.262458471760798  C 17.5 20.088593576965668  17.158203125 19.086378737541526  16.474609375 18.25581395348837  C 15.791015625 17.425249169435215  14.966145833333334 17.009966777408636  14 17.009966777408636  C 13.033854166666668 17.009966777408636  12.208984375000002 17.425249169435215  11.525390625 18.25581395348837  C 10.841796875 19.086378737541526  10.5 20.088593576965668  10.5 21.262458471760798  C 10.5 22.43632336655592  10.841796875 23.438538205980063  11.525390625 24.26910299003322  C 12.208984375000002 25.099667774086377  13.033854166666668 25.51495016611296  14 25.51495016611296  C 14.966145833333334 25.51495016611296  15.791015625 25.099667774086377  16.474609375 24.26910299003322  Z " stroke-width="0" stroke-dasharray="0" stroke="rgba(153, 37, 190, 0)" fill="none" transform="matrix(1 0 0 1 293 603 )" class="stroke" mask="url(#Clip326)" />
    <path d="M 26.974609374999996 24.26910299003322  C 27.658203125 23.438538205980063  28 22.43632336655592  28 21.262458471760798  C 28 20.088593576965668  27.658203125 19.086378737541526  26.974609374999996 18.25581395348837  C 26.291015625 17.425249169435215  25.466145833333336 17.009966777408636  24.5 17.009966777408636  C 23.533854166666668 17.009966777408636  22.708984375000004 17.425249169435215  22.025390625 18.25581395348837  C 21.341796875 19.086378737541526  21 20.088593576965668  21 21.262458471760798  C 21 22.43632336655592  21.341796875 23.438538205980063  22.025390625 24.26910299003322  C 22.708984375000004 25.099667774086377  23.533854166666668 25.51495016611296  24.5 25.51495016611296  C 25.466145833333336 25.51495016611296  26.291015625 25.099667774086377  26.974609374999996 24.26910299003322  Z " stroke-width="0" stroke-dasharray="0" stroke="rgba(153, 37, 190, 0)" fill="none" transform="matrix(1 0 0 1 293 603 )" class="stroke" mask="url(#Clip326)" />
    <path d="M 37.474609375 24.26910299003322  C 38.158203125 23.438538205980063  38.5 22.43632336655592  38.5 21.262458471760798  C 38.5 20.088593576965668  38.158203125 19.086378737541526  37.474609375 18.25581395348837  C 36.791015625 17.425249169435215  35.966145833333336 17.009966777408636  35 17.009966777408636  C 34.03385416666667 17.009966777408636  33.208984375 17.425249169435215  32.525390625 18.25581395348837  C 31.841796875 19.086378737541526  31.500000000000004 20.088593576965668  31.500000000000004 21.262458471760798  C 31.500000000000004 22.43632336655592  31.841796875 23.438538205980063  32.525390625 24.26910299003322  C 33.208984375 25.099667774086377  34.03385416666667 25.51495016611296  35 25.51495016611296  C 35.966145833333336 25.51495016611296  36.791015625 25.099667774086377  37.474609375 24.26910299003322  Z " stroke-width="0" stroke-dasharray="0" stroke="rgba(153, 37, 190, 0)" fill="none" transform="matrix(1 0 0 1 293 603 )" class="stroke" mask="url(#Clip326)" />
    <path d="M 45.71875 10.581395348837209  C 47.90625 13.84828349944629  49 17.408637873754152  49 21.262458471760798  C 49 25.116279069767444  47.90625 28.6766334440753  45.71875 31.943521594684388  C 43.53125 35.21040974529346  40.559895833333336 37.7906976744186  36.8046875 39.6843853820598  C 33.04947916666667 41.57807308970099  28.947916666666668 42.524916943521596  24.5 42.524916943521596  C 22.494791666666668 42.524916943521596  20.571614583333336 42.32558139534884  18.73046875 41.926910299003325  C 15.57682291666667 45.75858250276855  11.611979166666668 48.29457364341086  6.8359375 49.53488372093023  C 5.888020833333334 49.756367663344406  5.104166666666667 49.90033222591362  4.484375 49.966777408637874  C 4.265625 49.988925802879294  4.065104166666667 49.92248062015504  3.8828125 49.76744186046512  C 3.700520833333334 49.6124031007752  3.58203125 49.413067552602435  3.5273437499999996 49.16943521594684  C 3.4544270833333335 48.837209302325576  3.63671875 48.42746400885936  4.07421875 47.94019933554817  C 4.165364583333334 47.82945736434109  4.379557291666667 47.59136212624585  4.716796875 47.225913621262464  C 5.054036458333333 46.86046511627907  5.286458333333334 46.60022148394242  5.4140625 46.44518272425249  C 5.541666666666667 46.29014396456257  5.755859375 46.007751937984494  6.056640625 45.59800664451827  C 6.357421875 45.18826135105205  6.576171874999999 44.83942414174973  6.712890625 44.5514950166113  C 6.849609375 44.263565891472865  7.036458333333334 43.85382059800664  7.2734375 43.32225913621263  C 7.510416666666667 42.7906976744186  7.692708333333335 42.25913621262458  7.820312499999999 41.72757475083056  C 7.947916666666667 41.19601328903655  8.080078125 40.55924695459579  8.216796875 39.817275747508305  C 8.353515625 39.07530454042082  8.467447916666668 38.27242524916944  8.55859375 37.40863787375415  C 5.897135416666668 35.41528239202658  3.805338541666667 33.01771871539313  2.283203125 30.215946843853818  C 0.7610677083333333 27.414174972314502  0 24.429678848283498  0 21.262458471760798  C 0 17.408637873754152  1.09375 13.84828349944629  3.28125 10.581395348837209  C 5.468750000000001 7.314507198228121  8.440104166666666 4.73421926910299  12.1953125 2.8405315614617956  C 15.950520833333336 0.9468438538206003  20.052083333333336 0  24.5 0  C 28.947916666666668 0  33.04947916666667 0.9468438538206003  36.8046875 2.8405315614617956  C 40.559895833333336 4.73421926910299  43.53125 7.314507198228121  45.71875 10.581395348837209  Z " stroke-width="0" stroke-dasharray="0" stroke="rgba(153, 37, 190, 0)" fill="none" transform="matrix(1 0 0 1 293 603 )" class="stroke" mask="url(#Clip326)" />
  </g>
  <style>svg { filter: drop-shadow(0px 0px 5px rgba(85, 85, 85, 0.3137254901960784)); }</style>
</svg>