<?xml version="1.0" encoding="utf-8"?>
<svg version="1.1" xmlns:xlink="http://www.w3.org/1999/xlink" width="40px" height="45px" xmlns="http://www.w3.org/2000/svg">
  <defs>
    <pattern id="BGPattern" patternUnits="userSpaceOnUse" alignment="0 0" imageRepeat="None" />
    <mask fill="white" id="Clip318">
      <path d="M 3.625 0  L 36.375 0  C 36.85416666666667 0  37.3125 0.08922670191672255  37.75 0.26768010575016765  C 38.4375 0.5254461335095773  38.984375 0.9319233311302028  39.390625 1.4871116986120292  C 39.796875 2.0423000660938504  40 2.6569729015201555  40 3.3311302048909437  L 40 41.66886979510905  C 40 42.343027098479844  39.796875 42.95769993390614  39.390625 43.512888301387974  C 38.984375 44.0680766688698  38.4375 44.47455386649041  37.75 44.732319894249834  C 37.35416666666667 44.890945142101785  36.895833333333336 44.970257766027764  36.375 44.970257766027764  C 35.375 44.970257766027764  34.51041666666667 44.653007270323855  33.78125 44.018506278916064  L 20 31.407799074686054  L 6.21875 44.018506278916064  C 5.46875 44.672835426305355  4.604166666666667 45  3.625 45  C 3.145833333333333 45  2.6875 44.91077329808328  2.25 44.732319894249834  C 1.5625 44.47455386649041  1.015625 44.0680766688698  0.609375 43.512888301387974  C 0.203125 42.95769993390614  0 42.343027098479844  0 41.66886979510905  L 0 3.3311302048909437  C 0 2.6569729015201555  0.203125 2.0423000660938504  0.609375 1.4871116986120292  C 1.015625 0.9319233311302028  1.5625 0.5254461335095773  2.25 0.26768010575016765  C 2.6875 0.08922670191672255  3.145833333333333 0  3.625 0  Z " fill-rule="evenodd" />
    </mask>
  </defs>
  <g transform="matrix(1 0 0 1 0 -25 )">
    <path d="M 3.625 0  L 36.375 0  C 36.85416666666667 0  37.3125 0.08922670191672255  37.75 0.26768010575016765  C 38.4375 0.5254461335095773  38.984375 0.9319233311302028  39.390625 1.4871116986120292  C 39.796875 2.0423000660938504  40 2.6569729015201555  40 3.3311302048909437  L 40 41.66886979510905  C 40 42.343027098479844  39.796875 42.95769993390614  39.390625 43.512888301387974  C 38.984375 44.0680766688698  38.4375 44.47455386649041  37.75 44.732319894249834  C 37.35416666666667 44.890945142101785  36.895833333333336 44.970257766027764  36.375 44.970257766027764  C 35.375 44.970257766027764  34.51041666666667 44.653007270323855  33.78125 44.018506278916064  L 20 31.407799074686054  L 6.21875 44.018506278916064  C 5.46875 44.672835426305355  4.604166666666667 45  3.625 45  C 3.145833333333333 45  2.6875 44.91077329808328  2.25 44.732319894249834  C 1.5625 44.47455386649041  1.015625 44.0680766688698  0.609375 43.512888301387974  C 0.203125 42.95769993390614  0 42.343027098479844  0 41.66886979510905  L 0 3.3311302048909437  C 0 2.6569729015201555  0.203125 2.0423000660938504  0.609375 1.4871116986120292  C 1.015625 0.9319233311302028  1.5625 0.5254461335095773  2.25 0.26768010575016765  C 2.6875 0.08922670191672255  3.145833333333333 0  3.625 0  Z " fill-rule="nonzero" fill="rgba(128, 255, 255, 1)" stroke="none" transform="matrix(1 0 0 1 0 25 )" class="fill" />
    <path d="M 3.625 0  L 36.375 0  C 36.85416666666667 0  37.3125 0.08922670191672255  37.75 0.26768010575016765  C 38.4375 0.5254461335095773  38.984375 0.9319233311302028  39.390625 1.4871116986120292  C 39.796875 2.0423000660938504  40 2.6569729015201555  40 3.3311302048909437  L 40 41.66886979510905  C 40 42.343027098479844  39.796875 42.95769993390614  39.390625 43.512888301387974  C 38.984375 44.0680766688698  38.4375 44.47455386649041  37.75 44.732319894249834  C 37.35416666666667 44.890945142101785  36.895833333333336 44.970257766027764  36.375 44.970257766027764  C 35.375 44.970257766027764  34.51041666666667 44.653007270323855  33.78125 44.018506278916064  L 20 31.407799074686054  L 6.21875 44.018506278916064  C 5.46875 44.672835426305355  4.604166666666667 45  3.625 45  C 3.145833333333333 45  2.6875 44.91077329808328  2.25 44.732319894249834  C 1.5625 44.47455386649041  1.015625 44.0680766688698  0.609375 43.512888301387974  C 0.203125 42.95769993390614  0 42.343027098479844  0 41.66886979510905  L 0 3.3311302048909437  C 0 2.6569729015201555  0.203125 2.0423000660938504  0.609375 1.4871116986120292  C 1.015625 0.9319233311302028  1.5625 0.5254461335095773  2.25 0.26768010575016765  C 2.6875 0.08922670191672255  3.145833333333333 0  3.625 0  Z " stroke-width="0" stroke-dasharray="0" stroke="rgba(255, 255, 255, 0)" fill="none" transform="matrix(1 0 0 1 0 25 )" class="stroke" mask="url(#Clip318)" />
  </g>
</svg>