<?xml version="1.0" encoding="utf-8"?>
<svg version="1.1" xmlns:xlink="http://www.w3.org/1999/xlink" width="60px" height="61px" xmlns="http://www.w3.org/2000/svg">
  <defs>
    <pattern id="BGPattern" patternUnits="userSpaceOnUse" alignment="0 0" imageRepeat="None" />
    <mask fill="white" id="Clip319">
      <path d="M 13.448660714285714 19.90066445182724  C 14.006696428571427 19.219601328903654  14.285714285714286 18.397785160575857  14.285714285714286 17.435215946843854  C 14.285714285714286 16.472646733111848  14.006696428571427 15.650830564784052  13.448660714285714 14.969767441860464  C 12.890625 14.288704318936876  12.217261904761905 13.948172757475081  11.428571428571427 13.948172757475081  C 10.639880952380953 13.948172757475081  9.966517857142858 14.288704318936876  9.408482142857142 14.969767441860464  C 8.850446428571429 15.650830564784052  8.571428571428571 16.472646733111848  8.571428571428571 17.435215946843854  C 8.571428571428571 18.397785160575857  8.850446428571429 19.219601328903654  9.408482142857142 19.90066445182724  C 9.966517857142858 20.58172757475083  10.639880952380953 20.922259136212627  11.428571428571427 20.922259136212627  C 12.217261904761905 20.922259136212627  12.890625 20.58172757475083  13.448660714285714 19.90066445182724  Z M 22.020089285714285 19.90066445182724  C 22.578125 19.219601328903654  22.857142857142854 18.397785160575857  22.857142857142854 17.435215946843854  C 22.857142857142854 16.472646733111848  22.578125 15.650830564784052  22.020089285714285 14.969767441860464  C 21.462053571428573 14.288704318936876  20.788690476190478 13.948172757475081  20 13.948172757475081  C 19.211309523809526 13.948172757475081  18.53794642857143 14.288704318936876  17.979910714285715 14.969767441860464  C 17.421875 15.650830564784052  17.142857142857142 16.472646733111848  17.142857142857142 17.435215946843854  C 17.142857142857142 18.397785160575857  17.421875 19.219601328903654  17.979910714285715 19.90066445182724  C 18.53794642857143 20.58172757475083  19.211309523809526 20.922259136212627  20 20.922259136212627  C 20.788690476190478 20.922259136212627  21.462053571428573 20.58172757475083  22.020089285714285 19.90066445182724  Z M 30.591517857142854 19.90066445182724  C 31.149553571428573 19.219601328903654  31.428571428571427 18.397785160575857  31.428571428571427 17.435215946843854  C 31.428571428571427 16.472646733111848  31.149553571428573 15.650830564784052  30.591517857142854 14.969767441860464  C 30.033482142857146 14.288704318936876  29.36011904761905 13.948172757475081  28.571428571428573 13.948172757475081  C 27.7827380952381 13.948172757475081  27.109375 14.288704318936876  26.551339285714285 14.969767441860464  C 25.993303571428573 15.650830564784052  25.714285714285715 16.472646733111848  25.714285714285715 17.435215946843854  C 25.714285714285715 18.397785160575857  25.993303571428573 19.219601328903654  26.551339285714285 19.90066445182724  C 27.109375 20.58172757475083  27.7827380952381 20.922259136212627  28.571428571428573 20.922259136212627  C 29.36011904761905 20.922259136212627  30.033482142857146 20.58172757475083  30.591517857142854 19.90066445182724  Z M 37.32142857142857 8.67674418604651  C 39.107142857142854 11.355592469545957  40 14.275083056478405  40 17.435215946843854  C 40 20.595348837209304  39.107142857142854 23.514839424141748  37.32142857142857 26.193687707641196  C 35.535714285714285 28.87253599114064  33.11011904761905 30.988372093023255  30.044642857142854 32.54119601328904  C 26.97916666666667 34.09401993355482  23.63095238095238 34.87043189368771  20 34.87043189368771  C 18.36309523809524 34.87043189368771  16.793154761904766 34.70697674418605  15.290178571428573 34.38006644518273  C 12.715773809523812 37.52203765227021  9.479166666666668 39.6015503875969  5.580357142857143 40.61860465116279  C 4.8065476190476195 40.800221483942416  4.166666666666667 40.91827242524917  3.6607142857142856 40.97275747508306  C 3.4821428571428568 40.99091915836102  3.3184523809523814 40.93643410852713  3.1696428571428568 40.8093023255814  C 3.020833333333334 40.68217054263566  2.9241071428571432 40.518715393133995  2.8794642857142856 40.31893687707641  C 2.8199404761904763 40.04651162790697  2.96875 39.710520487264674  3.3258928571428568 39.310963455149505  C 3.400297619047619 39.22015503875969  3.5751488095238098 39.024916943521596  3.8504464285714284 38.725249169435216  C 4.1257440476190474 38.425581395348836  4.315476190476191 38.21218161683278  4.419642857142857 38.08504983388704  C 4.523809523809525 37.95791805094131  4.698660714285714 37.72635658914729  4.944196428571429 37.39036544850499  C 5.189732142857143 37.05437430786268  5.368303571428571 36.76832779623478  5.4799107142857135 36.53222591362126  C 5.591517857142857 36.29612403100775  5.7440476190476195 35.96013289036545  5.9375 35.524252491694355  C 6.130952380952381 35.08837209302325  6.279761904761906 34.65249169435216  6.383928571428571 34.21661129568106  C 6.488095238095238 33.78073089700997  6.595982142857143 33.25858250276855  6.7075892857142865 32.65016611295681  C 6.819196428571429 32.041749723145074  6.912202380952381 31.383388704318936  6.986607142857143 30.675083056478407  C 4.813988095238096 29.040531561461798  3.1063988095238098 27.074529346622366  1.8638392857142858 24.77707641196013  C 0.6212797619047619 22.479623477297892  0 20.03233665559247  0 17.435215946843854  C 0 14.275083056478405  0.8928571428571429 11.355592469545957  2.6785714285714284 8.67674418604651  C 4.464285714285715 5.997895902547059  6.8898809523809526 3.882059800664452  9.955357142857142 2.3292358803986724  C 13.020833333333336 0.7764119601328923  16.36904761904762 0  20 0  C 23.63095238095238 0  26.97916666666667 0.7764119601328923  30.044642857142854 2.3292358803986724  C 33.11011904761905 3.882059800664452  35.535714285714285 5.997895902547059  37.32142857142857 8.67674418604651  Z " fill-rule="evenodd" />
    </mask>
  </defs>
  <g transform="matrix(1 0 0 1 -236 -467 )">
    <path d="M 13.448660714285714 19.90066445182724  C 14.006696428571427 19.219601328903654  14.285714285714286 18.397785160575857  14.285714285714286 17.435215946843854  C 14.285714285714286 16.472646733111848  14.006696428571427 15.650830564784052  13.448660714285714 14.969767441860464  C 12.890625 14.288704318936876  12.217261904761905 13.948172757475081  11.428571428571427 13.948172757475081  C 10.639880952380953 13.948172757475081  9.966517857142858 14.288704318936876  9.408482142857142 14.969767441860464  C 8.850446428571429 15.650830564784052  8.571428571428571 16.472646733111848  8.571428571428571 17.435215946843854  C 8.571428571428571 18.397785160575857  8.850446428571429 19.219601328903654  9.408482142857142 19.90066445182724  C 9.966517857142858 20.58172757475083  10.639880952380953 20.922259136212627  11.428571428571427 20.922259136212627  C 12.217261904761905 20.922259136212627  12.890625 20.58172757475083  13.448660714285714 19.90066445182724  Z M 22.020089285714285 19.90066445182724  C 22.578125 19.219601328903654  22.857142857142854 18.397785160575857  22.857142857142854 17.435215946843854  C 22.857142857142854 16.472646733111848  22.578125 15.650830564784052  22.020089285714285 14.969767441860464  C 21.462053571428573 14.288704318936876  20.788690476190478 13.948172757475081  20 13.948172757475081  C 19.211309523809526 13.948172757475081  18.53794642857143 14.288704318936876  17.979910714285715 14.969767441860464  C 17.421875 15.650830564784052  17.142857142857142 16.472646733111848  17.142857142857142 17.435215946843854  C 17.142857142857142 18.397785160575857  17.421875 19.219601328903654  17.979910714285715 19.90066445182724  C 18.53794642857143 20.58172757475083  19.211309523809526 20.922259136212627  20 20.922259136212627  C 20.788690476190478 20.922259136212627  21.462053571428573 20.58172757475083  22.020089285714285 19.90066445182724  Z M 30.591517857142854 19.90066445182724  C 31.149553571428573 19.219601328903654  31.428571428571427 18.397785160575857  31.428571428571427 17.435215946843854  C 31.428571428571427 16.472646733111848  31.149553571428573 15.650830564784052  30.591517857142854 14.969767441860464  C 30.033482142857146 14.288704318936876  29.36011904761905 13.948172757475081  28.571428571428573 13.948172757475081  C 27.7827380952381 13.948172757475081  27.109375 14.288704318936876  26.551339285714285 14.969767441860464  C 25.993303571428573 15.650830564784052  25.714285714285715 16.472646733111848  25.714285714285715 17.435215946843854  C 25.714285714285715 18.397785160575857  25.993303571428573 19.219601328903654  26.551339285714285 19.90066445182724  C 27.109375 20.58172757475083  27.7827380952381 20.922259136212627  28.571428571428573 20.922259136212627  C 29.36011904761905 20.922259136212627  30.033482142857146 20.58172757475083  30.591517857142854 19.90066445182724  Z M 37.32142857142857 8.67674418604651  C 39.107142857142854 11.355592469545957  40 14.275083056478405  40 17.435215946843854  C 40 20.595348837209304  39.107142857142854 23.514839424141748  37.32142857142857 26.193687707641196  C 35.535714285714285 28.87253599114064  33.11011904761905 30.988372093023255  30.044642857142854 32.54119601328904  C 26.97916666666667 34.09401993355482  23.63095238095238 34.87043189368771  20 34.87043189368771  C 18.36309523809524 34.87043189368771  16.793154761904766 34.70697674418605  15.290178571428573 34.38006644518273  C 12.715773809523812 37.52203765227021  9.479166666666668 39.6015503875969  5.580357142857143 40.61860465116279  C 4.8065476190476195 40.800221483942416  4.166666666666667 40.91827242524917  3.6607142857142856 40.97275747508306  C 3.4821428571428568 40.99091915836102  3.3184523809523814 40.93643410852713  3.1696428571428568 40.8093023255814  C 3.020833333333334 40.68217054263566  2.9241071428571432 40.518715393133995  2.8794642857142856 40.31893687707641  C 2.8199404761904763 40.04651162790697  2.96875 39.710520487264674  3.3258928571428568 39.310963455149505  C 3.400297619047619 39.22015503875969  3.5751488095238098 39.024916943521596  3.8504464285714284 38.725249169435216  C 4.1257440476190474 38.425581395348836  4.315476190476191 38.21218161683278  4.419642857142857 38.08504983388704  C 4.523809523809525 37.95791805094131  4.698660714285714 37.72635658914729  4.944196428571429 37.39036544850499  C 5.189732142857143 37.05437430786268  5.368303571428571 36.76832779623478  5.4799107142857135 36.53222591362126  C 5.591517857142857 36.29612403100775  5.7440476190476195 35.96013289036545  5.9375 35.524252491694355  C 6.130952380952381 35.08837209302325  6.279761904761906 34.65249169435216  6.383928571428571 34.21661129568106  C 6.488095238095238 33.78073089700997  6.595982142857143 33.25858250276855  6.7075892857142865 32.65016611295681  C 6.819196428571429 32.041749723145074  6.912202380952381 31.383388704318936  6.986607142857143 30.675083056478407  C 4.813988095238096 29.040531561461798  3.1063988095238098 27.074529346622366  1.8638392857142858 24.77707641196013  C 0.6212797619047619 22.479623477297892  0 20.03233665559247  0 17.435215946843854  C 0 14.275083056478405  0.8928571428571429 11.355592469545957  2.6785714285714284 8.67674418604651  C 4.464285714285715 5.997895902547059  6.8898809523809526 3.882059800664452  9.955357142857142 2.3292358803986724  C 13.020833333333336 0.7764119601328923  16.36904761904762 0  20 0  C 23.63095238095238 0  26.97916666666667 0.7764119601328923  30.044642857142854 2.3292358803986724  C 33.11011904761905 3.882059800664452  35.535714285714285 5.997895902547059  37.32142857142857 8.67674418604651  Z " fill-rule="nonzero" fill="rgba(128, 255, 255, 0.996078431372549)" stroke="none" transform="matrix(1 0 0 1 246 477 )" class="fill" />
    <path d="M 13.448660714285714 19.90066445182724  C 14.006696428571427 19.219601328903654  14.285714285714286 18.397785160575857  14.285714285714286 17.435215946843854  C 14.285714285714286 16.472646733111848  14.006696428571427 15.650830564784052  13.448660714285714 14.969767441860464  C 12.890625 14.288704318936876  12.217261904761905 13.948172757475081  11.428571428571427 13.948172757475081  C 10.639880952380953 13.948172757475081  9.966517857142858 14.288704318936876  9.408482142857142 14.969767441860464  C 8.850446428571429 15.650830564784052  8.571428571428571 16.472646733111848  8.571428571428571 17.435215946843854  C 8.571428571428571 18.397785160575857  8.850446428571429 19.219601328903654  9.408482142857142 19.90066445182724  C 9.966517857142858 20.58172757475083  10.639880952380953 20.922259136212627  11.428571428571427 20.922259136212627  C 12.217261904761905 20.922259136212627  12.890625 20.58172757475083  13.448660714285714 19.90066445182724  Z " stroke-width="0" stroke-dasharray="0" stroke="rgba(153, 37, 190, 0)" fill="none" transform="matrix(1 0 0 1 246 477 )" class="stroke" mask="url(#Clip319)" />
    <path d="M 22.020089285714285 19.90066445182724  C 22.578125 19.219601328903654  22.857142857142854 18.397785160575857  22.857142857142854 17.435215946843854  C 22.857142857142854 16.472646733111848  22.578125 15.650830564784052  22.020089285714285 14.969767441860464  C 21.462053571428573 14.288704318936876  20.788690476190478 13.948172757475081  20 13.948172757475081  C 19.211309523809526 13.948172757475081  18.53794642857143 14.288704318936876  17.979910714285715 14.969767441860464  C 17.421875 15.650830564784052  17.142857142857142 16.472646733111848  17.142857142857142 17.435215946843854  C 17.142857142857142 18.397785160575857  17.421875 19.219601328903654  17.979910714285715 19.90066445182724  C 18.53794642857143 20.58172757475083  19.211309523809526 20.922259136212627  20 20.922259136212627  C 20.788690476190478 20.922259136212627  21.462053571428573 20.58172757475083  22.020089285714285 19.90066445182724  Z " stroke-width="0" stroke-dasharray="0" stroke="rgba(153, 37, 190, 0)" fill="none" transform="matrix(1 0 0 1 246 477 )" class="stroke" mask="url(#Clip319)" />
    <path d="M 30.591517857142854 19.90066445182724  C 31.149553571428573 19.219601328903654  31.428571428571427 18.397785160575857  31.428571428571427 17.435215946843854  C 31.428571428571427 16.472646733111848  31.149553571428573 15.650830564784052  30.591517857142854 14.969767441860464  C 30.033482142857146 14.288704318936876  29.36011904761905 13.948172757475081  28.571428571428573 13.948172757475081  C 27.7827380952381 13.948172757475081  27.109375 14.288704318936876  26.551339285714285 14.969767441860464  C 25.993303571428573 15.650830564784052  25.714285714285715 16.472646733111848  25.714285714285715 17.435215946843854  C 25.714285714285715 18.397785160575857  25.993303571428573 19.219601328903654  26.551339285714285 19.90066445182724  C 27.109375 20.58172757475083  27.7827380952381 20.922259136212627  28.571428571428573 20.922259136212627  C 29.36011904761905 20.922259136212627  30.033482142857146 20.58172757475083  30.591517857142854 19.90066445182724  Z " stroke-width="0" stroke-dasharray="0" stroke="rgba(153, 37, 190, 0)" fill="none" transform="matrix(1 0 0 1 246 477 )" class="stroke" mask="url(#Clip319)" />
    <path d="M 37.32142857142857 8.67674418604651  C 39.107142857142854 11.355592469545957  40 14.275083056478405  40 17.435215946843854  C 40 20.595348837209304  39.107142857142854 23.514839424141748  37.32142857142857 26.193687707641196  C 35.535714285714285 28.87253599114064  33.11011904761905 30.988372093023255  30.044642857142854 32.54119601328904  C 26.97916666666667 34.09401993355482  23.63095238095238 34.87043189368771  20 34.87043189368771  C 18.36309523809524 34.87043189368771  16.793154761904766 34.70697674418605  15.290178571428573 34.38006644518273  C 12.715773809523812 37.52203765227021  9.479166666666668 39.6015503875969  5.580357142857143 40.61860465116279  C 4.8065476190476195 40.800221483942416  4.166666666666667 40.91827242524917  3.6607142857142856 40.97275747508306  C 3.4821428571428568 40.99091915836102  3.3184523809523814 40.93643410852713  3.1696428571428568 40.8093023255814  C 3.020833333333334 40.68217054263566  2.9241071428571432 40.518715393133995  2.8794642857142856 40.31893687707641  C 2.8199404761904763 40.04651162790697  2.96875 39.710520487264674  3.3258928571428568 39.310963455149505  C 3.400297619047619 39.22015503875969  3.5751488095238098 39.024916943521596  3.8504464285714284 38.725249169435216  C 4.1257440476190474 38.425581395348836  4.315476190476191 38.21218161683278  4.419642857142857 38.08504983388704  C 4.523809523809525 37.95791805094131  4.698660714285714 37.72635658914729  4.944196428571429 37.39036544850499  C 5.189732142857143 37.05437430786268  5.368303571428571 36.76832779623478  5.4799107142857135 36.53222591362126  C 5.591517857142857 36.29612403100775  5.7440476190476195 35.96013289036545  5.9375 35.524252491694355  C 6.130952380952381 35.08837209302325  6.279761904761906 34.65249169435216  6.383928571428571 34.21661129568106  C 6.488095238095238 33.78073089700997  6.595982142857143 33.25858250276855  6.7075892857142865 32.65016611295681  C 6.819196428571429 32.041749723145074  6.912202380952381 31.383388704318936  6.986607142857143 30.675083056478407  C 4.813988095238096 29.040531561461798  3.1063988095238098 27.074529346622366  1.8638392857142858 24.77707641196013  C 0.6212797619047619 22.479623477297892  0 20.03233665559247  0 17.435215946843854  C 0 14.275083056478405  0.8928571428571429 11.355592469545957  2.6785714285714284 8.67674418604651  C 4.464285714285715 5.997895902547059  6.8898809523809526 3.882059800664452  9.955357142857142 2.3292358803986724  C 13.020833333333336 0.7764119601328923  16.36904761904762 0  20 0  C 23.63095238095238 0  26.97916666666667 0.7764119601328923  30.044642857142854 2.3292358803986724  C 33.11011904761905 3.882059800664452  35.535714285714285 5.997895902547059  37.32142857142857 8.67674418604651  Z " stroke-width="0" stroke-dasharray="0" stroke="rgba(153, 37, 190, 0)" fill="none" transform="matrix(1 0 0 1 246 477 )" class="stroke" mask="url(#Clip319)" />
  </g>
  <style>svg { filter: drop-shadow(0px 0px 5px rgba(85, 85, 85, 0.3137254901960784)); }</style>
</svg>