<?xml version="1.0" encoding="utf-8"?>
<svg version="1.1" xmlns:xlink="http://www.w3.org/1999/xlink" width="25px" height="15px" xmlns="http://www.w3.org/2000/svg">
  <defs>
    <pattern id="BGPattern" patternUnits="userSpaceOnUse" alignment="0 0" imageRepeat="None" />
    <mask fill="white" id="Clip320">
      <path d="M 13.568115234375 9.826171875  C 13.897705078125 9.087890625  14.0625 8.312499999999998  14.0625 7.5  C 14.0625 6.6875  13.897705078125 5.912109375  13.568115234375 5.173828125000001  C 13.238525390625 4.435546874999999  12.79296875 3.796874999999999  12.2314453125 3.2578124999999996  C 11.669921875000002 2.7187500000000004  11.004638671875002 2.2910156249999996  10.235595703125 1.9746093749999993  C 9.466552734375 1.6582031250000007  8.658854166666668 1.4999999999999996  7.8125 1.4999999999999996  C 6.966145833333334 1.4999999999999996  6.158447265625 1.6582031250000007  5.389404296875 1.9746093749999993  C 4.620361328125 2.2910156249999996  3.955078125 2.7187500000000004  3.3935546875 3.2578124999999996  C 2.83203125 3.796874999999999  2.386474609375 4.435546874999999  2.056884765625 5.173828125000001  C 1.727294921875 5.912109375  1.5625 6.6875  1.5625 7.5  C 1.5625 8.312499999999998  1.727294921875 9.087890625  2.056884765625 9.826171875  C 2.386474609375 10.564453125  2.83203125 11.203125  3.3935546875 11.7421875  C 3.955078125 12.28125  4.620361328125 12.708984375  5.389404296875 13.025390625  C 6.158447265625 13.341796875  6.966145833333334 13.5  7.8125 13.5  C 8.658854166666668 13.5  9.466552734375 13.341796875  10.235595703125 13.025390625  C 11.004638671875002 12.708984375  11.669921875000002 12.28125  12.2314453125 11.7421875  C 12.79296875 11.203125  13.238525390625 10.564453125  13.568115234375 9.826171875  Z M 22.943115234375 9.826171875  C 23.272705078125004 9.087890625  23.437500000000004 8.312499999999998  23.4375 7.5  C 23.437500000000004 6.6875  23.272705078125004 5.912109375  22.943115234375 5.173828125000001  C 22.613525390625004 4.435546874999999  22.167968750000004 3.796874999999999  21.6064453125 3.2578124999999996  C 21.044921875000004 2.7187500000000004  20.379638671875004 2.2910156249999996  19.610595703125 1.9746093749999993  C 18.841552734375 1.6582031250000007  18.033854166666668 1.4999999999999996  17.1875 1.4999999999999996  L 12.4755859375 1.4999999999999996  C 13.444010416666668 2.2031249999999996  14.211018880208334 3.0781249999999982  14.776611328125 4.125  C 15.342203776041668 5.171874999999999  15.625 6.296874999999998  15.625 7.5  C 15.625 8.703125  15.342203776041668 9.828124999999998  14.776611328125 10.875  C 14.211018880208334 11.921874999999998  13.444010416666668 12.796875  12.4755859375 13.5  L 17.1875 13.5  C 18.033854166666668 13.5  18.841552734375 13.341796875  19.610595703125 13.025390625  C 20.379638671875004 12.708984375  21.044921875000004 12.28125  21.6064453125 11.7421875  C 22.167968750000004 11.203125  22.613525390625004 10.564453125  22.943115234375 9.826171875  Z M 24.37744140625 4.587890625000001  C 24.79248046875 5.513671875  25 6.484374999999999  25 7.5  C 25 8.515624999999998  24.79248046875 9.486328125  24.37744140625 10.412109375  C 23.96240234375 11.337890625  23.406982421875 12.134765625  22.711181640625 12.802734375  C 22.015380859375 13.470703125  21.185302734375 14.00390625  20.220947265625 14.40234375  C 19.256591796875 14.80078125  18.245442708333336 15  17.1875 15  L 7.8125 15  C 6.754557291666667 15  5.743408203125001 14.80078125  4.779052734375 14.40234375  C 3.814697265625 14.00390625  2.9846191406250004 13.470703125  2.288818359375 12.802734375  C 1.593017578125 12.134765625  1.0375976562500002 11.337890625  0.62255859375 10.412109375  C 0.20751953125 9.486328125  0 8.515624999999998  0 7.5  C 0 6.484374999999999  0.20751953125 5.513671875  0.62255859375 4.587890625000001  C 1.0375976562500002 3.662109375  1.593017578125 2.8652343750000004  2.288818359375 2.197265625  C 2.9846191406250004 1.5292968749999996  3.814697265625 0.99609375  4.779052734375 0.5976562499999993  C 5.743408203125001 0.19921875000000033  6.754557291666667 0  7.8125 0  L 17.1875 0  C 18.245442708333336 0  19.256591796875 0.19921875000000033  20.220947265625 0.5976562499999993  C 21.185302734375 0.99609375  22.015380859375 1.5292968749999996  22.711181640625 2.197265625  C 23.406982421875 2.8652343750000004  23.96240234375 3.662109375  24.37744140625 4.587890625000001  Z " fill-rule="evenodd" />
    </mask>
  </defs>
  <g>
    <path d="M 13.568115234375 9.826171875  C 13.897705078125 9.087890625  14.0625 8.312499999999998  14.0625 7.5  C 14.0625 6.6875  13.897705078125 5.912109375  13.568115234375 5.173828125000001  C 13.238525390625 4.435546874999999  12.79296875 3.796874999999999  12.2314453125 3.2578124999999996  C 11.669921875000002 2.7187500000000004  11.004638671875002 2.2910156249999996  10.235595703125 1.9746093749999993  C 9.466552734375 1.6582031250000007  8.658854166666668 1.4999999999999996  7.8125 1.4999999999999996  C 6.966145833333334 1.4999999999999996  6.158447265625 1.6582031250000007  5.389404296875 1.9746093749999993  C 4.620361328125 2.2910156249999996  3.955078125 2.7187500000000004  3.3935546875 3.2578124999999996  C 2.83203125 3.796874999999999  2.386474609375 4.435546874999999  2.056884765625 5.173828125000001  C 1.727294921875 5.912109375  1.5625 6.6875  1.5625 7.5  C 1.5625 8.312499999999998  1.727294921875 9.087890625  2.056884765625 9.826171875  C 2.386474609375 10.564453125  2.83203125 11.203125  3.3935546875 11.7421875  C 3.955078125 12.28125  4.620361328125 12.708984375  5.389404296875 13.025390625  C 6.158447265625 13.341796875  6.966145833333334 13.5  7.8125 13.5  C 8.658854166666668 13.5  9.466552734375 13.341796875  10.235595703125 13.025390625  C 11.004638671875002 12.708984375  11.669921875000002 12.28125  12.2314453125 11.7421875  C 12.79296875 11.203125  13.238525390625 10.564453125  13.568115234375 9.826171875  Z M 22.943115234375 9.826171875  C 23.272705078125004 9.087890625  23.437500000000004 8.312499999999998  23.4375 7.5  C 23.437500000000004 6.6875  23.272705078125004 5.912109375  22.943115234375 5.173828125000001  C 22.613525390625004 4.435546874999999  22.167968750000004 3.796874999999999  21.6064453125 3.2578124999999996  C 21.044921875000004 2.7187500000000004  20.379638671875004 2.2910156249999996  19.610595703125 1.9746093749999993  C 18.841552734375 1.6582031250000007  18.033854166666668 1.4999999999999996  17.1875 1.4999999999999996  L 12.4755859375 1.4999999999999996  C 13.444010416666668 2.2031249999999996  14.211018880208334 3.0781249999999982  14.776611328125 4.125  C 15.342203776041668 5.171874999999999  15.625 6.296874999999998  15.625 7.5  C 15.625 8.703125  15.342203776041668 9.828124999999998  14.776611328125 10.875  C 14.211018880208334 11.921874999999998  13.444010416666668 12.796875  12.4755859375 13.5  L 17.1875 13.5  C 18.033854166666668 13.5  18.841552734375 13.341796875  19.610595703125 13.025390625  C 20.379638671875004 12.708984375  21.044921875000004 12.28125  21.6064453125 11.7421875  C 22.167968750000004 11.203125  22.613525390625004 10.564453125  22.943115234375 9.826171875  Z M 24.37744140625 4.587890625000001  C 24.79248046875 5.513671875  25 6.484374999999999  25 7.5  C 25 8.515624999999998  24.79248046875 9.486328125  24.37744140625 10.412109375  C 23.96240234375 11.337890625  23.406982421875 12.134765625  22.711181640625 12.802734375  C 22.015380859375 13.470703125  21.185302734375 14.00390625  20.220947265625 14.40234375  C 19.256591796875 14.80078125  18.245442708333336 15  17.1875 15  L 7.8125 15  C 6.754557291666667 15  5.743408203125001 14.80078125  4.779052734375 14.40234375  C 3.814697265625 14.00390625  2.9846191406250004 13.470703125  2.288818359375 12.802734375  C 1.593017578125 12.134765625  1.0375976562500002 11.337890625  0.62255859375 10.412109375  C 0.20751953125 9.486328125  0 8.515624999999998  0 7.5  C 0 6.484374999999999  0.20751953125 5.513671875  0.62255859375 4.587890625000001  C 1.0375976562500002 3.662109375  1.593017578125 2.8652343750000004  2.288818359375 2.197265625  C 2.9846191406250004 1.5292968749999996  3.814697265625 0.99609375  4.779052734375 0.5976562499999993  C 5.743408203125001 0.19921875000000033  6.754557291666667 0  7.8125 0  L 17.1875 0  C 18.245442708333336 0  19.256591796875 0.19921875000000033  20.220947265625 0.5976562499999993  C 21.185302734375 0.99609375  22.015380859375 1.5292968749999996  22.711181640625 2.197265625  C 23.406982421875 2.8652343750000004  23.96240234375 3.662109375  24.37744140625 4.587890625000001  Z " fill-rule="nonzero" fill="rgba(255, 255, 255, 1)" stroke="none" class="fill" />
    <path d="M 13.568115234375 9.826171875  C 13.897705078125 9.087890625  14.0625 8.312499999999998  14.0625 7.5  C 14.0625 6.6875  13.897705078125 5.912109375  13.568115234375 5.173828125000001  C 13.238525390625 4.435546874999999  12.79296875 3.796874999999999  12.2314453125 3.2578124999999996  C 11.669921875000002 2.7187500000000004  11.004638671875002 2.2910156249999996  10.235595703125 1.9746093749999993  C 9.466552734375 1.6582031250000007  8.658854166666668 1.4999999999999996  7.8125 1.4999999999999996  C 6.966145833333334 1.4999999999999996  6.158447265625 1.6582031250000007  5.389404296875 1.9746093749999993  C 4.620361328125 2.2910156249999996  3.955078125 2.7187500000000004  3.3935546875 3.2578124999999996  C 2.83203125 3.796874999999999  2.386474609375 4.435546874999999  2.056884765625 5.173828125000001  C 1.727294921875 5.912109375  1.5625 6.6875  1.5625 7.5  C 1.5625 8.312499999999998  1.727294921875 9.087890625  2.056884765625 9.826171875  C 2.386474609375 10.564453125  2.83203125 11.203125  3.3935546875 11.7421875  C 3.955078125 12.28125  4.620361328125 12.708984375  5.389404296875 13.025390625  C 6.158447265625 13.341796875  6.966145833333334 13.5  7.8125 13.5  C 8.658854166666668 13.5  9.466552734375 13.341796875  10.235595703125 13.025390625  C 11.004638671875002 12.708984375  11.669921875000002 12.28125  12.2314453125 11.7421875  C 12.79296875 11.203125  13.238525390625 10.564453125  13.568115234375 9.826171875  Z " stroke-width="0" stroke-dasharray="0" stroke="rgba(255, 255, 255, 0)" fill="none" class="stroke" mask="url(#Clip320)" />
    <path d="M 22.943115234375 9.826171875  C 23.272705078125004 9.087890625  23.437500000000004 8.312499999999998  23.4375 7.5  C 23.437500000000004 6.6875  23.272705078125004 5.912109375  22.943115234375 5.173828125000001  C 22.613525390625004 4.435546874999999  22.167968750000004 3.796874999999999  21.6064453125 3.2578124999999996  C 21.044921875000004 2.7187500000000004  20.379638671875004 2.2910156249999996  19.610595703125 1.9746093749999993  C 18.841552734375 1.6582031250000007  18.033854166666668 1.4999999999999996  17.1875 1.4999999999999996  L 12.4755859375 1.4999999999999996  C 13.444010416666668 2.2031249999999996  14.211018880208334 3.0781249999999982  14.776611328125 4.125  C 15.342203776041668 5.171874999999999  15.625 6.296874999999998  15.625 7.5  C 15.625 8.703125  15.342203776041668 9.828124999999998  14.776611328125 10.875  C 14.211018880208334 11.921874999999998  13.444010416666668 12.796875  12.4755859375 13.5  L 17.1875 13.5  C 18.033854166666668 13.5  18.841552734375 13.341796875  19.610595703125 13.025390625  C 20.379638671875004 12.708984375  21.044921875000004 12.28125  21.6064453125 11.7421875  C 22.167968750000004 11.203125  22.613525390625004 10.564453125  22.943115234375 9.826171875  Z " stroke-width="0" stroke-dasharray="0" stroke="rgba(255, 255, 255, 0)" fill="none" class="stroke" mask="url(#Clip320)" />
    <path d="M 24.37744140625 4.587890625000001  C 24.79248046875 5.513671875  25 6.484374999999999  25 7.5  C 25 8.515624999999998  24.79248046875 9.486328125  24.37744140625 10.412109375  C 23.96240234375 11.337890625  23.406982421875 12.134765625  22.711181640625 12.802734375  C 22.015380859375 13.470703125  21.185302734375 14.00390625  20.220947265625 14.40234375  C 19.256591796875 14.80078125  18.245442708333336 15  17.1875 15  L 7.8125 15  C 6.754557291666667 15  5.743408203125001 14.80078125  4.779052734375 14.40234375  C 3.814697265625 14.00390625  2.9846191406250004 13.470703125  2.288818359375 12.802734375  C 1.593017578125 12.134765625  1.0375976562500002 11.337890625  0.62255859375 10.412109375  C 0.20751953125 9.486328125  0 8.515624999999998  0 7.5  C 0 6.484374999999999  0.20751953125 5.513671875  0.62255859375 4.587890625000001  C 1.0375976562500002 3.662109375  1.593017578125 2.8652343750000004  2.288818359375 2.197265625  C 2.9846191406250004 1.5292968749999996  3.814697265625 0.99609375  4.779052734375 0.5976562499999993  C 5.743408203125001 0.19921875000000033  6.754557291666667 0  7.8125 0  L 17.1875 0  C 18.245442708333336 0  19.256591796875 0.19921875000000033  20.220947265625 0.5976562499999993  C 21.185302734375 0.99609375  22.015380859375 1.5292968749999996  22.711181640625 2.197265625  C 23.406982421875 2.8652343750000004  23.96240234375 3.662109375  24.37744140625 4.587890625000001  Z " stroke-width="0" stroke-dasharray="0" stroke="rgba(255, 255, 255, 0)" fill="none" class="stroke" mask="url(#Clip320)" />
  </g>
</svg>