<?xml version="1.0" encoding="utf-8"?>
<svg version="1.1" xmlns:xlink="http://www.w3.org/1999/xlink" width="25px" height="16px" xmlns="http://www.w3.org/2000/svg">
  <defs>
    <pattern id="BGPattern" patternUnits="userSpaceOnUse" alignment="0 0" imageRepeat="None" />
    <mask fill="white" id="Clip321">
      <path d="M 0.62255859375 11.10625  C 0.20751953125 10.11875  0 9.083333333333332  0 8  C 0 6.916666666666666  0.20751953125 5.88125  0.62255859375 4.893750000000001  C 1.0375976562500002 3.90625  1.593017578125 3.0562500000000004  2.288818359375 2.34375  C 2.9846191406250004 1.6312499999999996  3.814697265625 1.0625  4.779052734375 0.6374999999999993  C 5.743408203125001 0.21250000000000036  6.754557291666667 0  7.8125 0  L 17.1875 0  C 18.245442708333336 0  19.256591796875 0.21250000000000036  20.220947265625 0.6374999999999993  C 21.185302734375 1.0625  22.015380859375 1.6312499999999996  22.711181640625 2.34375  C 23.406982421875 3.0562500000000004  23.96240234375 3.90625  24.37744140625 4.893750000000001  C 24.79248046875 5.88125  25 6.916666666666666  25 8  C 25 9.083333333333332  24.79248046875 10.11875  24.37744140625 11.10625  C 23.96240234375 12.09375  23.406982421875 12.94375  22.711181640625 13.65625  C 22.015380859375 14.36875  21.185302734375 14.9375  20.220947265625 15.3625  C 19.256591796875 15.7875  18.245442708333336 16  17.1875 16  L 7.8125 16  C 6.754557291666667 16  5.743408203125001 15.7875  4.779052734375 15.3625  C 3.814697265625 14.9375  2.9846191406250004 14.36875  2.288818359375 13.65625  C 1.593017578125 12.94375  1.0375976562500002 12.09375  0.62255859375 11.10625  Z M 14.764404296875 13.89375  C 15.533447265625 14.23125  16.341145833333336 14.4  17.1875 14.4  C 18.033854166666668 14.4  18.841552734375 14.23125  19.610595703125 13.89375  C 20.379638671875004 13.55625  21.044921875000004 13.1  21.6064453125 12.525  C 22.167968750000004 11.95  22.613525390625004 11.26875  22.943115234375 10.48125  C 23.272705078125004 9.69375  23.437500000000004 8.866666666666665  23.4375 8  C 23.437500000000004 7.133333333333333  23.272705078125004 6.30625  22.943115234375 5.518750000000001  C 22.613525390625004 4.731249999999999  22.167968750000004 4.049999999999999  21.6064453125 3.4749999999999996  C 21.044921875000004 2.9000000000000004  20.379638671875004 2.4437499999999996  19.610595703125 2.1062499999999993  C 18.841552734375 1.7687500000000007  18.033854166666668 1.5999999999999996  17.1875 1.5999999999999996  C 16.341145833333336 1.5999999999999996  15.533447265625 1.7687500000000007  14.764404296875 2.1062499999999993  C 13.995361328125 2.4437499999999996  13.330078125 2.9000000000000004  12.7685546875 3.4749999999999996  C 12.20703125 4.049999999999999  11.761474609375 4.731249999999999  11.431884765625 5.518750000000001  C 11.102294921875 6.30625  10.9375 7.133333333333333  10.9375 8  C 10.9375 8.866666666666665  11.102294921875 9.69375  11.431884765625 10.48125  C 11.761474609375 11.26875  12.20703125 11.95  12.7685546875 12.525  C 13.330078125 13.1  13.995361328125 13.55625  14.764404296875 13.89375  Z " fill-rule="evenodd" />
    </mask>
  </defs>
  <g>
    <path d="M 0.62255859375 11.10625  C 0.20751953125 10.11875  0 9.083333333333332  0 8  C 0 6.916666666666666  0.20751953125 5.88125  0.62255859375 4.893750000000001  C 1.0375976562500002 3.90625  1.593017578125 3.0562500000000004  2.288818359375 2.34375  C 2.9846191406250004 1.6312499999999996  3.814697265625 1.0625  4.779052734375 0.6374999999999993  C 5.743408203125001 0.21250000000000036  6.754557291666667 0  7.8125 0  L 17.1875 0  C 18.245442708333336 0  19.256591796875 0.21250000000000036  20.220947265625 0.6374999999999993  C 21.185302734375 1.0625  22.015380859375 1.6312499999999996  22.711181640625 2.34375  C 23.406982421875 3.0562500000000004  23.96240234375 3.90625  24.37744140625 4.893750000000001  C 24.79248046875 5.88125  25 6.916666666666666  25 8  C 25 9.083333333333332  24.79248046875 10.11875  24.37744140625 11.10625  C 23.96240234375 12.09375  23.406982421875 12.94375  22.711181640625 13.65625  C 22.015380859375 14.36875  21.185302734375 14.9375  20.220947265625 15.3625  C 19.256591796875 15.7875  18.245442708333336 16  17.1875 16  L 7.8125 16  C 6.754557291666667 16  5.743408203125001 15.7875  4.779052734375 15.3625  C 3.814697265625 14.9375  2.9846191406250004 14.36875  2.288818359375 13.65625  C 1.593017578125 12.94375  1.0375976562500002 12.09375  0.62255859375 11.10625  Z M 14.764404296875 13.89375  C 15.533447265625 14.23125  16.341145833333336 14.4  17.1875 14.4  C 18.033854166666668 14.4  18.841552734375 14.23125  19.610595703125 13.89375  C 20.379638671875004 13.55625  21.044921875000004 13.1  21.6064453125 12.525  C 22.167968750000004 11.95  22.613525390625004 11.26875  22.943115234375 10.48125  C 23.272705078125004 9.69375  23.437500000000004 8.866666666666665  23.4375 8  C 23.437500000000004 7.133333333333333  23.272705078125004 6.30625  22.943115234375 5.518750000000001  C 22.613525390625004 4.731249999999999  22.167968750000004 4.049999999999999  21.6064453125 3.4749999999999996  C 21.044921875000004 2.9000000000000004  20.379638671875004 2.4437499999999996  19.610595703125 2.1062499999999993  C 18.841552734375 1.7687500000000007  18.033854166666668 1.5999999999999996  17.1875 1.5999999999999996  C 16.341145833333336 1.5999999999999996  15.533447265625 1.7687500000000007  14.764404296875 2.1062499999999993  C 13.995361328125 2.4437499999999996  13.330078125 2.9000000000000004  12.7685546875 3.4749999999999996  C 12.20703125 4.049999999999999  11.761474609375 4.731249999999999  11.431884765625 5.518750000000001  C 11.102294921875 6.30625  10.9375 7.133333333333333  10.9375 8  C 10.9375 8.866666666666665  11.102294921875 9.69375  11.431884765625 10.48125  C 11.761474609375 11.26875  12.20703125 11.95  12.7685546875 12.525  C 13.330078125 13.1  13.995361328125 13.55625  14.764404296875 13.89375  Z " fill-rule="nonzero" fill="rgba(128, 255, 255, 1)" stroke="none" class="fill" />
    <path d="M 0.62255859375 11.10625  C 0.20751953125 10.11875  0 9.083333333333332  0 8  C 0 6.916666666666666  0.20751953125 5.88125  0.62255859375 4.893750000000001  C 1.0375976562500002 3.90625  1.593017578125 3.0562500000000004  2.288818359375 2.34375  C 2.9846191406250004 1.6312499999999996  3.814697265625 1.0625  4.779052734375 0.6374999999999993  C 5.743408203125001 0.21250000000000036  6.754557291666667 0  7.8125 0  L 17.1875 0  C 18.245442708333336 0  19.256591796875 0.21250000000000036  20.220947265625 0.6374999999999993  C 21.185302734375 1.0625  22.015380859375 1.6312499999999996  22.711181640625 2.34375  C 23.406982421875 3.0562500000000004  23.96240234375 3.90625  24.37744140625 4.893750000000001  C 24.79248046875 5.88125  25 6.916666666666666  25 8  C 25 9.083333333333332  24.79248046875 10.11875  24.37744140625 11.10625  C 23.96240234375 12.09375  23.406982421875 12.94375  22.711181640625 13.65625  C 22.015380859375 14.36875  21.185302734375 14.9375  20.220947265625 15.3625  C 19.256591796875 15.7875  18.245442708333336 16  17.1875 16  L 7.8125 16  C 6.754557291666667 16  5.743408203125001 15.7875  4.779052734375 15.3625  C 3.814697265625 14.9375  2.9846191406250004 14.36875  2.288818359375 13.65625  C 1.593017578125 12.94375  1.0375976562500002 12.09375  0.62255859375 11.10625  Z " stroke-width="0" stroke-dasharray="0" stroke="rgba(255, 255, 255, 0)" fill="none" class="stroke" mask="url(#Clip321)" />
    <path d="M 14.764404296875 13.89375  C 15.533447265625 14.23125  16.341145833333336 14.4  17.1875 14.4  C 18.033854166666668 14.4  18.841552734375 14.23125  19.610595703125 13.89375  C 20.379638671875004 13.55625  21.044921875000004 13.1  21.6064453125 12.525  C 22.167968750000004 11.95  22.613525390625004 11.26875  22.943115234375 10.48125  C 23.272705078125004 9.69375  23.437500000000004 8.866666666666665  23.4375 8  C 23.437500000000004 7.133333333333333  23.272705078125004 6.30625  22.943115234375 5.518750000000001  C 22.613525390625004 4.731249999999999  22.167968750000004 4.049999999999999  21.6064453125 3.4749999999999996  C 21.044921875000004 2.9000000000000004  20.379638671875004 2.4437499999999996  19.610595703125 2.1062499999999993  C 18.841552734375 1.7687500000000007  18.033854166666668 1.5999999999999996  17.1875 1.5999999999999996  C 16.341145833333336 1.5999999999999996  15.533447265625 1.7687500000000007  14.764404296875 2.1062499999999993  C 13.995361328125 2.4437499999999996  13.330078125 2.9000000000000004  12.7685546875 3.4749999999999996  C 12.20703125 4.049999999999999  11.761474609375 4.731249999999999  11.431884765625 5.518750000000001  C 11.102294921875 6.30625  10.9375 7.133333333333333  10.9375 8  C 10.9375 8.866666666666665  11.102294921875 9.69375  11.431884765625 10.48125  C 11.761474609375 11.26875  12.20703125 11.95  12.7685546875 12.525  C 13.330078125 13.1  13.995361328125 13.55625  14.764404296875 13.89375  Z " stroke-width="0" stroke-dasharray="0" stroke="rgba(255, 255, 255, 0)" fill="none" class="stroke" mask="url(#Clip321)" />
  </g>
</svg>