<?xml version="1.0" encoding="utf-8"?>
<svg version="1.1" xmlns:xlink="http://www.w3.org/1999/xlink" width="28px" height="28px" xmlns="http://www.w3.org/2000/svg">
  <defs>
    <pattern id="BGPattern" patternUnits="userSpaceOnUse" alignment="0 0" imageRepeat="None" />
    <mask fill="white" id="Clip323">
      <path d="M 8.5625 1.1093749999999996  C 10.291666666666668 0.3697916666666665  12.104166666666668 0  14 0  C 15.895833333333334 0  17.708333333333336 0.3697916666666665  19.4375 1.1093749999999996  C 21.166666666666668 1.8489583333333326  22.65625 2.84375  23.90625 4.093749999999998  C 25.156250000000004 5.34375  26.15104166666667 6.83333333333333  26.890625 8.5625  C 27.630208333333336 10.291666666666664  28 12.104166666666666  28 14  C 28 15.885416666666668  27.6328125 17.692708333333332  26.8984375 19.421875  C 26.1640625 21.15104166666667  25.171875 22.640625  23.921875 23.890625  C 22.671875 25.140625  21.182291666666668 26.138020833333332  19.453125 26.8828125  C 17.723958333333336 27.627604166666668  15.906249999999998 28  14 28  C 12.09375 28  10.276041666666668 27.630208333333332  8.546875 26.890625  C 6.817708333333334 26.151041666666668  5.330729166666667 25.153645833333332  4.0859375 23.8984375  C 2.841145833333333 22.643229166666664  1.8489583333333335 21.153645833333332  1.109375 19.4296875  C 0.36979166666666663 17.705729166666664  0 15.895833333333332  0 14  C 0 12.104166666666666  0.36979166666666663 10.291666666666664  1.109375 8.5625  C 1.8489583333333335 6.83333333333333  2.84375 5.34375  4.09375 4.093749999999998  C 5.34375 2.84375  6.833333333333334 1.8489583333333326  8.5625 1.1093749999999996  Z M 18.890625 16  C 21.390625 16  22.984375 17.703125  23.671875 21.109375  C 25.223958333333336 18.973958333333336  26 16.604166666666664  26 14  C 26 12.375  25.682291666666668 10.822916666666664  25.046875 9.343749999999998  C 24.411458333333336 7.864583333333332  23.55729166666667 6.588541666666664  22.484375 5.515624999999998  C 21.411458333333336 4.442708333333334  20.135416666666668 3.588541666666665  18.65625 2.953125  C 17.177083333333336 2.3177083333333317  15.625 1.9999999999999991  14 1.9999999999999991  C 12.375 1.9999999999999991  10.822916666666668 2.3177083333333317  9.34375 2.953125  C 7.864583333333334 3.588541666666665  6.588541666666668 4.442708333333334  5.515625 5.515624999999998  C 4.442708333333334 6.588541666666664  3.588541666666667 7.864583333333332  2.953125 9.343749999999998  C 2.3177083333333335 10.822916666666664  2 12.375  2 14  C 2 16.604166666666664  2.776041666666667 18.973958333333336  4.328125 21.109375  C 5.015625 17.703125  6.609375 16  9.109375 16  C 10.473958333333334 17.333333333333336  12.104166666666668 18  14 18  C 15.895833333333334 18  17.526041666666668 17.333333333333336  18.890625 16  Z M 18.2421875 15.2421875  C 19.4140625 14.0703125  20 12.65625  20 11.000000000000002  C 20 9.343749999999998  19.4140625 7.9296875  18.2421875 6.757812499999999  C 17.0703125 5.585937500000002  15.65625 5.000000000000001  14 5.000000000000001  C 12.34375 5.000000000000001  10.9296875 5.585937500000002  9.7578125 6.757812499999999  C 8.5859375 7.9296875  8 9.343749999999998  8 11.000000000000002  C 8 12.65625  8.5859375 14.0703125  9.7578125 15.2421875  C 10.9296875 16.4140625  12.34375 17  14 17  C 15.65625 17  17.0703125 16.4140625  18.2421875 15.2421875  Z " fill-rule="evenodd" />
    </mask>
  </defs>
  <g transform="matrix(1 0 0 1 -2 0 )">
    <path d="M 8.5625 1.1093749999999996  C 10.291666666666668 0.3697916666666665  12.104166666666668 0  14 0  C 15.895833333333334 0  17.708333333333336 0.3697916666666665  19.4375 1.1093749999999996  C 21.166666666666668 1.8489583333333326  22.65625 2.84375  23.90625 4.093749999999998  C 25.156250000000004 5.34375  26.15104166666667 6.83333333333333  26.890625 8.5625  C 27.630208333333336 10.291666666666664  28 12.104166666666666  28 14  C 28 15.885416666666668  27.6328125 17.692708333333332  26.8984375 19.421875  C 26.1640625 21.15104166666667  25.171875 22.640625  23.921875 23.890625  C 22.671875 25.140625  21.182291666666668 26.138020833333332  19.453125 26.8828125  C 17.723958333333336 27.627604166666668  15.906249999999998 28  14 28  C 12.09375 28  10.276041666666668 27.630208333333332  8.546875 26.890625  C 6.817708333333334 26.151041666666668  5.330729166666667 25.153645833333332  4.0859375 23.8984375  C 2.841145833333333 22.643229166666664  1.8489583333333335 21.153645833333332  1.109375 19.4296875  C 0.36979166666666663 17.705729166666664  0 15.895833333333332  0 14  C 0 12.104166666666666  0.36979166666666663 10.291666666666664  1.109375 8.5625  C 1.8489583333333335 6.83333333333333  2.84375 5.34375  4.09375 4.093749999999998  C 5.34375 2.84375  6.833333333333334 1.8489583333333326  8.5625 1.1093749999999996  Z M 18.890625 16  C 21.390625 16  22.984375 17.703125  23.671875 21.109375  C 25.223958333333336 18.973958333333336  26 16.604166666666664  26 14  C 26 12.375  25.682291666666668 10.822916666666664  25.046875 9.343749999999998  C 24.411458333333336 7.864583333333332  23.55729166666667 6.588541666666664  22.484375 5.515624999999998  C 21.411458333333336 4.442708333333334  20.135416666666668 3.588541666666665  18.65625 2.953125  C 17.177083333333336 2.3177083333333317  15.625 1.9999999999999991  14 1.9999999999999991  C 12.375 1.9999999999999991  10.822916666666668 2.3177083333333317  9.34375 2.953125  C 7.864583333333334 3.588541666666665  6.588541666666668 4.442708333333334  5.515625 5.515624999999998  C 4.442708333333334 6.588541666666664  3.588541666666667 7.864583333333332  2.953125 9.343749999999998  C 2.3177083333333335 10.822916666666664  2 12.375  2 14  C 2 16.604166666666664  2.776041666666667 18.973958333333336  4.328125 21.109375  C 5.015625 17.703125  6.609375 16  9.109375 16  C 10.473958333333334 17.333333333333336  12.104166666666668 18  14 18  C 15.895833333333334 18  17.526041666666668 17.333333333333336  18.890625 16  Z M 18.2421875 15.2421875  C 19.4140625 14.0703125  20 12.65625  20 11.000000000000002  C 20 9.343749999999998  19.4140625 7.9296875  18.2421875 6.757812499999999  C 17.0703125 5.585937500000002  15.65625 5.000000000000001  14 5.000000000000001  C 12.34375 5.000000000000001  10.9296875 5.585937500000002  9.7578125 6.757812499999999  C 8.5859375 7.9296875  8 9.343749999999998  8 11.000000000000002  C 8 12.65625  8.5859375 14.0703125  9.7578125 15.2421875  C 10.9296875 16.4140625  12.34375 17  14 17  C 15.65625 17  17.0703125 16.4140625  18.2421875 15.2421875  Z " fill-rule="nonzero" fill="rgba(255, 255, 255, 1)" stroke="none" transform="matrix(1 0 0 1 2 0 )" class="fill" />
    <path d="M 8.5625 1.1093749999999996  C 10.291666666666668 0.3697916666666665  12.104166666666668 0  14 0  C 15.895833333333334 0  17.708333333333336 0.3697916666666665  19.4375 1.1093749999999996  C 21.166666666666668 1.8489583333333326  22.65625 2.84375  23.90625 4.093749999999998  C 25.156250000000004 5.34375  26.15104166666667 6.83333333333333  26.890625 8.5625  C 27.630208333333336 10.291666666666664  28 12.104166666666666  28 14  C 28 15.885416666666668  27.6328125 17.692708333333332  26.8984375 19.421875  C 26.1640625 21.15104166666667  25.171875 22.640625  23.921875 23.890625  C 22.671875 25.140625  21.182291666666668 26.138020833333332  19.453125 26.8828125  C 17.723958333333336 27.627604166666668  15.906249999999998 28  14 28  C 12.09375 28  10.276041666666668 27.630208333333332  8.546875 26.890625  C 6.817708333333334 26.151041666666668  5.330729166666667 25.153645833333332  4.0859375 23.8984375  C 2.841145833333333 22.643229166666664  1.8489583333333335 21.153645833333332  1.109375 19.4296875  C 0.36979166666666663 17.705729166666664  0 15.895833333333332  0 14  C 0 12.104166666666666  0.36979166666666663 10.291666666666664  1.109375 8.5625  C 1.8489583333333335 6.83333333333333  2.84375 5.34375  4.09375 4.093749999999998  C 5.34375 2.84375  6.833333333333334 1.8489583333333326  8.5625 1.1093749999999996  Z " stroke-width="0" stroke-dasharray="0" stroke="rgba(255, 255, 255, 0)" fill="none" transform="matrix(1 0 0 1 2 0 )" class="stroke" mask="url(#Clip323)" />
    <path d="M 18.890625 16  C 21.390625 16  22.984375 17.703125  23.671875 21.109375  C 25.223958333333336 18.973958333333336  26 16.604166666666664  26 14  C 26 12.375  25.682291666666668 10.822916666666664  25.046875 9.343749999999998  C 24.411458333333336 7.864583333333332  23.55729166666667 6.588541666666664  22.484375 5.515624999999998  C 21.411458333333336 4.442708333333334  20.135416666666668 3.588541666666665  18.65625 2.953125  C 17.177083333333336 2.3177083333333317  15.625 1.9999999999999991  14 1.9999999999999991  C 12.375 1.9999999999999991  10.822916666666668 2.3177083333333317  9.34375 2.953125  C 7.864583333333334 3.588541666666665  6.588541666666668 4.442708333333334  5.515625 5.515624999999998  C 4.442708333333334 6.588541666666664  3.588541666666667 7.864583333333332  2.953125 9.343749999999998  C 2.3177083333333335 10.822916666666664  2 12.375  2 14  C 2 16.604166666666664  2.776041666666667 18.973958333333336  4.328125 21.109375  C 5.015625 17.703125  6.609375 16  9.109375 16  C 10.473958333333334 17.333333333333336  12.104166666666668 18  14 18  C 15.895833333333334 18  17.526041666666668 17.333333333333336  18.890625 16  Z " stroke-width="0" stroke-dasharray="0" stroke="rgba(255, 255, 255, 0)" fill="none" transform="matrix(1 0 0 1 2 0 )" class="stroke" mask="url(#Clip323)" />
    <path d="M 18.2421875 15.2421875  C 19.4140625 14.0703125  20 12.65625  20 11.000000000000002  C 20 9.343749999999998  19.4140625 7.9296875  18.2421875 6.757812499999999  C 17.0703125 5.585937500000002  15.65625 5.000000000000001  14 5.000000000000001  C 12.34375 5.000000000000001  10.9296875 5.585937500000002  9.7578125 6.757812499999999  C 8.5859375 7.9296875  8 9.343749999999998  8 11.000000000000002  C 8 12.65625  8.5859375 14.0703125  9.7578125 15.2421875  C 10.9296875 16.4140625  12.34375 17  14 17  C 15.65625 17  17.0703125 16.4140625  18.2421875 15.2421875  Z " stroke-width="0" stroke-dasharray="0" stroke="rgba(255, 255, 255, 0)" fill="none" transform="matrix(1 0 0 1 2 0 )" class="stroke" mask="url(#Clip323)" />
  </g>
</svg>