<?xml version="1.0" encoding="utf-8"?>
<svg version="1.1" xmlns:xlink="http://www.w3.org/1999/xlink" width="29px" height="16px" xmlns="http://www.w3.org/2000/svg">
  <defs>
    <pattern id="BGPattern" patternUnits="userSpaceOnUse" alignment="0 0" imageRepeat="None" />
    <mask fill="white" id="Clip307">
      <path d="M 21.531529017857146 12.534722222222221  C 23.694661458333336 11.409722222222221  25.4936755952381 9.898148148148145  26.92857142857143 8  C 25.288690476190478 5.814814814814815  23.23344494047619 4.180555555555555  20.76283482142857 3.0972222222222214  C 21.42094494047619 4.060185185185183  21.75 5.101851851851851  21.75 6.222222222222221  C 21.75 7.935185185185183  21.040643601190478 9.400462962962962  19.62193080357143 10.618055555555555  C 18.203218005952383 11.835648148148145  16.495907738095237 12.444444444444445  14.5 12.444444444444445  C 12.504092261904763 12.444444444444445  10.79678199404762 11.835648148148145  9.378069196428573 10.618055555555555  C 7.9593563988095255 9.400462962962962  7.25 7.935185185185183  7.25 6.222222222222221  C 7.25 5.101851851851851  7.57905505952381 4.060185185185183  8.237165178571427 3.0972222222222214  C 5.76655505952381 4.180555555555555  3.711309523809524 5.814814814814815  2.071428571428571 8  C 3.506324404761905 9.898148148148145  5.305338541666667 11.409722222222221  7.468470982142858 12.534722222222221  C 9.63160342261905 13.659722222222221  11.975446428571427 14.222222222222221  14.5 14.222222222222221  C 17.02455357142857 14.222222222222221  19.368396577380956 13.659722222222221  21.531529017857146 12.534722222222221  Z M 15.050223214285715 3.1388888888888893  C 15.201264880952383 3.0092592592592595  15.276785714285715 2.851851851851851  15.276785714285715 2.666666666666666  C 15.276785714285715 2.481481481481481  15.201264880952383 2.3240740740740726  15.050223214285715 2.1944444444444446  C 14.899181547619051 2.064814814814813  14.715773809523808 1.9999999999999982  14.5 2  C 13.151413690476192 1.9999999999999982  11.994326636904763 2.414351851851851  11.028738839285715 3.2430555555555554  C 10.063151041666668 4.0717592592592595  9.580357142857142 5.064814814814815  9.580357142857142 6.222222222222221  C 9.580357142857142 6.4074074074074066  9.655877976190478 6.564814814814815  9.806919642857142 6.694444444444445  C 9.95796130952381 6.824074074074073  10.14136904761905 6.888888888888889  10.357142857142858 6.888888888888889  C 10.572916666666668 6.888888888888889  10.756324404761905 6.824074074074073  10.907366071428573 6.694444444444445  C 11.058407738095239 6.564814814814815  11.133928571428573 6.4074074074074066  11.133928571428573 6.222222222222221  C 11.133928571428573 5.425925925925926  11.462983630952381 4.74537037037037  12.12109375 4.180555555555555  C 12.77920386904762 3.6157407407407405  13.57217261904762 3.333333333333332  14.5 3.333333333333334  C 14.715773809523808 3.333333333333332  14.899181547619051 3.2685185185185173  15.050223214285715 3.1388888888888893  Z M 28.676339285714285 7.041666666666666  C 28.8921130952381 7.3657407407407405  29 7.685185185185183  29 8  C 29 8.314814814814813  28.8921130952381 8.63425925925926  28.676339285714285 8.958333333333332  C 27.165922619047624 11.087962962962962  25.13495163690477 12.793981481481483  22.583426339285715 14.07638888888889  C 20.031901041666668 15.358796296296296  17.3374255952381 16  14.5 16  C 11.662574404761905 16  8.968098958333334 15.356481481481483  6.4165736607142865 14.069444444444445  C 3.865048363095238 12.782407407407407  1.8340773809523814 11.078703703703702  0.3236607142857143 8.958333333333332  C 0.10788690476190475 8.63425925925926  0 8.314814814814813  0 8  C 0 7.685185185185183  0.10788690476190475 7.3657407407407405  0.3236607142857143 7.041666666666666  C 1.8340773809523814 4.921296296296296  3.865048363095238 3.2175925925925917  6.4165736607142865 1.9305555555555554  C 8.968098958333334 0.6435185185185173  11.662574404761905 0  14.5 0  C 17.3374255952381 0  20.031901041666668 0.6435185185185173  22.583426339285715 1.9305555555555554  C 25.13495163690477 3.2175925925925917  27.165922619047624 4.921296296296296  28.676339285714285 7.041666666666666  Z " fill-rule="evenodd" />
    </mask>
  </defs>
  <g transform="matrix(1 0 0 1 -191 -5 )">
    <path d="M 21.531529017857146 12.534722222222221  C 23.694661458333336 11.409722222222221  25.4936755952381 9.898148148148145  26.92857142857143 8  C 25.288690476190478 5.814814814814815  23.23344494047619 4.180555555555555  20.76283482142857 3.0972222222222214  C 21.42094494047619 4.060185185185183  21.75 5.101851851851851  21.75 6.222222222222221  C 21.75 7.935185185185183  21.040643601190478 9.400462962962962  19.62193080357143 10.618055555555555  C 18.203218005952383 11.835648148148145  16.495907738095237 12.444444444444445  14.5 12.444444444444445  C 12.504092261904763 12.444444444444445  10.79678199404762 11.835648148148145  9.378069196428573 10.618055555555555  C 7.9593563988095255 9.400462962962962  7.25 7.935185185185183  7.25 6.222222222222221  C 7.25 5.101851851851851  7.57905505952381 4.060185185185183  8.237165178571427 3.0972222222222214  C 5.76655505952381 4.180555555555555  3.711309523809524 5.814814814814815  2.071428571428571 8  C 3.506324404761905 9.898148148148145  5.305338541666667 11.409722222222221  7.468470982142858 12.534722222222221  C 9.63160342261905 13.659722222222221  11.975446428571427 14.222222222222221  14.5 14.222222222222221  C 17.02455357142857 14.222222222222221  19.368396577380956 13.659722222222221  21.531529017857146 12.534722222222221  Z M 15.050223214285715 3.1388888888888893  C 15.201264880952383 3.0092592592592595  15.276785714285715 2.851851851851851  15.276785714285715 2.666666666666666  C 15.276785714285715 2.481481481481481  15.201264880952383 2.3240740740740726  15.050223214285715 2.1944444444444446  C 14.899181547619051 2.064814814814813  14.715773809523808 1.9999999999999982  14.5 2  C 13.151413690476192 1.9999999999999982  11.994326636904763 2.414351851851851  11.028738839285715 3.2430555555555554  C 10.063151041666668 4.0717592592592595  9.580357142857142 5.064814814814815  9.580357142857142 6.222222222222221  C 9.580357142857142 6.4074074074074066  9.655877976190478 6.564814814814815  9.806919642857142 6.694444444444445  C 9.95796130952381 6.824074074074073  10.14136904761905 6.888888888888889  10.357142857142858 6.888888888888889  C 10.572916666666668 6.888888888888889  10.756324404761905 6.824074074074073  10.907366071428573 6.694444444444445  C 11.058407738095239 6.564814814814815  11.133928571428573 6.4074074074074066  11.133928571428573 6.222222222222221  C 11.133928571428573 5.425925925925926  11.462983630952381 4.74537037037037  12.12109375 4.180555555555555  C 12.77920386904762 3.6157407407407405  13.57217261904762 3.333333333333332  14.5 3.333333333333334  C 14.715773809523808 3.333333333333332  14.899181547619051 3.2685185185185173  15.050223214285715 3.1388888888888893  Z M 28.676339285714285 7.041666666666666  C 28.8921130952381 7.3657407407407405  29 7.685185185185183  29 8  C 29 8.314814814814813  28.8921130952381 8.63425925925926  28.676339285714285 8.958333333333332  C 27.165922619047624 11.087962962962962  25.13495163690477 12.793981481481483  22.583426339285715 14.07638888888889  C 20.031901041666668 15.358796296296296  17.3374255952381 16  14.5 16  C 11.662574404761905 16  8.968098958333334 15.356481481481483  6.4165736607142865 14.069444444444445  C 3.865048363095238 12.782407407407407  1.8340773809523814 11.078703703703702  0.3236607142857143 8.958333333333332  C 0.10788690476190475 8.63425925925926  0 8.314814814814813  0 8  C 0 7.685185185185183  0.10788690476190475 7.3657407407407405  0.3236607142857143 7.041666666666666  C 1.8340773809523814 4.921296296296296  3.865048363095238 3.2175925925925917  6.4165736607142865 1.9305555555555554  C 8.968098958333334 0.6435185185185173  11.662574404761905 0  14.5 0  C 17.3374255952381 0  20.031901041666668 0.6435185185185173  22.583426339285715 1.9305555555555554  C 25.13495163690477 3.2175925925925917  27.165922619047624 4.921296296296296  28.676339285714285 7.041666666666666  Z " fill-rule="nonzero" fill="rgba(215, 215, 215, 1)" stroke="none" transform="matrix(1 0 0 1 191 5 )" class="fill" />
    <path d="M 21.531529017857146 12.534722222222221  C 23.694661458333336 11.409722222222221  25.4936755952381 9.898148148148145  26.92857142857143 8  C 25.288690476190478 5.814814814814815  23.23344494047619 4.180555555555555  20.76283482142857 3.0972222222222214  C 21.42094494047619 4.060185185185183  21.75 5.101851851851851  21.75 6.222222222222221  C 21.75 7.935185185185183  21.040643601190478 9.400462962962962  19.62193080357143 10.618055555555555  C 18.203218005952383 11.835648148148145  16.495907738095237 12.444444444444445  14.5 12.444444444444445  C 12.504092261904763 12.444444444444445  10.79678199404762 11.835648148148145  9.378069196428573 10.618055555555555  C 7.9593563988095255 9.400462962962962  7.25 7.935185185185183  7.25 6.222222222222221  C 7.25 5.101851851851851  7.57905505952381 4.060185185185183  8.237165178571427 3.0972222222222214  C 5.76655505952381 4.180555555555555  3.711309523809524 5.814814814814815  2.071428571428571 8  C 3.506324404761905 9.898148148148145  5.305338541666667 11.409722222222221  7.468470982142858 12.534722222222221  C 9.63160342261905 13.659722222222221  11.975446428571427 14.222222222222221  14.5 14.222222222222221  C 17.02455357142857 14.222222222222221  19.368396577380956 13.659722222222221  21.531529017857146 12.534722222222221  Z " stroke-width="0" stroke-dasharray="0" stroke="rgba(255, 255, 255, 0)" fill="none" transform="matrix(1 0 0 1 191 5 )" class="stroke" mask="url(#Clip307)" />
    <path d="M 15.050223214285715 3.1388888888888893  C 15.201264880952383 3.0092592592592595  15.276785714285715 2.851851851851851  15.276785714285715 2.666666666666666  C 15.276785714285715 2.481481481481481  15.201264880952383 2.3240740740740726  15.050223214285715 2.1944444444444446  C 14.899181547619051 2.064814814814813  14.715773809523808 1.9999999999999982  14.5 2  C 13.151413690476192 1.9999999999999982  11.994326636904763 2.414351851851851  11.028738839285715 3.2430555555555554  C 10.063151041666668 4.0717592592592595  9.580357142857142 5.064814814814815  9.580357142857142 6.222222222222221  C 9.580357142857142 6.4074074074074066  9.655877976190478 6.564814814814815  9.806919642857142 6.694444444444445  C 9.95796130952381 6.824074074074073  10.14136904761905 6.888888888888889  10.357142857142858 6.888888888888889  C 10.572916666666668 6.888888888888889  10.756324404761905 6.824074074074073  10.907366071428573 6.694444444444445  C 11.058407738095239 6.564814814814815  11.133928571428573 6.4074074074074066  11.133928571428573 6.222222222222221  C 11.133928571428573 5.425925925925926  11.462983630952381 4.74537037037037  12.12109375 4.180555555555555  C 12.77920386904762 3.6157407407407405  13.57217261904762 3.333333333333332  14.5 3.333333333333334  C 14.715773809523808 3.333333333333332  14.899181547619051 3.2685185185185173  15.050223214285715 3.1388888888888893  Z " stroke-width="0" stroke-dasharray="0" stroke="rgba(255, 255, 255, 0)" fill="none" transform="matrix(1 0 0 1 191 5 )" class="stroke" mask="url(#Clip307)" />
    <path d="M 28.676339285714285 7.041666666666666  C 28.8921130952381 7.3657407407407405  29 7.685185185185183  29 8  C 29 8.314814814814813  28.8921130952381 8.63425925925926  28.676339285714285 8.958333333333332  C 27.165922619047624 11.087962962962962  25.13495163690477 12.793981481481483  22.583426339285715 14.07638888888889  C 20.031901041666668 15.358796296296296  17.3374255952381 16  14.5 16  C 11.662574404761905 16  8.968098958333334 15.356481481481483  6.4165736607142865 14.069444444444445  C 3.865048363095238 12.782407407407407  1.8340773809523814 11.078703703703702  0.3236607142857143 8.958333333333332  C 0.10788690476190475 8.63425925925926  0 8.314814814814813  0 8  C 0 7.685185185185183  0.10788690476190475 7.3657407407407405  0.3236607142857143 7.041666666666666  C 1.8340773809523814 4.921296296296296  3.865048363095238 3.2175925925925917  6.4165736607142865 1.9305555555555554  C 8.968098958333334 0.6435185185185173  11.662574404761905 0  14.5 0  C 17.3374255952381 0  20.031901041666668 0.6435185185185173  22.583426339285715 1.9305555555555554  C 25.13495163690477 3.2175925925925917  27.165922619047624 4.921296296296296  28.676339285714285 7.041666666666666  Z " stroke-width="0" stroke-dasharray="0" stroke="rgba(255, 255, 255, 0)" fill="none" transform="matrix(1 0 0 1 191 5 )" class="stroke" mask="url(#Clip307)" />
  </g>
</svg>