<?xml version="1.0" encoding="utf-8"?>
<svg version="1.1" xmlns:xlink="http://www.w3.org/1999/xlink" width="29px" height="22px" xmlns="http://www.w3.org/2000/svg">
  <defs>
    <pattern id="BGPattern" patternUnits="userSpaceOnUse" alignment="0 0" imageRepeat="None" />
    <mask fill="white" id="Clip306">
      <path d="M 2.071428571428571 11  C 3.873139880952381 13.81547619047619  6.1765252976190474 15.861607142857142  8.981584821428573 17.138392857142858  L 10.243861607142858 14.830357142857142  C 9.305245535714285 14.142857142857142  8.571614583333334 13.27529761904762  8.04296875 12.227678571428571  C 7.514322916666668 11.180059523809524  7.25 10.072420634920633  7.25 8.904761904761905  C 7.25 7.584325396825397  7.57905505952381 6.356646825396823  8.237165178571427 5.22172619047619  C 5.76655505952381 6.498511904761905  3.711309523809524 8.424603174603174  2.071428571428571 11  Z M 15.050223214285715 5.270833333333334  C 15.201264880952383 5.118055555555552  15.276785714285715 4.932539682539682  15.276785714285715 4.714285714285714  C 15.276785714285715 4.496031746031745  15.201264880952383 4.310515873015873  15.050223214285715 4.157738095238095  C 14.899181547619051 4.0049603174603154  14.715773809523808 3.9285714285714293  14.5 3.9285714285714293  C 13.151413690476192 3.9285714285714293  11.994326636904763 4.416914682539682  11.028738839285715 5.39360119047619  C 10.063151041666668 6.370287698412699  9.580357142857142 7.540674603174603  9.580357142857142 8.904761904761905  C 9.580357142857142 9.123015873015872  9.655877976190478 9.308531746031745  9.806919642857142 9.461309523809524  C 9.95796130952381 9.614087301587299  10.14136904761905 9.69047619047619  10.357142857142858 9.69047619047619  C 10.572916666666668 9.69047619047619  10.756324404761905 9.614087301587299  10.907366071428573 9.461309523809524  C 11.058407738095239 9.308531746031745  11.133928571428573 9.123015873015872  11.133928571428573 8.904761904761905  C 11.133928571428573 7.96626984126984  11.462983630952381 7.164186507936508  12.12109375 6.498511904761905  C 12.77920386904762 5.832837301587299  13.57217261904762 5.499999999999997  14.5 5.5  C 14.715773809523808 5.499999999999997  14.899181547619051 5.423611111111109  15.050223214285715 5.270833333333334  Z M 20.892299107142854 1.1458333333333341  C 21.064918154761905 1.2549603174603154  21.15122767857143 1.4022817460317447  21.15122767857143 1.5877976190476195  C 21.15122767857143 1.6641865079365057  21.145833333333336 1.7132936507936471  21.135044642857146 1.7351190476190488  C 19.991443452380956 3.797619047619049  18.286830357142854 6.891369047619049  16.021205357142854 11.01636904761905  C 13.75558035714286 15.14136904761905  12.05636160714286 18.2296626984127  10.923549107142858 20.28125  L 10.130580357142858 21.73809523809524  C 10.022693452380953 21.91269841269841  9.871651785714285 22  9.677455357142858 22  C 9.547991071428573 22  8.82514880952381 21.618055555555557  7.508928571428572 20.854166666666664  C 7.3363095238095255 20.745039682539684  7.25 20.592261904761905  7.25 20.395833333333336  C 7.25 20.264880952380953  7.487351190476192 19.79017857142857  7.962053571428572 18.97172619047619  C 6.419270833333334 18.262400793650794  4.997860863095239 17.31845238095238  3.697823660714286 16.139880952380953  C 2.3977864583333335 14.961309523809524  1.2730654761904765 13.624503968253968  0.3236607142857143 12.129464285714285  C 0.10788690476190475 11.791170634920633  0 11.414682539682538  0 11  C 0 10.585317460317459  0.10788690476190475 10.208829365079364  0.3236607142857143 9.870535714285715  C 1.9743303571428574 7.306051587301587  4.0241815476190474 5.28174603174603  6.4732142857142865 3.797619047619049  C 8.922247023809526 2.3134920634920624  11.597842261904763 1.5714285714285707  14.5 1.5714285714285707  C 15.460193452380953 1.5714285714285707  16.4311755952381 1.6641865079365057  17.41294642857143 1.8497023809523805  L 18.286830357142854 0.261904761904761  C 18.394717261904763 0.08730158730158699  18.54575892857143 0  18.739955357142854 0  C 18.79389880952381 0  18.890997023809526 0.03273809523809512  19.03125 0.09821428571428537  C 19.171502976190478 0.1636904761904756  19.33872767857143 0.24826388888888618  19.532924107142854 0.3519345238095244  C 19.727120535714285 0.4556051587301577  19.90513392857143 0.5565476190476195  20.066964285714285 0.6547619047619049  C 20.228794642857146 0.7529761904761902  20.398716517857146 0.8539186507936471  20.576729910714285 0.9575892857142854  C 20.75474330357143 1.0612599206349187  20.859933035714285 1.124007936507935  20.892299107142854 1.1458333333333341  Z M 21.620535714285715 7.529761904761905  C 21.70684523809524 8.020833333333334  21.75 8.479166666666666  21.75 8.904761904761905  C 21.75 10.421626984126984  21.323846726190478 11.804811507936506  20.47154017857143 13.054315476190476  C 19.619233630952383 14.303819444444443  18.491815476190478 15.201388888888886  17.089285714285715 15.74702380952381  L 21.620535714285715 7.529761904761905  Z M 28.676339285714285 9.870535714285715  C 28.8921130952381 10.241567460317459  29 10.618055555555554  29 11  C 29 11.381944444444443  28.8921130952381 11.758432539682538  28.676339285714285 12.129464285714285  C 28.255580357142854 12.82787698412698  27.667596726190478 13.61904761904762  26.912388392857146 14.50297619047619  C 25.29408482142857 16.37996031746032  23.419549851190478 17.836805555555557  21.288783482142854 18.873511904761905  C 19.15801711309524 19.910218253968253  16.895089285714285 20.42857142857143  14.5 20.42857142857143  L 15.697544642857144 18.267857142857142  C 17.984747023809526 18.07142857142857  20.102027529761905 17.323908730158728  22.049386160714285 16.02529761904762  C 23.996744791666668 14.726686507936506  25.623139880952383 13.051587301587299  26.92857142857143 11  C 25.687872023809526 9.046626984126984  24.166666666666668 7.442460317460318  22.364955357142854 6.1875  L 23.384486607142854 4.354166666666666  C 24.409412202380956 5.052579365079362  25.393880208333336 5.887400793650791  26.337890625 6.858630952380951  C 27.281901041666668 7.829861111111109  28.06138392857143 8.833829365079364  28.676339285714285 9.870535714285715  Z " fill-rule="evenodd" />
    </mask>
  </defs>
  <g transform="matrix(1 0 0 1 -192 -2 )">
    <path d="M 2.071428571428571 11  C 3.873139880952381 13.81547619047619  6.1765252976190474 15.861607142857142  8.981584821428573 17.138392857142858  L 10.243861607142858 14.830357142857142  C 9.305245535714285 14.142857142857142  8.571614583333334 13.27529761904762  8.04296875 12.227678571428571  C 7.514322916666668 11.180059523809524  7.25 10.072420634920633  7.25 8.904761904761905  C 7.25 7.584325396825397  7.57905505952381 6.356646825396823  8.237165178571427 5.22172619047619  C 5.76655505952381 6.498511904761905  3.711309523809524 8.424603174603174  2.071428571428571 11  Z M 15.050223214285715 5.270833333333334  C 15.201264880952383 5.118055555555552  15.276785714285715 4.932539682539682  15.276785714285715 4.714285714285714  C 15.276785714285715 4.496031746031745  15.201264880952383 4.310515873015873  15.050223214285715 4.157738095238095  C 14.899181547619051 4.0049603174603154  14.715773809523808 3.9285714285714293  14.5 3.9285714285714293  C 13.151413690476192 3.9285714285714293  11.994326636904763 4.416914682539682  11.028738839285715 5.39360119047619  C 10.063151041666668 6.370287698412699  9.580357142857142 7.540674603174603  9.580357142857142 8.904761904761905  C 9.580357142857142 9.123015873015872  9.655877976190478 9.308531746031745  9.806919642857142 9.461309523809524  C 9.95796130952381 9.614087301587299  10.14136904761905 9.69047619047619  10.357142857142858 9.69047619047619  C 10.572916666666668 9.69047619047619  10.756324404761905 9.614087301587299  10.907366071428573 9.461309523809524  C 11.058407738095239 9.308531746031745  11.133928571428573 9.123015873015872  11.133928571428573 8.904761904761905  C 11.133928571428573 7.96626984126984  11.462983630952381 7.164186507936508  12.12109375 6.498511904761905  C 12.77920386904762 5.832837301587299  13.57217261904762 5.499999999999997  14.5 5.5  C 14.715773809523808 5.499999999999997  14.899181547619051 5.423611111111109  15.050223214285715 5.270833333333334  Z M 20.892299107142854 1.1458333333333341  C 21.064918154761905 1.2549603174603154  21.15122767857143 1.4022817460317447  21.15122767857143 1.5877976190476195  C 21.15122767857143 1.6641865079365057  21.145833333333336 1.7132936507936471  21.135044642857146 1.7351190476190488  C 19.991443452380956 3.797619047619049  18.286830357142854 6.891369047619049  16.021205357142854 11.01636904761905  C 13.75558035714286 15.14136904761905  12.05636160714286 18.2296626984127  10.923549107142858 20.28125  L 10.130580357142858 21.73809523809524  C 10.022693452380953 21.91269841269841  9.871651785714285 22  9.677455357142858 22  C 9.547991071428573 22  8.82514880952381 21.618055555555557  7.508928571428572 20.854166666666664  C 7.3363095238095255 20.745039682539684  7.25 20.592261904761905  7.25 20.395833333333336  C 7.25 20.264880952380953  7.487351190476192 19.79017857142857  7.962053571428572 18.97172619047619  C 6.419270833333334 18.262400793650794  4.997860863095239 17.31845238095238  3.697823660714286 16.139880952380953  C 2.3977864583333335 14.961309523809524  1.2730654761904765 13.624503968253968  0.3236607142857143 12.129464285714285  C 0.10788690476190475 11.791170634920633  0 11.414682539682538  0 11  C 0 10.585317460317459  0.10788690476190475 10.208829365079364  0.3236607142857143 9.870535714285715  C 1.9743303571428574 7.306051587301587  4.0241815476190474 5.28174603174603  6.4732142857142865 3.797619047619049  C 8.922247023809526 2.3134920634920624  11.597842261904763 1.5714285714285707  14.5 1.5714285714285707  C 15.460193452380953 1.5714285714285707  16.4311755952381 1.6641865079365057  17.41294642857143 1.8497023809523805  L 18.286830357142854 0.261904761904761  C 18.394717261904763 0.08730158730158699  18.54575892857143 0  18.739955357142854 0  C 18.79389880952381 0  18.890997023809526 0.03273809523809512  19.03125 0.09821428571428537  C 19.171502976190478 0.1636904761904756  19.33872767857143 0.24826388888888618  19.532924107142854 0.3519345238095244  C 19.727120535714285 0.4556051587301577  19.90513392857143 0.5565476190476195  20.066964285714285 0.6547619047619049  C 20.228794642857146 0.7529761904761902  20.398716517857146 0.8539186507936471  20.576729910714285 0.9575892857142854  C 20.75474330357143 1.0612599206349187  20.859933035714285 1.124007936507935  20.892299107142854 1.1458333333333341  Z M 21.620535714285715 7.529761904761905  C 21.70684523809524 8.020833333333334  21.75 8.479166666666666  21.75 8.904761904761905  C 21.75 10.421626984126984  21.323846726190478 11.804811507936506  20.47154017857143 13.054315476190476  C 19.619233630952383 14.303819444444443  18.491815476190478 15.201388888888886  17.089285714285715 15.74702380952381  L 21.620535714285715 7.529761904761905  Z M 28.676339285714285 9.870535714285715  C 28.8921130952381 10.241567460317459  29 10.618055555555554  29 11  C 29 11.381944444444443  28.8921130952381 11.758432539682538  28.676339285714285 12.129464285714285  C 28.255580357142854 12.82787698412698  27.667596726190478 13.61904761904762  26.912388392857146 14.50297619047619  C 25.29408482142857 16.37996031746032  23.419549851190478 17.836805555555557  21.288783482142854 18.873511904761905  C 19.15801711309524 19.910218253968253  16.895089285714285 20.42857142857143  14.5 20.42857142857143  L 15.697544642857144 18.267857142857142  C 17.984747023809526 18.07142857142857  20.102027529761905 17.323908730158728  22.049386160714285 16.02529761904762  C 23.996744791666668 14.726686507936506  25.623139880952383 13.051587301587299  26.92857142857143 11  C 25.687872023809526 9.046626984126984  24.166666666666668 7.442460317460318  22.364955357142854 6.1875  L 23.384486607142854 4.354166666666666  C 24.409412202380956 5.052579365079362  25.393880208333336 5.887400793650791  26.337890625 6.858630952380951  C 27.281901041666668 7.829861111111109  28.06138392857143 8.833829365079364  28.676339285714285 9.870535714285715  Z " fill-rule="nonzero" fill="rgba(215, 215, 215, 1)" stroke="none" transform="matrix(1 0 0 1 192 2 )" class="fill" />
    <path d="M 2.071428571428571 11  C 3.873139880952381 13.81547619047619  6.1765252976190474 15.861607142857142  8.981584821428573 17.138392857142858  L 10.243861607142858 14.830357142857142  C 9.305245535714285 14.142857142857142  8.571614583333334 13.27529761904762  8.04296875 12.227678571428571  C 7.514322916666668 11.180059523809524  7.25 10.072420634920633  7.25 8.904761904761905  C 7.25 7.584325396825397  7.57905505952381 6.356646825396823  8.237165178571427 5.22172619047619  C 5.76655505952381 6.498511904761905  3.711309523809524 8.424603174603174  2.071428571428571 11  Z " stroke-width="0" stroke-dasharray="0" stroke="rgba(255, 255, 255, 0)" fill="none" transform="matrix(1 0 0 1 192 2 )" class="stroke" mask="url(#Clip306)" />
    <path d="M 15.050223214285715 5.270833333333334  C 15.201264880952383 5.118055555555552  15.276785714285715 4.932539682539682  15.276785714285715 4.714285714285714  C 15.276785714285715 4.496031746031745  15.201264880952383 4.310515873015873  15.050223214285715 4.157738095238095  C 14.899181547619051 4.0049603174603154  14.715773809523808 3.9285714285714293  14.5 3.9285714285714293  C 13.151413690476192 3.9285714285714293  11.994326636904763 4.416914682539682  11.028738839285715 5.39360119047619  C 10.063151041666668 6.370287698412699  9.580357142857142 7.540674603174603  9.580357142857142 8.904761904761905  C 9.580357142857142 9.123015873015872  9.655877976190478 9.308531746031745  9.806919642857142 9.461309523809524  C 9.95796130952381 9.614087301587299  10.14136904761905 9.69047619047619  10.357142857142858 9.69047619047619  C 10.572916666666668 9.69047619047619  10.756324404761905 9.614087301587299  10.907366071428573 9.461309523809524  C 11.058407738095239 9.308531746031745  11.133928571428573 9.123015873015872  11.133928571428573 8.904761904761905  C 11.133928571428573 7.96626984126984  11.462983630952381 7.164186507936508  12.12109375 6.498511904761905  C 12.77920386904762 5.832837301587299  13.57217261904762 5.499999999999997  14.5 5.5  C 14.715773809523808 5.499999999999997  14.899181547619051 5.423611111111109  15.050223214285715 5.270833333333334  Z " stroke-width="0" stroke-dasharray="0" stroke="rgba(255, 255, 255, 0)" fill="none" transform="matrix(1 0 0 1 192 2 )" class="stroke" mask="url(#Clip306)" />
    <path d="M 20.892299107142854 1.1458333333333341  C 21.064918154761905 1.2549603174603154  21.15122767857143 1.4022817460317447  21.15122767857143 1.5877976190476195  C 21.15122767857143 1.6641865079365057  21.145833333333336 1.7132936507936471  21.135044642857146 1.7351190476190488  C 19.991443452380956 3.797619047619049  18.286830357142854 6.891369047619049  16.021205357142854 11.01636904761905  C 13.75558035714286 15.14136904761905  12.05636160714286 18.2296626984127  10.923549107142858 20.28125  L 10.130580357142858 21.73809523809524  C 10.022693452380953 21.91269841269841  9.871651785714285 22  9.677455357142858 22  C 9.547991071428573 22  8.82514880952381 21.618055555555557  7.508928571428572 20.854166666666664  C 7.3363095238095255 20.745039682539684  7.25 20.592261904761905  7.25 20.395833333333336  C 7.25 20.264880952380953  7.487351190476192 19.79017857142857  7.962053571428572 18.97172619047619  C 6.419270833333334 18.262400793650794  4.997860863095239 17.31845238095238  3.697823660714286 16.139880952380953  C 2.3977864583333335 14.961309523809524  1.2730654761904765 13.624503968253968  0.3236607142857143 12.129464285714285  C 0.10788690476190475 11.791170634920633  0 11.414682539682538  0 11  C 0 10.585317460317459  0.10788690476190475 10.208829365079364  0.3236607142857143 9.870535714285715  C 1.9743303571428574 7.306051587301587  4.0241815476190474 5.28174603174603  6.4732142857142865 3.797619047619049  C 8.922247023809526 2.3134920634920624  11.597842261904763 1.5714285714285707  14.5 1.5714285714285707  C 15.460193452380953 1.5714285714285707  16.4311755952381 1.6641865079365057  17.41294642857143 1.8497023809523805  L 18.286830357142854 0.261904761904761  C 18.394717261904763 0.08730158730158699  18.54575892857143 0  18.739955357142854 0  C 18.79389880952381 0  18.890997023809526 0.03273809523809512  19.03125 0.09821428571428537  C 19.171502976190478 0.1636904761904756  19.33872767857143 0.24826388888888618  19.532924107142854 0.3519345238095244  C 19.727120535714285 0.4556051587301577  19.90513392857143 0.5565476190476195  20.066964285714285 0.6547619047619049  C 20.228794642857146 0.7529761904761902  20.398716517857146 0.8539186507936471  20.576729910714285 0.9575892857142854  C 20.75474330357143 1.0612599206349187  20.859933035714285 1.124007936507935  20.892299107142854 1.1458333333333341  Z " stroke-width="0" stroke-dasharray="0" stroke="rgba(255, 255, 255, 0)" fill="none" transform="matrix(1 0 0 1 192 2 )" class="stroke" mask="url(#Clip306)" />
    <path d="M 21.620535714285715 7.529761904761905  C 21.70684523809524 8.020833333333334  21.75 8.479166666666666  21.75 8.904761904761905  C 21.75 10.421626984126984  21.323846726190478 11.804811507936506  20.47154017857143 13.054315476190476  C 19.619233630952383 14.303819444444443  18.491815476190478 15.201388888888886  17.089285714285715 15.74702380952381  L 21.620535714285715 7.529761904761905  Z " stroke-width="0" stroke-dasharray="0" stroke="rgba(255, 255, 255, 0)" fill="none" transform="matrix(1 0 0 1 192 2 )" class="stroke" mask="url(#Clip306)" />
    <path d="M 28.676339285714285 9.870535714285715  C 28.8921130952381 10.241567460317459  29 10.618055555555554  29 11  C 29 11.381944444444443  28.8921130952381 11.758432539682538  28.676339285714285 12.129464285714285  C 28.255580357142854 12.82787698412698  27.667596726190478 13.61904761904762  26.912388392857146 14.50297619047619  C 25.29408482142857 16.37996031746032  23.419549851190478 17.836805555555557  21.288783482142854 18.873511904761905  C 19.15801711309524 19.910218253968253  16.895089285714285 20.42857142857143  14.5 20.42857142857143  L 15.697544642857144 18.267857142857142  C 17.984747023809526 18.07142857142857  20.102027529761905 17.323908730158728  22.049386160714285 16.02529761904762  C 23.996744791666668 14.726686507936506  25.623139880952383 13.051587301587299  26.92857142857143 11  C 25.687872023809526 9.046626984126984  24.166666666666668 7.442460317460318  22.364955357142854 6.1875  L 23.384486607142854 4.354166666666666  C 24.409412202380956 5.052579365079362  25.393880208333336 5.887400793650791  26.337890625 6.858630952380951  C 27.281901041666668 7.829861111111109  28.06138392857143 8.833829365079364  28.676339285714285 9.870535714285715  Z " stroke-width="0" stroke-dasharray="0" stroke="rgba(255, 255, 255, 0)" fill="none" transform="matrix(1 0 0 1 192 2 )" class="stroke" mask="url(#Clip306)" />
  </g>
</svg>