<?xml version="1.0" encoding="utf-8"?>
<svg version="1.1" xmlns:xlink="http://www.w3.org/1999/xlink" width="52px" height="50px" xmlns="http://www.w3.org/2000/svg">
  <defs>
    <pattern id="BGPattern" patternUnits="userSpaceOnUse" alignment="0 0" imageRepeat="None" />
    <mask fill="white" id="Clip329">
      <path d="M 42.690104166666664 28.548177083333336  C 43.118923611111114 28.135850694444443  43.333333333333336 27.647569444444443  43.333333333333336 27.083333333333336  L 43.333333333333336 22.916666666666668  C 43.333333333333336 22.352430555555554  43.118923611111114 21.864149305555554  42.690104166666664 21.451822916666668  C 42.26128472222223 21.03949652777778  41.75347222222223 20.833333333333332  41.166666666666664 21  L 24.171875 21  L 30.5703125 14.680989583333332  C 30.999131944444446 14.268663194444443  31.213541666666664 13.780381944444443  31.213541666666664 13.216145833333332  C 31.213541666666664 12.651909722222216  30.999131944444446 12.163628472222216  30.5703125 11.751302083333332  L 27.489583333333336 8.7890625  C 27.083333333333336 8.3984375  26.575520833333336 8.203125  25.966145833333332 8.203125  C 25.356770833333332 8.203125  24.848958333333332 8.3984375  24.442708333333332 8.7890625  L 12.1875 20.572916666666668  L 9.106770833333334 23.53515625  C 8.700520833333334 23.92578125  8.497395833333334 24.4140625  8.497395833333334 25  C 8.497395833333334 25.5859375  8.700520833333334 26.07421875  9.106770833333334 26.46484375  L 12.1875 29.427083333333336  L 24.442708333333332 41.2109375  C 24.848958333333332 41.6015625  25.356770833333332 41.796875  25.966145833333332 41.796875  C 26.575520833333336 41.796875  27.083333333333336 41.6015625  27.489583333333336 41.2109375  L 30.5703125 38.24869791666667  C 30.976562500000007 37.85807291666667  31.179687500000007 37.369791666666664  31.1796875 36.783854166666664  C 31.179687500000007 36.197916666666664  30.976562500000007 35.709635416666664  30.5703125 35.319010416666664  L 24.171875 29  L 41.166666666666664 29  C 41.75347222222223 29.166666666666664  42.26128472222223 28.96050347222222  42.690104166666664 28.548177083333336  Z M 48.513020833333336 12.451171875  C 50.83767361111111 16.281467013888886  52 20.464409722222214  52 25  C 52 29.53559027777778  50.83767361111111 33.71853298611111  48.513020833333336 37.548828125  C 46.18836805555556 41.37912326388889  43.03428819444444 44.41189236111111  39.05078125 46.64713541666667  C 35.06727430555556 48.88237847222223  30.71701388888889 50  26 50  C 21.282986111111114 50  16.932725694444446 48.88237847222223  12.94921875 46.64713541666667  C 8.965711805555557 44.41189236111111  5.811631944444445 41.37912326388889  3.486979166666667 37.548828125  C 1.1623263888888888 33.71853298611111  0 29.53559027777778  0 25  C 0 20.464409722222214  1.1623263888888888 16.281467013888886  3.486979166666667 12.451171875  C 5.811631944444445 8.62087673611111  8.965711805555557 5.588107638888884  12.94921875 3.3528645833333313  C 16.932725694444446 1.1176215277777735  21.282986111111114 0  26 0  C 30.71701388888889 0  35.06727430555556 1.1176215277777735  39.05078125 3.3528645833333313  C 43.03428819444444 5.588107638888884  46.18836805555556 8.62087673611111  48.513020833333336 12.451171875  Z " fill-rule="evenodd" />
    </mask>
  </defs>
  <g transform="matrix(1 0 0 1 -29 -586 )">
    <path d="M 42.690104166666664 28.548177083333336  C 43.118923611111114 28.135850694444443  43.333333333333336 27.647569444444443  43.333333333333336 27.083333333333336  L 43.333333333333336 22.916666666666668  C 43.333333333333336 22.352430555555554  43.118923611111114 21.864149305555554  42.690104166666664 21.451822916666668  C 42.26128472222223 21.03949652777778  41.75347222222223 20.833333333333332  41.166666666666664 21  L 24.171875 21  L 30.5703125 14.680989583333332  C 30.999131944444446 14.268663194444443  31.213541666666664 13.780381944444443  31.213541666666664 13.216145833333332  C 31.213541666666664 12.651909722222216  30.999131944444446 12.163628472222216  30.5703125 11.751302083333332  L 27.489583333333336 8.7890625  C 27.083333333333336 8.3984375  26.575520833333336 8.203125  25.966145833333332 8.203125  C 25.356770833333332 8.203125  24.848958333333332 8.3984375  24.442708333333332 8.7890625  L 12.1875 20.572916666666668  L 9.106770833333334 23.53515625  C 8.700520833333334 23.92578125  8.497395833333334 24.4140625  8.497395833333334 25  C 8.497395833333334 25.5859375  8.700520833333334 26.07421875  9.106770833333334 26.46484375  L 12.1875 29.427083333333336  L 24.442708333333332 41.2109375  C 24.848958333333332 41.6015625  25.356770833333332 41.796875  25.966145833333332 41.796875  C 26.575520833333336 41.796875  27.083333333333336 41.6015625  27.489583333333336 41.2109375  L 30.5703125 38.24869791666667  C 30.976562500000007 37.85807291666667  31.179687500000007 37.369791666666664  31.1796875 36.783854166666664  C 31.179687500000007 36.197916666666664  30.976562500000007 35.709635416666664  30.5703125 35.319010416666664  L 24.171875 29  L 41.166666666666664 29  C 41.75347222222223 29.166666666666664  42.26128472222223 28.96050347222222  42.690104166666664 28.548177083333336  Z M 48.513020833333336 12.451171875  C 50.83767361111111 16.281467013888886  52 20.464409722222214  52 25  C 52 29.53559027777778  50.83767361111111 33.71853298611111  48.513020833333336 37.548828125  C 46.18836805555556 41.37912326388889  43.03428819444444 44.41189236111111  39.05078125 46.64713541666667  C 35.06727430555556 48.88237847222223  30.71701388888889 50  26 50  C 21.282986111111114 50  16.932725694444446 48.88237847222223  12.94921875 46.64713541666667  C 8.965711805555557 44.41189236111111  5.811631944444445 41.37912326388889  3.486979166666667 37.548828125  C 1.1623263888888888 33.71853298611111  0 29.53559027777778  0 25  C 0 20.464409722222214  1.1623263888888888 16.281467013888886  3.486979166666667 12.451171875  C 5.811631944444445 8.62087673611111  8.965711805555557 5.588107638888884  12.94921875 3.3528645833333313  C 16.932725694444446 1.1176215277777735  21.282986111111114 0  26 0  C 30.71701388888889 0  35.06727430555556 1.1176215277777735  39.05078125 3.3528645833333313  C 43.03428819444444 5.588107638888884  46.18836805555556 8.62087673611111  48.513020833333336 12.451171875  Z " fill-rule="nonzero" fill="rgba(255, 255, 255, 1)" stroke="none" transform="matrix(1 0 0 1 29 586 )" class="fill" />
    <path d="M 42.690104166666664 28.548177083333336  C 43.118923611111114 28.135850694444443  43.333333333333336 27.647569444444443  43.333333333333336 27.083333333333336  L 43.333333333333336 22.916666666666668  C 43.333333333333336 22.352430555555554  43.118923611111114 21.864149305555554  42.690104166666664 21.451822916666668  C 42.26128472222223 21.03949652777778  41.75347222222223 20.833333333333332  41.166666666666664 21  L 24.171875 21  L 30.5703125 14.680989583333332  C 30.999131944444446 14.268663194444443  31.213541666666664 13.780381944444443  31.213541666666664 13.216145833333332  C 31.213541666666664 12.651909722222216  30.999131944444446 12.163628472222216  30.5703125 11.751302083333332  L 27.489583333333336 8.7890625  C 27.083333333333336 8.3984375  26.575520833333336 8.203125  25.966145833333332 8.203125  C 25.356770833333332 8.203125  24.848958333333332 8.3984375  24.442708333333332 8.7890625  L 12.1875 20.572916666666668  L 9.106770833333334 23.53515625  C 8.700520833333334 23.92578125  8.497395833333334 24.4140625  8.497395833333334 25  C 8.497395833333334 25.5859375  8.700520833333334 26.07421875  9.106770833333334 26.46484375  L 12.1875 29.427083333333336  L 24.442708333333332 41.2109375  C 24.848958333333332 41.6015625  25.356770833333332 41.796875  25.966145833333332 41.796875  C 26.575520833333336 41.796875  27.083333333333336 41.6015625  27.489583333333336 41.2109375  L 30.5703125 38.24869791666667  C 30.976562500000007 37.85807291666667  31.179687500000007 37.369791666666664  31.1796875 36.783854166666664  C 31.179687500000007 36.197916666666664  30.976562500000007 35.709635416666664  30.5703125 35.319010416666664  L 24.171875 29  L 41.166666666666664 29  C 41.75347222222223 29.166666666666664  42.26128472222223 28.96050347222222  42.690104166666664 28.548177083333336  Z " stroke-width="0" stroke-dasharray="0" stroke="rgba(255, 255, 255, 0)" fill="none" transform="matrix(1 0 0 1 29 586 )" class="stroke" mask="url(#Clip329)" />
    <path d="M 48.513020833333336 12.451171875  C 50.83767361111111 16.281467013888886  52 20.464409722222214  52 25  C 52 29.53559027777778  50.83767361111111 33.71853298611111  48.513020833333336 37.548828125  C 46.18836805555556 41.37912326388889  43.03428819444444 44.41189236111111  39.05078125 46.64713541666667  C 35.06727430555556 48.88237847222223  30.71701388888889 50  26 50  C 21.282986111111114 50  16.932725694444446 48.88237847222223  12.94921875 46.64713541666667  C 8.965711805555557 44.41189236111111  5.811631944444445 41.37912326388889  3.486979166666667 37.548828125  C 1.1623263888888888 33.71853298611111  0 29.53559027777778  0 25  C 0 20.464409722222214  1.1623263888888888 16.281467013888886  3.486979166666667 12.451171875  C 5.811631944444445 8.62087673611111  8.965711805555557 5.588107638888884  12.94921875 3.3528645833333313  C 16.932725694444446 1.1176215277777735  21.282986111111114 0  26 0  C 30.71701388888889 0  35.06727430555556 1.1176215277777735  39.05078125 3.3528645833333313  C 43.03428819444444 5.588107638888884  46.18836805555556 8.62087673611111  48.513020833333336 12.451171875  Z " stroke-width="0" stroke-dasharray="0" stroke="rgba(255, 255, 255, 0)" fill="none" transform="matrix(1 0 0 1 29 586 )" class="stroke" mask="url(#Clip329)" />
  </g>
</svg>